<svg width="45" height="33" viewBox="0 0 45 33" fill="none" xmlns="http://www.w3.org/2000/svg">
<path d="M0 33V24.75C0 23.5812 0.400568 22.6016 1.2017 21.8109C2.00284 21.0203 2.96591 20.625 4.09091 20.625H10.7898C11.4716 20.625 12.1193 20.7969 12.733 21.1406C13.3466 21.4844 13.8409 21.9484 14.2159 22.5328C15.2045 23.8734 16.4233 24.9219 17.8722 25.6781C19.321 26.4344 20.8636 26.8125 22.5 26.8125C24.1705 26.8125 25.7301 26.4344 27.179 25.6781C28.6278 24.9219 29.8295 23.8734 30.7841 22.5328C31.2273 21.9484 31.7472 21.4844 32.3438 21.1406C32.9403 20.7969 33.5625 20.625 34.2102 20.625H40.9091C42.0682 20.625 43.0398 21.0203 43.8239 21.8109C44.608 22.6016 45 23.5812 45 24.75V33H30.6818V28.3078C29.4886 29.1672 28.2017 29.8203 26.821 30.2672C25.4403 30.7141 24 30.9375 22.5 30.9375C21.0341 30.9375 19.6023 30.7055 18.2045 30.2414C16.8068 29.7773 15.5114 29.1156 14.3182 28.2563V33H0ZM22.5 24.75C21.2045 24.75 19.9773 24.4492 18.8182 23.8477C17.6591 23.2461 16.6875 22.4125 15.9034 21.3469C15.3239 20.4875 14.5994 19.8086 13.7301 19.3102C12.8608 18.8117 11.9148 18.5625 10.892 18.5625C11.642 17.2906 13.2273 16.2852 15.6477 15.5461C18.0682 14.807 20.3523 14.4375 22.5 14.4375C24.6477 14.4375 26.9318 14.807 29.3523 15.5461C31.7727 16.2852 33.358 17.2906 34.108 18.5625C33.1193 18.5625 32.1818 18.8117 31.2955 19.3102C30.4091 19.8086 29.6761 20.4875 29.0966 21.3469C28.3466 22.4469 27.392 23.2891 26.233 23.8734C25.0739 24.4578 23.8295 24.75 22.5 24.75ZM6.13636 18.5625C4.43182 18.5625 2.98295 17.9609 1.78977 16.7578C0.596591 15.5547 0 14.0938 0 12.375C0 10.6219 0.596591 9.15234 1.78977 7.96641C2.98295 6.78047 4.43182 6.1875 6.13636 6.1875C7.875 6.1875 9.33239 6.78047 10.5085 7.96641C11.6847 9.15234 12.2727 10.6219 12.2727 12.375C12.2727 14.0938 11.6847 15.5547 10.5085 16.7578C9.33239 17.9609 7.875 18.5625 6.13636 18.5625ZM38.8636 18.5625C37.1591 18.5625 35.7102 17.9609 34.517 16.7578C33.3239 15.5547 32.7273 14.0938 32.7273 12.375C32.7273 10.6219 33.3239 9.15234 34.517 7.96641C35.7102 6.78047 37.1591 6.1875 38.8636 6.1875C40.6023 6.1875 42.0597 6.78047 43.2358 7.96641C44.4119 9.15234 45 10.6219 45 12.375C45 14.0938 44.4119 15.5547 43.2358 16.7578C42.0597 17.9609 40.6023 18.5625 38.8636 18.5625ZM22.5 12.375C20.7955 12.375 19.3466 11.7734 18.1534 10.5703C16.9602 9.36719 16.3636 7.90625 16.3636 6.1875C16.3636 4.43437 16.9602 2.96484 18.1534 1.77891C19.3466 0.592969 20.7955 0 22.5 0C24.2386 0 25.696 0.592969 26.8722 1.77891C28.0483 2.96484 28.6364 4.43437 28.6364 6.1875C28.6364 7.90625 28.0483 9.36719 26.8722 10.5703C25.696 11.7734 24.2386 12.375 22.5 12.375Z" fill="white"/>
</svg>
