<svg width="41" height="33" viewBox="0 0 41 33" fill="none" xmlns="http://www.w3.org/2000/svg">
<path d="M20.5 12.8333L14.0834 6.41667L20.5 0L26.9167 6.41667L20.5 12.8333ZM0.333374 33V25.6667C0.333374 24.6278 0.692402 23.7569 1.41046 23.0542C2.12851 22.3514 2.99171 22 4.00004 22H10.0042C10.6153 22 11.1959 22.1528 11.7459 22.4583C12.2959 22.7639 12.7389 23.1764 13.075 23.6958C13.9612 24.8875 15.0535 25.8194 16.3521 26.4917C17.6507 27.1639 19.0334 27.5 20.5 27.5C21.9973 27.5 23.3952 27.1639 24.6938 26.4917C25.9924 25.8194 27.0695 24.8875 27.925 23.6958C28.3223 23.1764 28.7882 22.7639 29.323 22.4583C29.8577 22.1528 30.4153 22 30.9959 22H37C38.0389 22 38.9098 22.3514 39.6125 23.0542C40.3153 23.7569 40.6667 24.6278 40.6667 25.6667V33H27.8334V28.8292C26.7639 29.5931 25.6105 30.1736 24.373 30.5708C23.1355 30.9681 21.8445 31.1667 20.5 31.1667C19.1862 31.1667 17.9028 30.9604 16.65 30.5479C15.3973 30.1354 14.2362 29.5472 13.1667 28.7833V33H0.333374ZM5.83337 20.1667C4.3056 20.1667 3.00698 19.6319 1.93754 18.5625C0.868096 17.4931 0.333374 16.1944 0.333374 14.6667C0.333374 13.1083 0.868096 11.8021 1.93754 10.7479C3.00698 9.69375 4.3056 9.16667 5.83337 9.16667C7.39171 9.16667 8.69796 9.69375 9.75212 10.7479C10.8063 11.8021 11.3334 13.1083 11.3334 14.6667C11.3334 16.1944 10.8063 17.4931 9.75212 18.5625C8.69796 19.6319 7.39171 20.1667 5.83337 20.1667ZM35.1667 20.1667C33.6389 20.1667 32.3403 19.6319 31.2709 18.5625C30.2014 17.4931 29.6667 16.1944 29.6667 14.6667C29.6667 13.1083 30.2014 11.8021 31.2709 10.7479C32.3403 9.69375 33.6389 9.16667 35.1667 9.16667C36.725 9.16667 38.0313 9.69375 39.0855 10.7479C40.1396 11.8021 40.6667 13.1083 40.6667 14.6667C40.6667 16.1944 40.1396 17.4931 39.0855 18.5625C38.0313 19.6319 36.725 20.1667 35.1667 20.1667Z" fill="white"/>
</svg>
