<svg width="79" height="79" viewBox="0 0 79 79" fill="none" xmlns="http://www.w3.org/2000/svg">
<rect x="1.5" y="1.5" width="76" height="76" rx="38" fill="#D9D9D9"/>
<rect x="1.5" y="1.5" width="76" height="76" rx="38" stroke="url(#paint0_linear_112_897)" stroke-width="3" stroke-dasharray="1 1"/>
<path d="M57.263 40.9705C58.033 34.6295 55.253 29.2095 50.923 25.6705L57.863 18.7295C52.983 14.3995 46.543 11.7795 39.503 11.7795C24.194 11.7795 11.783 24.1895 11.783 39.5005C11.783 54.8105 24.193 67.2205 39.503 67.2205C54.323 67.2205 66.423 55.5905 67.184 40.9705H57.263ZM39.503 55.7805C30.513 55.7805 23.233 48.4915 23.233 39.5015C23.233 30.5115 30.512 23.2215 39.503 23.2215C48.493 23.2215 55.783 30.5115 55.783 39.5015C55.783 48.4905 48.493 55.7805 39.503 55.7805Z" fill="#0A0B14"/>
<path d="M24.4829 39.5005C24.4829 31.2183 31.2212 24.4705 39.5029 24.4705C47.7957 24.4705 54.5329 31.2184 54.5329 39.5005C54.5329 47.7825 47.7957 54.5294 39.5029 54.5294C31.2212 54.5294 24.4829 47.7826 24.4829 39.5005ZM41.8329 29.3205C41.8329 28.0226 40.7712 26.9594 39.4739 26.9594L37.3639 29.3205H37.1139C37.1139 29.3205 37.1139 29.3206 37.1139 29.3207C37.114 30.6287 38.165 31.6794 39.4739 31.6794C40.7701 31.6794 41.8329 30.6294 41.8329 29.3205ZM27.4439 36.4504C27.4439 37.7584 28.4947 38.8105 29.8029 38.8105C31.1121 38.8105 32.1629 37.7574 32.1629 36.4504C32.1629 35.1531 31.1126 34.0915 29.8029 34.0915C28.494 34.0915 27.4439 35.1531 27.4439 36.4504ZM31.1039 47.8604C31.1039 49.1576 32.1539 50.2205 33.4629 50.2205C34.761 50.2205 35.8229 49.1585 35.8229 47.8604C35.8229 46.5514 34.76 45.5015 33.4629 45.5015C32.1559 45.5015 31.1039 46.5523 31.1039 47.8604ZM39.5029 32.8304C35.8149 32.8304 32.8329 35.8114 32.8329 39.5005C32.8329 43.1778 35.8151 46.1605 39.5029 46.1605C43.1805 46.1605 46.1729 43.178 46.1729 39.5005C46.1729 35.8111 43.1807 32.8304 39.5029 32.8304ZM43.1629 47.8604C43.1629 49.157 44.2144 50.2205 45.5129 50.2205C46.8228 50.2205 47.8729 49.1577 47.8729 47.8604C47.8729 46.5523 46.8219 45.5015 45.5129 45.5015C44.2142 45.5015 43.1629 46.553 43.1629 47.8604ZM46.8429 36.4504C46.8429 37.7585 47.8948 38.8105 49.2029 38.8105C50.5003 38.8105 51.5629 37.7582 51.5629 36.4504C51.5629 35.1522 50.5008 34.0915 49.2029 34.0915C47.8942 34.0915 46.8429 35.153 46.8429 36.4504Z" fill="#0A0B14" stroke="url(#paint1_linear_112_897)" stroke-width="0.5"/>
<path d="M58.3589 39.9745C58.6839 34.5395 56.5509 29.4075 52.3929 25.6165L62.0539 15.9554C68.2559 22.5094 71.7589 30.9685 71.9999 39.9755H58.3589V39.9745Z" fill="#0A0B14"/>
<defs>
<linearGradient id="paint0_linear_112_897" x1="39.5" y1="3" x2="39.5" y2="76" gradientUnits="userSpaceOnUse">
<stop offset="0.215" stop-color="#E30613"/>
<stop offset="0.635" stop-color="#B0050F"/>
<stop offset="1" stop-color="#7D030A"/>
</linearGradient>
<linearGradient id="paint1_linear_112_897" x1="39.5079" y1="24.2205" x2="39.5079" y2="54.7794" gradientUnits="userSpaceOnUse">
<stop offset="0.215" stop-color="#E30613"/>
<stop offset="0.635" stop-color="#B0050F"/>
<stop offset="1" stop-color="#7D030A"/>
</linearGradient>
</defs>
</svg>
