<svg width="79" height="79" viewBox="0 0 79 79" fill="none" xmlns="http://www.w3.org/2000/svg">
<circle cx="39.5" cy="39.5" r="38" fill="#D9D9D9" stroke="url(#paint0_linear_114_538)" stroke-width="3" stroke-dasharray="1 1"/>
<path d="M63.5581 22H15.7525C14.9267 22 14.2533 22.6173 14.2533 23.3629V51.7192C14.2533 52.4728 14.9267 53.0821 15.7525 53.0821H63.5581C64.3839 53.0821 65.0493 52.4728 65.0493 51.7192V23.3629C65.0493 22.6173 64.3839 22 63.5581 22ZM62.8927 50.3883H16.4179V24.5735H62.8927V50.3883Z" fill="#0A0B14"/>
<path d="M68.3058 54.1644C68.3058 55.7309 67.1482 57 65.7163 57H13.5863C12.1585 57 11 55.7309 11 54.1644H68.3058Z" fill="#0A0B14"/>
<path d="M19.0171 42.8443V39.6375H33.4478V42.8443H19.0171ZM20.6205 42.0426H22.2239V40.4392H20.6205V42.0426ZM19.0171 33.2238V30.017H33.4478V33.2238H19.0171ZM20.6205 32.4221H22.2239V30.8187H20.6205V32.4221ZM19.0171 38.0341V34.8273H33.4478V38.0341H19.0171ZM20.6205 37.2324H22.2239V35.629H20.6205V37.2324Z" fill="#0A0B14"/>
<path d="M50.4495 29.156H48.3546V32.7541H50.4495V29.156Z" fill="#0A0B14"/>
<path d="M53.5913 28.695H51.4965V32.7541H53.5913V28.695Z" fill="#0A0B14"/>
<path d="M56.734 29.7445H54.6392V32.7549H56.734V29.7445Z" fill="#0A0B14"/>
<path d="M59.8751 27.6496H57.7803V32.7549H59.8751V27.6496Z" fill="#0A0B14"/>
<path d="M55.6862 29.0959C55.6285 29.0959 55.5715 29.083 55.517 29.0582L52.5018 27.6568L49.4954 28.3767C49.4241 28.3928 49.3495 28.392 49.279 28.3679L48.2311 28.0304C48.0203 27.9631 47.9049 27.737 47.9722 27.5261C48.0403 27.3153 48.2672 27.199 48.4765 27.268L49.4169 27.571L52.4497 26.8455C52.5363 26.8247 52.6293 26.8327 52.7119 26.8719L55.6237 28.2252L58.5699 25.7744C58.6421 25.7151 58.7327 25.6822 58.8265 25.6822H59.8743C60.0956 25.6822 60.2752 25.8618 60.2752 26.0831C60.2752 26.3043 60.0956 26.4839 59.8743 26.4839H58.9716L55.9411 29.0037C55.869 29.0646 55.7784 29.0959 55.6862 29.0959Z" fill="url(#paint1_linear_114_538)"/>
<path d="M48.4299 47.0532V47.2032H48.5799H57.5991H57.7491V47.0532V41.0405V40.8905H57.5991H48.5799H48.4299V41.0405V47.0532ZM48.5799 47.9054C48.3444 47.9054 48.1465 47.8233 47.9782 47.6549C47.8099 47.4866 47.7278 47.2887 47.7278 47.0532V41.0405C47.7278 40.805 47.8099 40.6071 47.9782 40.4388C48.1465 40.2704 48.3444 40.1883 48.5799 40.1883H57.5991C57.8345 40.1883 58.0324 40.2704 58.2008 40.4388C58.3691 40.6071 58.4512 40.805 58.4512 41.0405V47.0532C58.4512 47.2887 58.3691 47.4866 58.2008 47.6549C58.0324 47.8233 57.8345 47.9054 57.5991 47.9054H48.5799ZM54.9437 45.7V46.4022H51.2352V45.7H54.9437ZM50.4341 43.9463V44.6484H49.732V43.9463H50.4341ZM52.4384 43.9463V44.6484H51.7363V43.9463H52.4384ZM54.4427 43.9463V44.6484H53.7405V43.9463H54.4427ZM56.4469 43.9463V44.6484H55.7448V43.9463H56.4469ZM50.4341 42.1926V42.8947H49.732V42.1926H50.4341ZM52.4384 42.1926V42.8947H51.7363V42.1926H52.4384ZM54.4427 42.1926V42.8947H53.7405V42.1926H54.4427ZM56.4469 42.1926V42.8947H55.7448V42.1926H56.4469Z" fill="#0A0B14" stroke="url(#paint2_linear_114_538)" stroke-width="0.3"/>
<line x1="40.3613" y1="26.8102" x2="40.3613" y2="48.4562" stroke="#0A0B14"/>
<line x1="42.2665" y1="36.7324" x2="60.7057" y2="36.7324" stroke="#0A0B14"/>
<defs>
<linearGradient id="paint0_linear_114_538" x1="39.5" y1="3" x2="39.5" y2="76" gradientUnits="userSpaceOnUse">
<stop offset="0.215" stop-color="#E30613"/>
<stop offset="0.635" stop-color="#B0050F"/>
<stop offset="1" stop-color="#7D030A"/>
</linearGradient>
<linearGradient id="paint1_linear_114_538" x1="54.1141" y1="25.6822" x2="54.1141" y2="29.0959" gradientUnits="userSpaceOnUse">
<stop offset="0.215" stop-color="#E30613"/>
<stop offset="0.635" stop-color="#B0050F"/>
<stop offset="1" stop-color="#7D030A"/>
</linearGradient>
<linearGradient id="paint2_linear_114_538" x1="53.0895" y1="40.0383" x2="53.0895" y2="48.0554" gradientUnits="userSpaceOnUse">
<stop offset="0.215" stop-color="#E30613"/>
<stop offset="0.635" stop-color="#B0050F"/>
<stop offset="1" stop-color="#7D030A"/>
</linearGradient>
</defs>
</svg>
