<svg width="79" height="79" viewBox="0 0 79 79" fill="none" xmlns="http://www.w3.org/2000/svg">
<circle cx="39.5" cy="39.5" r="38" fill="#D9D9D9" stroke="url(#paint0_linear_114_555)" stroke-width="3" stroke-dasharray="1 1"/>
<path d="M57.8049 54.0293C56.1359 51.5269 53.1791 50.4896 50.4874 51.2219L45.4641 46.0419L44.4034 47.1351L47.777 50.6132C48.2582 51.1107 48.2582 51.9113 47.777 52.4088C47.536 52.6573 47.2229 52.7815 46.903 52.7815C46.5898 52.7815 46.2772 52.6579 46.0363 52.4088L42.6634 48.9245L41.6033 50.0244L46.1923 54.7566C45.0666 56.9801 45.1383 59.7508 46.6079 61.9619C48.0294 64.0985 50.3904 65.16 52.7274 64.9805L49.6556 60.3651C49.2346 59.731 49.3912 58.8751 50.0049 58.4335L53.3966 56.0305C54.0109 55.5957 54.8481 55.7572 55.2752 56.3845L58.3409 60.9992C59.3468 58.8186 59.2269 56.1596 57.8049 54.0293ZM36.5131 39.521C36.827 39.521 37.1462 39.6446 37.3811 39.8937L41.1455 43.7756L42.2056 42.6824L37.3209 37.6459C38.393 35.4224 38.2725 32.6834 36.7968 30.5095C35.3513 28.3916 32.9842 27.3481 30.6533 27.5593L33.7678 32.1362C34.1949 32.7697 34.0443 33.633 33.4359 34.0746L30.069 36.5155C29.4547 36.9559 28.6174 36.8075 28.1898 36.1733L25.0692 31.5902C24.0881 33.7883 24.2326 36.4404 25.6715 38.5583C27.3827 41.0682 30.3943 42.0675 33.1107 41.2663L38.3448 46.6637L39.4109 45.5705L35.6464 41.6887C35.1646 41.1912 35.1646 40.3906 35.6464 39.8931C35.8813 39.6446 36.1999 39.521 36.5131 39.521Z" fill="#0A0B14"/>
<path d="M40.4161 52.6573C40.1878 52.8927 39.8162 52.8927 39.5879 52.6573L35.7891 48.74C35.5602 48.504 35.5602 48.122 35.7891 47.886L35.9927 47.6761C36.221 47.4407 36.592 47.4407 36.8209 47.6761L40.6196 51.5933C40.8479 51.8293 40.8479 52.2119 40.6196 52.448L40.4161 52.6573Z" fill="#0A0B14"/>
<path d="M38.7302 53.5268L30.4304 62.8619L29.407 64.0109C29.0878 64.3401 28.7258 64.5885 28.3283 64.7494C28.0271 64.8805 27.72 64.9544 27.4074 64.9798C27.305 64.9923 27.2026 64.9978 27.0942 64.9978C26.2563 65.0041 25.4191 64.6749 24.7807 64.0165C23.4978 62.6936 23.4978 60.557 24.7807 59.2409L25.8895 58.1912L34.9417 49.6263L38.7302 53.5268Z" fill="#0A0B14"/>
<path d="M55.7328 33.5827L54.1554 36.1417L52.758 36.7565L40.2239 49.6872L38.6699 48.0848L51.2101 35.1541L51.8063 33.72L54.2879 32.0921L54.4204 32.2294L52.59 33.807C52.2701 34.1361 52.4147 34.8442 52.7339 35.1796C53.0652 35.515 53.7699 35.7131 54.0957 35.3783L55.5949 33.4405L55.7328 33.5827Z" fill="#0A0B14"/>
<line x1="49.7179" y1="20.9532" x2="58.7526" y2="20.9532" stroke="#0A0B14" stroke-width="3"/>
<path d="M36.1111 28.5142L38.4072 24.0748L38.5056 23.8845L38.2931 23.8571L33.7796 23.2754L40.7448 16.3922H41.6414L39.3453 20.8315L39.2469 21.0218L39.4594 21.0492L43.9729 21.631L37.0077 28.5142H36.1111Z" fill="#0A0B14" stroke="url(#paint1_linear_114_555)" stroke-width="0.3"/>
<path d="M54.3105 32.4684C54.713 32.6966 55.308 33.2058 55.5152 33.6329" stroke="#0A0B14" stroke-linecap="round"/>
<path d="M52.6542 34.0211C52.6787 34.2359 53.0911 35.6217 53.4614 35.397C53.9148 35.1221 54.4216 34.7048 54.6493 34.2195C54.7433 34.0193 54.9364 33.6623 54.8794 33.4345C54.8254 33.2187 54.5314 32.8018 54.298 32.7833C53.5725 32.7257 53.4237 33.5142 53.1059 33.9823C52.9947 34.1462 52.9476 33.6901 52.9553 33.6157C52.9773 33.404 53.2788 33.8515 53.3067 33.8572C53.4737 33.8917 53.6616 33.3853 53.8755 33.3397C54.3901 33.2299 53.9236 33.881 53.8086 34.047C53.7277 34.1638 53.0038 35.1668 53.4991 34.6077C53.7937 34.2752 54.0074 33.8083 54.3524 33.5294C54.5795 33.3459 54.5072 33.8662 54.4862 33.9435C54.4178 34.1951 54.284 34.4183 54.16 34.6422" stroke="#0A0B14" stroke-linecap="round"/>
<path d="M52.7295 34.9528C52.7524 34.9205 52.9598 34.6537 52.9386 34.6508C52.6583 34.6131 52.9982 34.3445 53.1059 34.2627C53.6226 33.8704 53.9482 34.167 53.8588 34.7199" stroke="#0A0B14" stroke-linecap="round"/>
<path d="M55.2893 33.7882C54.878 34.0609 54.857 34.2532 54.6702 34.6854C54.4619 35.1674 53.4983 35.9797 53.1435 35.3237C52.953 34.9715 52.9987 34.6983 52.6123 34.6983C52.4595 34.6983 52.8093 34.4539 52.9302 34.3575C53.2092 34.1352 53.4854 33.9638 53.7835 33.7882" stroke="#0A0B14" stroke-linecap="round"/>
<line x1="35.8647" y1="64.1879" x2="44.8994" y2="64.1879" stroke="url(#paint2_linear_114_555)"/>
<line x1="24.5" y1="26" x2="24.5" y2="17" stroke="url(#paint3_linear_114_555)" stroke-width="3"/>
<line x1="20" y1="21.5" x2="29" y2="21.5" stroke="url(#paint4_linear_114_555)" stroke-width="3"/>
<defs>
<linearGradient id="paint0_linear_114_555" x1="39.5" y1="3" x2="39.5" y2="76" gradientUnits="userSpaceOnUse">
<stop offset="0.215" stop-color="#E30613"/>
<stop offset="0.635" stop-color="#B0050F"/>
<stop offset="1" stop-color="#7D030A"/>
</linearGradient>
<linearGradient id="paint1_linear_114_555" x1="38.8762" y1="16.2422" x2="38.8762" y2="28.6642" gradientUnits="userSpaceOnUse">
<stop offset="0.215" stop-color="#E30613"/>
<stop offset="0.635" stop-color="#B0050F"/>
<stop offset="1" stop-color="#7D030A"/>
</linearGradient>
<linearGradient id="paint2_linear_114_555" x1="40.3821" y1="64.6879" x2="40.3821" y2="65.6879" gradientUnits="userSpaceOnUse">
<stop offset="0.215" stop-color="#E30613"/>
<stop offset="0.635" stop-color="#B0050F"/>
<stop offset="1" stop-color="#7D030A"/>
</linearGradient>
<linearGradient id="paint3_linear_114_555" x1="26" y1="21.5" x2="27" y2="21.5" gradientUnits="userSpaceOnUse">
<stop offset="0.215" stop-color="#E30613"/>
<stop offset="0.635" stop-color="#B0050F"/>
<stop offset="1" stop-color="#7D030A"/>
</linearGradient>
<linearGradient id="paint4_linear_114_555" x1="24.5" y1="23" x2="24.5" y2="24" gradientUnits="userSpaceOnUse">
<stop offset="0.215" stop-color="#E30613"/>
<stop offset="0.635" stop-color="#B0050F"/>
<stop offset="1" stop-color="#7D030A"/>
</linearGradient>
</defs>
</svg>
