<svg width="79" height="79" viewBox="0 0 79 79" fill="none" xmlns="http://www.w3.org/2000/svg">
<circle cx="39.5" cy="39.5" r="38" fill="#D9D9D9" stroke="url(#paint0_linear_81_45225)" stroke-width="3" stroke-linejoin="bevel" stroke-dasharray="1 1"/>
<path d="M31.8543 44.2706L33.3139 43.7775L33.6538 43.6626V43.3038V40.7739C35.7462 42.3517 38.1934 43.2116 40.698 43.2116C43.0729 43.2116 45.3426 42.4701 47.346 41.0594V43.4697V43.8068L47.6585 43.9332L49.0205 44.4842C48.4087 45.4031 47.3942 46.2274 46.0699 46.8514C44.5284 47.5777 42.6006 48.0154 40.4995 48.0154C38.3303 48.0154 36.3437 47.5474 34.7782 46.7765C33.4284 46.1117 32.4204 45.2372 31.8543 44.2706Z" fill="#0A0B14" stroke="url(#paint1_linear_81_45225)"/>
<path d="M54.2094 24.2596L52.7338 23.8475L52.6596 23.8236C52.5202 23.7733 52.206 23.6842 51.5546 23.5836L50.6315 24.9771L50.5988 25.0424L50.5573 25.0839L50.4179 25.3063C50.3437 25.4219 50.2776 25.5296 50.2114 25.6276C49.6756 26.4113 49.2555 26.8491 48.0261 26.8491H47.6554L47.4736 26.7493C47.1118 26.5596 44.7456 26.1968 40.6973 26.1968C36.7892 26.1968 34.3569 26.5269 33.9368 26.7493L33.7558 26.8491H33.3843C32.1222 26.8491 31.71 26.3946 31.1664 25.5702C31.109 25.4802 31.0507 25.3893 30.9846 25.2904L30.853 25.0848L30.8124 25.053L30.771 24.9692L29.8558 23.5844C29.1965 23.6842 28.8823 23.7742 28.7428 23.8166L28.6687 23.8483L27.2425 24.1281C26.863 24.9939 26.7314 26.2057 26.9291 27.5172C27.1851 29.232 27.952 30.6088 28.8337 31.1287C28.9246 31.186 29.0155 31.2363 29.1144 31.2681C29.8557 34.1868 31.282 36.7259 33.153 38.5899C35.2235 40.6595 37.8439 41.8872 40.6973 41.8872C43.3679 41.8872 45.8418 40.8069 47.8452 38.9606C49.9228 37.0648 51.5052 34.3765 52.2977 31.2522C53.2951 30.8815 54.1856 29.3971 54.4742 27.5181C54.6551 26.2719 54.5395 25.1095 54.2094 24.2596ZM53.6569 27.4015C53.3939 29.0996 52.6181 30.2531 52.0083 30.4764L51.6041 30.6335L51.4973 31.0457C50.7639 33.9476 49.2723 36.5441 47.2927 38.3498C45.3634 40.1229 43.0881 41.0629 40.6973 41.0629C38.1413 41.0629 35.7337 40.0064 33.7382 38.003C31.9333 36.2061 30.6139 33.8064 29.9131 31.0616L29.7984 30.6256L29.3694 30.4853C29.3606 30.4853 29.3359 30.4676 29.2794 30.435C28.6934 30.0881 27.9847 29.0008 27.7464 27.3936C27.6061 26.4607 27.6475 25.5552 27.8532 24.8465L28.9167 24.64L28.9988 24.5985C29.057 24.5817 29.1973 24.5411 29.4692 24.4917L30.0543 25.3822L30.1532 25.5799L30.2353 25.6452L30.4665 26.008C31.0763 26.9241 31.703 27.6743 33.3851 27.6743H33.9703L34.3339 27.4757C34.6057 27.3601 36.6912 27.022 40.6981 27.022C44.6626 27.022 46.7993 27.368 47.1197 27.4916L47.441 27.6734H48.0261C49.6748 27.6734 50.3023 26.9559 50.8954 26.0909L51.2087 25.6038L51.2334 25.5702L51.3322 25.414L51.9412 24.4908C52.1971 24.5403 52.3295 24.5817 52.386 24.5976L52.4778 24.6303L53.566 24.9357C53.7478 25.6373 53.7893 26.511 53.6569 27.4015Z" fill="#0A0B14"/>
<path d="M29.1144 61.7111H29.6144V61.2111V55.6443H51.5418V61.2111V61.7111H52.0418H58.5V67.093H22.5V61.7111H29.1144Z" fill="#0A0B14" stroke="url(#paint2_linear_81_45225)"/>
<path d="M27.7893 44.2311V57.2339C27.5524 56.2349 26.6525 55.4925 25.578 55.4925C24.4948 55.4925 23.5873 56.2549 23.365 57.2727V45.6024L27.7893 44.2311ZM27.7893 58.2823V59.8877H26.3721C27.0763 59.6256 27.6141 59.0246 27.7893 58.2823ZM23.365 58.2446C23.5302 59.0039 24.0738 59.6211 24.7875 59.8877H23.365V58.2446Z" fill="#0A0B14" stroke="url(#paint3_linear_81_45225)"/>
<path d="M54.7829 59.8868H53.3651V58.238C53.5273 58.9989 54.0672 59.6188 54.7829 59.8868ZM55.5781 55.4925C54.4859 55.4925 53.5834 56.2593 53.3651 57.2793V44.2302L57.7903 45.6016V57.2726C57.5681 56.255 56.6615 55.4925 55.5781 55.4925ZM57.7903 58.2446V59.8868H56.3705C57.0828 59.6198 57.6253 59.0031 57.7903 58.2446Z" fill="#0A0B14" stroke="url(#paint4_linear_81_45225)"/>
<path d="M53.3278 18.2829V23.3294C53.3278 23.0982 52.6024 22.8917 51.3332 22.7204C51.275 22.7107 51.2088 22.7028 51.1514 22.6949L49.9308 24.5421C49.922 24.55 49.922 24.558 49.9149 24.5659C49.14 25.7459 49.0571 26.0257 48.0262 26.0257H47.8621C47.1692 25.6541 44.2179 25.3734 40.6982 25.3734C37.1856 25.3734 34.259 25.6462 33.5503 26.0257H33.3844C32.3456 26.0257 32.2626 25.7459 31.4965 24.5659C31.4877 24.558 31.4877 24.55 31.4798 24.5421L30.2513 22.6949C30.1939 22.7037 30.1277 22.7116 30.0703 22.7204C28.8091 22.8917 28.0748 23.0991 28.0748 23.3294V18.2829C28.0748 12.7509 33.7233 9 40.6974 9C47.6723 9 53.3278 12.7509 53.3278 18.2829Z" fill="#0A0B14"/>
<path d="M43.5 18.5C43.5 18.6228 43.3875 18.8686 42.8977 19.1134C42.4379 19.3434 41.7676 19.5 41 19.5C40.2324 19.5 39.5621 19.3434 39.1023 19.1134C38.6125 18.8686 38.5 18.6228 38.5 18.5C38.5 18.3772 38.6125 18.1314 39.1023 17.8866C39.5621 17.6566 40.2324 17.5 41 17.5C41.7676 17.5 42.4379 17.6566 42.8977 17.8866C43.3875 18.1314 43.5 18.3772 43.5 18.5Z" fill="#D9D9D9" stroke="url(#paint5_linear_81_45225)"/>
<circle cx="35.5" cy="30.5" r="0.5" fill="#0A0B14"/>
<circle cx="46.5" cy="30.5" r="0.5" fill="#0A0B14"/>
<defs>
<linearGradient id="paint0_linear_81_45225" x1="39.5" y1="3" x2="39.5" y2="76" gradientUnits="userSpaceOnUse">
<stop offset="0.215" stop-color="#E30613"/>
<stop offset="0.635" stop-color="#B0050F"/>
<stop offset="1" stop-color="#7D030A"/>
</linearGradient>
<linearGradient id="paint1_linear_81_45225" x1="40.4461" y1="39.7179" x2="40.4461" y2="48.5154" gradientUnits="userSpaceOnUse">
<stop offset="0.215" stop-color="#E30613"/>
<stop offset="0.635" stop-color="#B0050F"/>
<stop offset="1" stop-color="#7D030A"/>
</linearGradient>
<linearGradient id="paint2_linear_81_45225" x1="40.5" y1="55.1443" x2="40.5" y2="67.593" gradientUnits="userSpaceOnUse">
<stop offset="0.215" stop-color="#E30613"/>
<stop offset="0.635" stop-color="#B0050F"/>
<stop offset="1" stop-color="#7D030A"/>
</linearGradient>
<linearGradient id="paint3_linear_81_45225" x1="25.5771" y1="43.5526" x2="25.5771" y2="60.3877" gradientUnits="userSpaceOnUse">
<stop offset="0.215" stop-color="#E30613"/>
<stop offset="0.635" stop-color="#B0050F"/>
<stop offset="1" stop-color="#7D030A"/>
</linearGradient>
<linearGradient id="paint4_linear_81_45225" x1="55.5777" y1="43.5518" x2="55.5777" y2="60.3868" gradientUnits="userSpaceOnUse">
<stop offset="0.215" stop-color="#E30613"/>
<stop offset="0.635" stop-color="#B0050F"/>
<stop offset="1" stop-color="#7D030A"/>
</linearGradient>
<linearGradient id="paint5_linear_81_45225" x1="41" y1="17" x2="41" y2="20" gradientUnits="userSpaceOnUse">
<stop offset="0.215" stop-color="#E30613"/>
<stop offset="0.635" stop-color="#B0050F"/>
<stop offset="1" stop-color="#7D030A"/>
</linearGradient>
</defs>
</svg>
