<svg width="79" height="79" viewBox="0 0 79 79" fill="none" xmlns="http://www.w3.org/2000/svg">
<circle cx="39.5" cy="39.5" r="38" fill="#D9D9D9" stroke="url(#paint0_linear_114_154)" stroke-width="3" stroke-dasharray="1 1"/>
<path d="M39.9323 21.5C44.9572 21.5 49.0773 25.3663 49.0773 30.1915C49.0773 35.0167 44.9572 38.883 39.9323 38.883C34.9074 38.883 30.7874 35.0167 30.7874 30.1915C30.7874 25.3663 34.9074 21.5 39.9323 21.5Z" fill="#0A0B14" stroke="#0A0B14"/>
<ellipse cx="2.88166" cy="2.7305" rx="2.88166" ry="2.7305" transform="matrix(1 0 0 -1 37.0507 32.922)" fill="#D9D9D9"/>
<ellipse cx="2.16124" cy="2.04787" rx="2.16124" ry="2.04787" transform="matrix(1 0 0 -1 42.0936 36.3351)" fill="#D9D9D9"/>
<ellipse cx="2.16124" cy="2.04787" rx="2.16124" ry="2.04787" transform="matrix(1 0 0 -1 37.7711 26.0957)" fill="#D9D9D9"/>
<ellipse cx="2.16124" cy="2.04787" rx="2.16124" ry="2.04787" transform="matrix(1 0 0 -1 32.0078 30.1915)" fill="#D9D9D9"/>
<ellipse cx="2.16124" cy="2.04787" rx="2.16124" ry="2.04787" transform="matrix(1 0 0 -1 43.5344 30.1915)" fill="#D9D9D9"/>
<ellipse cx="2.16124" cy="2.04787" rx="2.16124" ry="2.04787" transform="matrix(1 0 0 -1 33.4486 36.3351)" fill="#D9D9D9"/>
<path d="M48.5773 43.0957C52.3001 43.0957 55.3645 45.9618 55.3645 49.5532C55.3645 53.1446 52.3001 56.0106 48.5773 56.0106C44.8545 56.0106 41.79 53.1446 41.79 49.5532C41.79 45.9618 44.8545 43.0957 48.5773 43.0957Z" fill="#0A0B14" stroke="#0A0B14"/>
<ellipse cx="2.09575" cy="1.98582" rx="2.09575" ry="1.98582" transform="matrix(1 0 0 -1 46.4816 51.539)" fill="#D9D9D9"/>
<ellipse cx="0.758491" cy="1.15888" rx="0.758491" ry="1.15888" transform="matrix(0.594308 -0.804237 -0.833275 -0.552859 53.6522 53.5439)" fill="#D9D9D9"/>
<ellipse cx="0.785907" cy="1.11702" rx="0.785907" ry="1.11702" transform="matrix(1 0 0 -1 47.7914 45.8298)" fill="#D9D9D9"/>
<ellipse cx="0.785907" cy="1.11702" rx="0.785907" ry="1.11702" transform="matrix(1 0 0 -1 47.7914 55.5106)" fill="#D9D9D9"/>
<ellipse cx="0.75221" cy="1.16806" rx="0.75221" ry="1.16806" transform="matrix(0.44155 -0.897236 -0.914691 -0.404154 45.2128 48.1237)" fill="#D9D9D9"/>
<ellipse cx="0.75221" cy="1.16806" rx="0.75221" ry="1.16806" transform="matrix(0.44155 0.897237 0.914691 -0.404153 51.7209 46.7739)" fill="#D9D9D9"/>
<ellipse cx="0.758491" cy="1.15888" rx="0.758491" ry="1.15888" transform="matrix(0.594308 0.804237 0.833275 -0.552859 43.0759 52.3239)" fill="#D9D9D9"/>
<ellipse cx="43.4689" cy="49.9255" rx="0.392953" ry="0.37234" fill="#D9D9D9"/>
<ellipse cx="45.8267" cy="45.4574" rx="0.392953" ry="0.372341" fill="#D9D9D9"/>
<ellipse cx="51.328" cy="45.4574" rx="0.392953" ry="0.372341" fill="#D9D9D9"/>
<ellipse cx="52.8998" cy="49.9255" rx="0.392953" ry="0.37234" fill="#D9D9D9"/>
<ellipse cx="51.328" cy="54.3936" rx="0.392953" ry="0.37234" fill="#D9D9D9"/>
<ellipse cx="45.8267" cy="54.3936" rx="0.392953" ry="0.37234" fill="#D9D9D9"/>
<path d="M31.2874 43.0957C35.0101 43.0957 38.0746 45.9618 38.0746 49.5532C38.0746 53.1446 35.0101 56.0106 31.2874 56.0106C27.5646 56.0106 24.5001 53.1446 24.5001 49.5532C24.5001 45.9618 27.5646 43.0957 31.2874 43.0957Z" fill="#0A0B14" stroke="#0A0B14"/>
<ellipse cx="2.09575" cy="1.98582" rx="2.09575" ry="1.98582" transform="matrix(1 0 0 -1 29.1917 51.539)" fill="#D9D9D9"/>
<ellipse cx="0.758491" cy="1.15888" rx="0.758491" ry="1.15888" transform="matrix(0.594308 -0.804237 -0.833275 -0.552859 36.3623 53.5439)" fill="#D9D9D9"/>
<ellipse cx="0.785907" cy="1.11702" rx="0.785907" ry="1.11702" transform="matrix(1 0 0 -1 30.5015 45.8298)" fill="#D9D9D9"/>
<ellipse cx="0.785907" cy="1.11702" rx="0.785907" ry="1.11702" transform="matrix(1 0 0 -1 30.5015 55.5106)" fill="#D9D9D9"/>
<ellipse cx="0.75221" cy="1.16806" rx="0.75221" ry="1.16806" transform="matrix(0.44155 -0.897236 -0.914691 -0.404154 27.9229 48.1237)" fill="#D9D9D9"/>
<ellipse cx="0.75221" cy="1.16806" rx="0.75221" ry="1.16806" transform="matrix(0.44155 0.897237 0.914691 -0.404153 34.431 46.7739)" fill="#D9D9D9"/>
<ellipse cx="0.758491" cy="1.15888" rx="0.758491" ry="1.15888" transform="matrix(0.594308 0.804237 0.833275 -0.552859 25.786 52.3239)" fill="#D9D9D9"/>
<ellipse cx="26.179" cy="49.9255" rx="0.392953" ry="0.37234" fill="#D9D9D9"/>
<ellipse cx="28.5368" cy="45.4574" rx="0.392953" ry="0.372341" fill="#D9D9D9"/>
<ellipse cx="34.0381" cy="45.4574" rx="0.392953" ry="0.372341" fill="#D9D9D9"/>
<ellipse cx="35.6099" cy="49.9255" rx="0.392953" ry="0.37234" fill="#D9D9D9"/>
<ellipse cx="34.0381" cy="54.3936" rx="0.392953" ry="0.37234" fill="#D9D9D9"/>
<ellipse cx="28.5368" cy="54.3936" rx="0.392953" ry="0.37234" fill="#D9D9D9"/>
<line y1="-0.5" x2="20.3346" y2="-0.5" transform="matrix(-0.272112 0.962266 -0.969248 -0.246086 30.5333 28.7021)" stroke="#0A0B14" stroke-dasharray="2 2"/>
<line y1="-0.5" x2="20.3346" y2="-0.5" transform="matrix(-0.272112 -0.962266 0.969248 -0.246086 55 48.7484)" stroke="#0A0B14" stroke-dasharray="2 2"/>
<line x1="32.0732" y1="56.5" x2="47.7914" y2="56.5" stroke="#0A0B14" stroke-dasharray="2 2"/>
<defs>
<linearGradient id="paint0_linear_114_154" x1="39.5" y1="3" x2="39.5" y2="76" gradientUnits="userSpaceOnUse">
<stop offset="0.215" stop-color="#E30613"/>
<stop offset="0.635" stop-color="#B0050F"/>
<stop offset="1" stop-color="#7D030A"/>
</linearGradient>
</defs>
</svg>
