<svg width="80" height="78" viewBox="0 0 80 78" fill="none" xmlns="http://www.w3.org/2000/svg">
<rect x="2" y="1.5" width="76" height="74.945" rx="37.4725" fill="#D9D9D9"/>
<rect x="2" y="1.5" width="76" height="74.945" rx="37.4725" stroke="url(#paint0_linear_112_519)" stroke-width="3" stroke-dasharray="1 1"/>
<path d="M51.3653 33.825C51.2243 33.984 51.2743 34.115 51.4843 34.224C51.5143 34.254 51.5753 34.264 51.6253 34.294C52.8953 33.233 54.2343 32.004 56.0053 30.994C56.3553 30.794 56.6853 30.603 57.0153 30.454C57.0153 30.444 57.0253 30.444 57.0253 30.444C57.4753 30.233 57.9163 30.084 58.4563 30.034C58.8663 30.004 59.6363 30.154 59.6363 30.794C59.6363 31.544 59.5463 32.504 59.4663 33.224C59.2763 35.004 57.7263 33.334 57.3863 33.575C56.9363 33.905 58.3863 34.425 58.6363 34.785H58.6463C60.3463 34.785 62.2873 34.755 64.3863 34.705V55.405H47.5753C47.5753 55.384 47.5753 55.384 47.5753 55.384V55.374C47.7553 54.584 47.8543 53.764 47.8543 52.914C47.8543 46.773 42.8653 41.773 36.7243 41.773C30.5753 41.773 25.5843 46.773 25.5843 52.914C25.5843 53.764 25.6743 54.584 25.8743 55.374V55.384H25.8643C25.8643 55.384 25.8743 55.384 25.8743 55.405H20.4143C19.3933 55.405 19.0943 55.405 18.4543 55.354C18.1643 55.354 17.8133 55.325 17.3043 55.295C17.0443 55.285 16.7543 55.265 16.4053 55.255C16.2453 55.234 16.0453 55.234 15.8443 55.225C15.3943 55.196 15.0143 55.135 14.7043 55.025C14.6443 55.006 14.6043 54.996 14.5543 54.975C14.4943 54.946 14.4343 54.935 14.3743 54.885C14.2543 54.845 14.1443 54.785 14.0543 54.705C13.8843 54.585 13.7843 54.465 13.6943 54.305C13.6343 54.205 13.5853 54.085 13.5543 53.975C13.4643 53.625 13.4943 53.265 13.5843 52.965C13.5843 52.915 13.6043 52.885 13.6143 52.835C13.6143 52.805 13.6343 52.774 13.6433 52.745C13.6643 52.675 13.6933 52.595 13.7233 52.535C13.7633 52.445 13.7933 52.365 13.8243 52.305C13.8643 52.275 13.8743 52.245 13.8743 52.245V52.234C13.8743 52.234 13.8843 52.214 13.9243 52.174C13.9243 52.174 13.9243 52.174 13.9243 52.154C13.9343 52.114 13.9833 52.034 14.0243 51.954C14.0543 51.864 14.1153 51.764 14.1653 51.654C14.2053 51.544 14.2553 51.424 14.2853 51.324C14.3353 51.154 14.3653 51.004 14.3653 50.864C14.3653 50.004 14.3653 49.214 14.3753 48.513C14.3753 48.273 14.3953 48.043 14.3953 47.813V47.593C14.3953 47.433 14.3953 47.313 14.4063 47.173V47.113C14.4063 46.932 14.4263 46.753 14.4263 46.583C14.4363 46.393 14.4363 46.203 14.4563 46.022C14.4563 45.863 14.4663 45.672 14.4853 45.522C14.4853 45.363 14.4963 45.193 14.5153 45.043C14.5253 44.903 14.5453 44.753 14.5453 44.613C14.5753 44.373 14.5853 44.173 14.6153 43.953C16.2743 44.003 17.9743 44.102 19.5353 43.783C21.6353 43.283 22.2343 41.573 22.7343 39.673C20.7243 39.523 18.6443 39.543 16.5943 39.563C16.7743 39.324 16.9543 39.063 17.1643 38.753C17.3043 38.563 17.1243 38.683 17.3443 38.573L17.4343 38.512L22.5543 38.222L22.7843 38.212L23.0943 38.192H23.1153L45.6443 36.921L47.0843 36.831L45.6343 36.911L28.3043 21.06L27.8253 20.611L22.7743 16.001C26.7853 15.861 41.9953 30.331 47.1043 33.631C47.0943 33.631 47.0843 33.631 47.0843 33.631V33.701L47.1043 33.631C47.4843 33.541 47.7853 33.442 48.0143 33.351C49.4543 32.751 58.2243 28.112 64.3843 25.301V26.692C59.2243 28.945 52.8253 32.085 51.3653 33.825Z" fill="#0A0B14"/>
<path d="M47.1044 33.635L47.0844 33.705V33.635C47.0844 33.635 47.0944 33.635 47.1044 33.635Z" fill="#0A0B14"/>
<path d="M15.9693 43.154C15.5803 43.154 15.1903 43.146 14.7993 43.135C15.0823 42.056 15.5183 41.416 16.2413 40.418C16.8443 40.413 17.4473 40.408 18.0513 40.408C19.2203 40.408 20.2013 40.426 21.0833 40.464C20.5903 41.866 19.9733 42.631 18.7233 42.927C17.9883 43.08 17.1033 43.154 15.9693 43.154Z" fill="#0A0B14"/>
<path d="M36.7544 43.885C31.7744 43.885 27.7244 47.935 27.7244 52.915C27.7244 57.894 31.7744 61.945 36.7544 61.945C41.7244 61.945 45.7844 57.894 45.7844 52.915C45.7854 47.934 41.7244 43.885 36.7544 43.885ZM42.1744 58.405L41.5544 58.965L41.4944 58.995C41.3934 59.085 41.2144 59.205 41.0444 59.325L40.3444 59.734C39.2144 60.335 38.0144 60.634 36.7444 60.634C35.4734 60.634 34.2844 60.334 33.1834 59.754C32.9434 59.644 32.7044 59.494 32.4734 59.344C32.2934 59.224 32.1144 59.094 31.9334 58.954L31.3534 58.424C30.5034 57.594 29.8834 56.634 29.4944 55.544C29.1834 54.684 29.0234 53.804 29.0234 52.914C29.0234 52.483 29.0634 52.044 29.1434 51.603C29.1734 51.353 29.2334 51.074 29.3334 50.784C29.3734 50.603 29.4424 50.384 29.5134 50.183C29.6144 49.923 29.7334 49.663 29.8644 49.423C30.9944 47.194 33.1434 45.633 35.6144 45.273C35.8844 45.223 36.1544 45.204 36.4244 45.194C36.5244 45.183 36.6244 45.183 36.7444 45.183C36.8844 45.183 36.9944 45.183 37.1244 45.194C37.3644 45.204 37.6344 45.223 37.9044 45.273C40.3834 45.643 42.5234 47.204 43.6434 49.444C43.7534 49.643 43.8734 49.883 43.9834 50.194C44.0534 50.393 44.1334 50.614 44.1934 50.834C44.2634 51.074 44.3244 51.344 44.3644 51.614C44.4334 52.023 44.4734 52.454 44.4734 52.914C44.4734 53.824 44.3244 54.704 44.0134 55.544C43.6154 56.625 42.9844 57.615 42.1744 58.405Z" fill="#0A0B14"/>
<mask id="path-6-inside-1_112_519" fill="white">
<path d="M43.8754 51.6951C43.8354 51.4451 43.7744 51.1951 43.7054 50.9551C43.6554 50.7551 43.5854 50.5551 43.5154 50.3651C43.4254 50.1251 43.3264 49.8941 43.1954 49.6651C42.1754 47.6151 40.1754 46.1151 37.8264 45.7651C37.5764 45.7251 37.3264 45.7051 37.0764 45.6961C36.9664 45.6851 36.8664 45.6851 36.7464 45.6851C36.6454 45.6851 36.5564 45.6851 36.4454 45.6961C36.1954 45.7061 35.9454 45.7251 35.6854 45.7651C33.3264 46.1161 31.3454 47.6051 30.3054 49.6651C30.1854 49.8851 30.0764 50.1251 29.9854 50.3651C29.9164 50.5451 29.8554 50.7451 29.8054 50.9451C29.7254 51.1841 29.6654 51.4341 29.6354 51.6951C29.5654 52.0851 29.5254 52.4951 29.5254 52.9151C29.5254 53.7741 29.6854 54.6041 29.9654 55.3751C30.3354 56.3951 30.9254 57.3051 31.6854 58.0551L32.2554 58.5651C32.4154 58.6961 32.5754 58.8151 32.7554 58.9251C32.9654 59.0651 33.1854 59.2051 33.4154 59.3151C34.4154 59.8451 35.5454 60.1351 36.7454 60.1351C37.9654 60.1351 39.0954 59.8351 40.0954 59.3051L40.7654 58.9151C40.9254 58.8051 41.0954 58.6851 41.2554 58.5551L41.2754 58.5451L41.7964 58.0751L41.8264 58.0451C42.5864 57.3051 43.1764 56.3851 43.5464 55.3751C43.8264 54.6041 43.9764 53.7741 43.9764 52.9151C43.9744 52.4951 43.9444 52.0951 43.8754 51.6951ZM42.9554 50.5851C43.0154 50.7551 43.0854 50.9351 43.1254 51.1051C43.1254 51.1261 43.1354 51.1261 43.1354 51.1351L38.9854 52.4851L38.2254 52.7351C38.2254 52.7151 38.2154 52.7061 38.2154 52.6961C38.1944 52.5061 38.1254 52.3261 38.0454 52.1751C38.0244 52.1651 38.0244 52.1551 38.0244 52.1451L38.7954 51.9061L42.9444 50.5551C42.9444 50.5641 42.9444 50.5751 42.9554 50.5851ZM37.8254 46.3751C39.8754 46.7051 41.6554 48.0051 42.6254 49.8541L39.5644 50.8541L38.3254 51.2541L37.8254 51.4141V46.3751ZM36.4444 46.2951H36.4654C36.5754 46.2851 36.6454 46.2851 36.7154 46.2851H37.0054C37.0254 46.2851 37.0554 46.2851 37.0754 46.2951V51.4751H37.0644L37.0544 51.4651C36.9644 51.4551 36.8644 51.4451 36.7744 51.4451C36.6744 51.4451 36.5644 51.4551 36.4644 51.4741C36.4544 51.4741 36.4544 51.4741 36.4544 51.4741H36.4434L36.4444 46.2951ZM36.7454 52.2551C37.1154 52.2551 37.4054 52.5451 37.4054 52.9051C37.4054 53.2641 37.1154 53.5641 36.7454 53.5641C36.3854 53.5641 36.0954 53.2641 36.0954 52.9051C36.0944 52.5451 36.3844 52.2551 36.7454 52.2551ZM35.6844 46.3751V51.4151L35.1944 51.2551L33.9654 50.8551L30.8754 49.8451C31.8544 47.9951 33.6344 46.6951 35.6844 46.3751ZM30.3654 51.1251C30.4254 50.9551 30.4744 50.7651 30.5454 50.5951C30.5554 50.5851 30.5554 50.5651 30.5654 50.5451L34.7154 51.9051L35.5154 52.1551C35.5154 52.1651 35.5054 52.1651 35.5054 52.1651C35.4054 52.3351 35.3454 52.5241 35.3154 52.7251C35.3154 52.7351 35.3154 52.7351 35.3154 52.7461L34.5364 52.4851L30.3664 51.1351C30.3654 51.1251 30.3654 51.1251 30.3654 51.1251ZM32.0444 57.5641C31.4144 56.9241 30.9244 56.1841 30.6044 55.3751C30.2944 54.6041 30.1254 53.7651 30.1254 52.9151C30.1254 52.5641 30.1454 52.2151 30.2154 51.8751L33.3054 52.8851L34.5354 53.2851L35.0244 53.4451L34.7144 53.8751L33.9644 54.9151L33.6244 55.3751L32.0444 57.5641ZM33.1044 58.4451C33.0944 58.4341 33.0944 58.4341 33.0944 58.4341C32.9144 58.3141 32.7744 58.2051 32.6154 58.0941C32.6154 58.0841 32.6154 58.0841 32.6044 58.0741L34.5644 55.3741L35.1944 54.5141L35.6654 53.8651C35.6754 53.8751 35.6854 53.8851 35.6854 53.8941C35.8054 54.0241 35.9454 54.1441 36.1164 54.2141C36.1264 54.2241 36.1454 54.2341 36.1564 54.2341L35.6854 54.8841L35.3264 55.3741L33.1044 58.4451ZM36.7454 59.5351C35.6944 59.5351 34.6844 59.2951 33.7654 58.8251L35.6854 56.1751L36.2654 55.3751L36.4454 55.1251L36.7654 54.7051L37.0764 55.1351L37.2464 55.3751L37.8264 56.1751L39.7354 58.8151C38.8254 59.2951 37.8144 59.5351 36.7454 59.5351ZM40.8654 58.0951C40.7454 58.1961 40.5944 58.3051 40.4254 58.4061L40.4154 58.4261L38.1854 55.3761L37.8264 54.8761L37.3764 54.2461C37.3864 54.2351 37.3964 54.2251 37.4164 54.2161C37.5654 54.1461 37.7164 54.0461 37.8364 53.9161C37.8364 53.9061 37.8564 53.8861 37.8664 53.8761L38.3264 54.5161L38.9454 55.3761L40.8954 58.0761L40.8654 58.0951ZM42.9054 55.3751C42.5854 56.1751 42.1044 56.9151 41.4654 57.5551L39.8954 55.3751L39.5654 54.9151L38.7954 53.8751L38.4954 53.4451L38.9844 53.2851L40.2244 52.8851L43.2944 51.8851C43.3444 52.2351 43.3844 52.5651 43.3844 52.9151C43.3844 53.7641 43.2144 54.5951 42.9054 55.3751Z"/>
</mask>
<path d="M43.8754 51.6951C43.8354 51.4451 43.7744 51.1951 43.7054 50.9551C43.6554 50.7551 43.5854 50.5551 43.5154 50.3651C43.4254 50.1251 43.3264 49.8941 43.1954 49.6651C42.1754 47.6151 40.1754 46.1151 37.8264 45.7651C37.5764 45.7251 37.3264 45.7051 37.0764 45.6961C36.9664 45.6851 36.8664 45.6851 36.7464 45.6851C36.6454 45.6851 36.5564 45.6851 36.4454 45.6961C36.1954 45.7061 35.9454 45.7251 35.6854 45.7651C33.3264 46.1161 31.3454 47.6051 30.3054 49.6651C30.1854 49.8851 30.0764 50.1251 29.9854 50.3651C29.9164 50.5451 29.8554 50.7451 29.8054 50.9451C29.7254 51.1841 29.6654 51.4341 29.6354 51.6951C29.5654 52.0851 29.5254 52.4951 29.5254 52.9151C29.5254 53.7741 29.6854 54.6041 29.9654 55.3751C30.3354 56.3951 30.9254 57.3051 31.6854 58.0551L32.2554 58.5651C32.4154 58.6961 32.5754 58.8151 32.7554 58.9251C32.9654 59.0651 33.1854 59.2051 33.4154 59.3151C34.4154 59.8451 35.5454 60.1351 36.7454 60.1351C37.9654 60.1351 39.0954 59.8351 40.0954 59.3051L40.7654 58.9151C40.9254 58.8051 41.0954 58.6851 41.2554 58.5551L41.2754 58.5451L41.7964 58.0751L41.8264 58.0451C42.5864 57.3051 43.1764 56.3851 43.5464 55.3751C43.8264 54.6041 43.9764 53.7741 43.9764 52.9151C43.9744 52.4951 43.9444 52.0951 43.8754 51.6951ZM42.9554 50.5851C43.0154 50.7551 43.0854 50.9351 43.1254 51.1051C43.1254 51.1261 43.1354 51.1261 43.1354 51.1351L38.9854 52.4851L38.2254 52.7351C38.2254 52.7151 38.2154 52.7061 38.2154 52.6961C38.1944 52.5061 38.1254 52.3261 38.0454 52.1751C38.0244 52.1651 38.0244 52.1551 38.0244 52.1451L38.7954 51.9061L42.9444 50.5551C42.9444 50.5641 42.9444 50.5751 42.9554 50.5851ZM37.8254 46.3751C39.8754 46.7051 41.6554 48.0051 42.6254 49.8541L39.5644 50.8541L38.3254 51.2541L37.8254 51.4141V46.3751ZM36.4444 46.2951H36.4654C36.5754 46.2851 36.6454 46.2851 36.7154 46.2851H37.0054C37.0254 46.2851 37.0554 46.2851 37.0754 46.2951V51.4751H37.0644L37.0544 51.4651C36.9644 51.4551 36.8644 51.4451 36.7744 51.4451C36.6744 51.4451 36.5644 51.4551 36.4644 51.4741C36.4544 51.4741 36.4544 51.4741 36.4544 51.4741H36.4434L36.4444 46.2951ZM36.7454 52.2551C37.1154 52.2551 37.4054 52.5451 37.4054 52.9051C37.4054 53.2641 37.1154 53.5641 36.7454 53.5641C36.3854 53.5641 36.0954 53.2641 36.0954 52.9051C36.0944 52.5451 36.3844 52.2551 36.7454 52.2551ZM35.6844 46.3751V51.4151L35.1944 51.2551L33.9654 50.8551L30.8754 49.8451C31.8544 47.9951 33.6344 46.6951 35.6844 46.3751ZM30.3654 51.1251C30.4254 50.9551 30.4744 50.7651 30.5454 50.5951C30.5554 50.5851 30.5554 50.5651 30.5654 50.5451L34.7154 51.9051L35.5154 52.1551C35.5154 52.1651 35.5054 52.1651 35.5054 52.1651C35.4054 52.3351 35.3454 52.5241 35.3154 52.7251C35.3154 52.7351 35.3154 52.7351 35.3154 52.7461L34.5364 52.4851L30.3664 51.1351C30.3654 51.1251 30.3654 51.1251 30.3654 51.1251ZM32.0444 57.5641C31.4144 56.9241 30.9244 56.1841 30.6044 55.3751C30.2944 54.6041 30.1254 53.7651 30.1254 52.9151C30.1254 52.5641 30.1454 52.2151 30.2154 51.8751L33.3054 52.8851L34.5354 53.2851L35.0244 53.4451L34.7144 53.8751L33.9644 54.9151L33.6244 55.3751L32.0444 57.5641ZM33.1044 58.4451C33.0944 58.4341 33.0944 58.4341 33.0944 58.4341C32.9144 58.3141 32.7744 58.2051 32.6154 58.0941C32.6154 58.0841 32.6154 58.0841 32.6044 58.0741L34.5644 55.3741L35.1944 54.5141L35.6654 53.8651C35.6754 53.8751 35.6854 53.8851 35.6854 53.8941C35.8054 54.0241 35.9454 54.1441 36.1164 54.2141C36.1264 54.2241 36.1454 54.2341 36.1564 54.2341L35.6854 54.8841L35.3264 55.3741L33.1044 58.4451ZM36.7454 59.5351C35.6944 59.5351 34.6844 59.2951 33.7654 58.8251L35.6854 56.1751L36.2654 55.3751L36.4454 55.1251L36.7654 54.7051L37.0764 55.1351L37.2464 55.3751L37.8264 56.1751L39.7354 58.8151C38.8254 59.2951 37.8144 59.5351 36.7454 59.5351ZM40.8654 58.0951C40.7454 58.1961 40.5944 58.3051 40.4254 58.4061L40.4154 58.4261L38.1854 55.3761L37.8264 54.8761L37.3764 54.2461C37.3864 54.2351 37.3964 54.2251 37.4164 54.2161C37.5654 54.1461 37.7164 54.0461 37.8364 53.9161C37.8364 53.9061 37.8564 53.8861 37.8664 53.8761L38.3264 54.5161L38.9454 55.3761L40.8954 58.0761L40.8654 58.0951ZM42.9054 55.3751C42.5854 56.1751 42.1044 56.9151 41.4654 57.5551L39.8954 55.3751L39.5654 54.9151L38.7954 53.8751L38.4954 53.4451L38.9844 53.2851L40.2244 52.8851L43.2944 51.8851C43.3444 52.2351 43.3844 52.5651 43.3844 52.9151C43.3844 53.7641 43.2144 54.5951 42.9054 55.3751Z" fill="#0A0B14" stroke="url(#paint1_linear_112_519)" stroke-width="2" mask="url(#path-6-inside-1_112_519)"/>
<path d="M47.1044 33.635L47.0844 33.705V33.635C47.0844 33.635 47.0944 33.635 47.1044 33.635Z" fill="#0A0B14"/>
<path d="M32.1 40L27.4 35.3C26.7167 35.8333 25.9625 36.25 25.1375 36.55C24.3125 36.85 23.4333 37 22.5 37C21 37 19.6458 36.6333 18.4375 35.9C17.2292 35.1667 16.275 34.2 15.575 33H18.025C18.5917 33.6167 19.2542 34.1042 20.0125 34.4625C20.7708 34.8208 21.6 35 22.5 35C24.1667 35 25.5833 34.4167 26.75 33.25C27.9167 32.0833 28.5 30.6667 28.5 29C28.5 27.3333 27.9167 25.9167 26.75 24.75C25.5833 23.5833 24.1667 23 22.5 23C20.9333 23 19.5792 23.5292 18.4375 24.5875C17.2958 25.6458 16.6583 26.95 16.525 28.5H14.525C14.6583 26.3833 15.4875 24.6042 17.0125 23.1625C18.5375 21.7208 20.3667 21 22.5 21C24.7333 21 26.625 21.775 28.175 23.325C29.725 24.875 30.5 26.7667 30.5 29C30.5 29.9333 30.35 30.8125 30.05 31.6375C29.75 32.4625 29.3333 33.2167 28.8 33.9L33.5 38.6L32.1 40ZM21.425 33L19.85 27.8L18.55 31.5H13.5V30H17.5L19.15 25.25H20.65L22.175 30.35L23.25 27H24.75L26.25 30H27V31.5H25.325L24.15 29.15L22.9 33H21.425Z" fill="#0A0B14"/>
<defs>
<linearGradient id="paint0_linear_112_519" x1="40" y1="3" x2="40" y2="74.945" gradientUnits="userSpaceOnUse">
<stop offset="0.215" stop-color="#E30613"/>
<stop offset="0.635" stop-color="#B0050F"/>
<stop offset="1" stop-color="#7D030A"/>
</linearGradient>
<linearGradient id="paint1_linear_112_519" x1="36.7509" y1="45.6851" x2="36.7509" y2="60.1351" gradientUnits="userSpaceOnUse">
<stop offset="0.215" stop-color="#E30613"/>
<stop offset="0.635" stop-color="#B0050F"/>
<stop offset="1" stop-color="#7D030A"/>
</linearGradient>
</defs>
</svg>
