<svg width="79" height="79" viewBox="0 0 79 79" fill="none" xmlns="http://www.w3.org/2000/svg">
<circle cx="39.5" cy="39.5" r="38" fill="#D9D9D9" stroke="url(#paint0_linear_114_511)" stroke-width="3" stroke-dasharray="1 1"/>
<path d="M29.8949 35.8492C29.8949 36.1004 29.6984 36.3005 29.4486 36.3005C29.2082 36.3005 29.0013 36.1013 29.0013 35.8492C29.0013 35.598 29.2074 35.391 29.4486 35.391C29.6975 35.3901 29.8949 35.5972 29.8949 35.8492Z" fill="#0A0B14"/>
<path d="M44.8996 40.3796C44.1786 40.3796 43.594 40.9687 43.594 41.6963C43.594 42.4239 44.1786 43.0139 44.8996 43.0139C45.6207 43.0139 46.2044 42.4239 46.2044 41.6963C46.2044 40.9687 45.6207 40.3796 44.8996 40.3796ZM44.8996 40.3796C44.1786 40.3796 43.594 40.9687 43.594 41.6963C43.594 42.4239 44.1786 43.0139 44.8996 43.0139C45.6207 43.0139 46.2044 42.4239 46.2044 41.6963C46.2044 40.9687 45.6207 40.3796 44.8996 40.3796ZM41.3897 48.401C39.0111 47.1276 37.3895 44.5982 37.3895 41.6963C37.3895 39.2709 38.5218 37.1053 40.2909 35.7202L34.3852 34.4113C34.5225 34.8704 34.5912 35.3468 34.5912 35.8492C34.5912 38.7078 32.2898 41.038 29.4494 41.038C29.1662 41.038 28.8829 41.012 28.6168 40.9687L30.2898 46.5906C31.028 46.0188 31.9473 45.6723 32.9517 45.6723C35.3552 45.6723 37.3029 47.6474 37.3029 50.0728V50.0823L41.3897 48.401ZM32.9508 49.8476C32.8221 49.8476 32.7268 49.9429 32.7268 50.0728C32.7268 50.1949 32.8298 50.2989 32.9508 50.2989C33.071 50.2989 33.1654 50.1949 33.1654 50.0728C33.1654 49.9429 33.071 49.8476 32.9508 49.8476ZM44.8996 40.3796C44.1786 40.3796 43.594 40.9687 43.594 41.6963C43.594 42.4239 44.1786 43.0139 44.8996 43.0139C45.6207 43.0139 46.2044 42.4239 46.2044 41.6963C46.2044 40.9687 45.6207 40.3796 44.8996 40.3796ZM44.8996 40.3796C44.1786 40.3796 43.594 40.9687 43.594 41.6963C43.594 42.4239 44.1786 43.0139 44.8996 43.0139C45.6207 43.0139 46.2044 42.4239 46.2044 41.6963C46.2044 40.9687 45.6207 40.3796 44.8996 40.3796ZM41.3897 48.401C39.0111 47.1276 37.3895 44.5982 37.3895 41.6963C37.3895 39.2709 38.5218 37.1053 40.2909 35.7202L34.3852 34.4113C34.5225 34.8704 34.5912 35.3468 34.5912 35.8492C34.5912 38.7078 32.2898 41.038 29.4494 41.038C29.1662 41.038 28.8829 41.012 28.6168 40.9687L30.2898 46.5906C31.028 46.0188 31.9473 45.6723 32.9517 45.6723C35.3552 45.6723 37.3029 47.6474 37.3029 50.0728V50.0823L41.3897 48.401ZM32.9508 49.8476C32.8221 49.8476 32.7268 49.9429 32.7268 50.0728C32.7268 50.1949 32.8298 50.2989 32.9508 50.2989C33.071 50.2989 33.1654 50.1949 33.1654 50.0728C33.1654 49.9429 33.071 49.8476 32.9508 49.8476ZM32.9508 49.8476C32.8221 49.8476 32.7268 49.9429 32.7268 50.0728C32.7268 50.1949 32.8298 50.2989 32.9508 50.2989C33.071 50.2989 33.1654 50.1949 33.1654 50.0728C33.1654 49.9429 33.071 49.8476 32.9508 49.8476ZM41.3897 48.401C39.0111 47.1276 37.3895 44.5982 37.3895 41.6963C37.3895 39.2709 38.5218 37.1053 40.2909 35.7202L34.3852 34.4113C34.5225 34.8704 34.5912 35.3468 34.5912 35.8492C34.5912 38.7078 32.2898 41.038 29.4494 41.038C29.1662 41.038 28.8829 41.012 28.6168 40.9687L30.2898 46.5906C31.028 46.0188 31.9473 45.6723 32.9517 45.6723C35.3552 45.6723 37.3029 47.6474 37.3029 50.0728V50.0823L41.3897 48.401ZM44.8996 40.3796C44.1786 40.3796 43.594 40.9687 43.594 41.6963C43.594 42.4239 44.1786 43.0139 44.8996 43.0139C45.6207 43.0139 46.2044 42.4239 46.2044 41.6963C46.2044 40.9687 45.6207 40.3796 44.8996 40.3796ZM44.8996 40.3796C44.1786 40.3796 43.594 40.9687 43.594 41.6963C43.594 42.4239 44.1786 43.0139 44.8996 43.0139C45.6207 43.0139 46.2044 42.4239 46.2044 41.6963C46.2044 40.9687 45.6207 40.3796 44.8996 40.3796ZM41.3897 48.401C39.0111 47.1276 37.3895 44.5982 37.3895 41.6963C37.3895 39.2709 38.5218 37.1053 40.2909 35.7202L34.3852 34.4113C34.5225 34.8704 34.5912 35.3468 34.5912 35.8492C34.5912 38.7078 32.2898 41.038 29.4494 41.038C29.1662 41.038 28.8829 41.012 28.6168 40.9687L30.2898 46.5906C31.028 46.0188 31.9473 45.6723 32.9517 45.6723C35.3552 45.6723 37.3029 47.6474 37.3029 50.0728V50.0823L41.3897 48.401ZM32.9508 49.8476C32.8221 49.8476 32.7268 49.9429 32.7268 50.0728C32.7268 50.1949 32.8298 50.2989 32.9508 50.2989C33.071 50.2989 33.1654 50.1949 33.1654 50.0728C33.1654 49.9429 33.071 49.8476 32.9508 49.8476ZM32.9508 49.8476C32.8221 49.8476 32.7268 49.9429 32.7268 50.0728C32.7268 50.1949 32.8298 50.2989 32.9508 50.2989C33.071 50.2989 33.1654 50.1949 33.1654 50.0728C33.1654 49.9429 33.071 49.8476 32.9508 49.8476ZM41.3897 48.401C39.0111 47.1276 37.3895 44.5982 37.3895 41.6963C37.3895 39.2709 38.5218 37.1053 40.2909 35.7202L34.3852 34.4113C34.5225 34.8704 34.5912 35.3468 34.5912 35.8492C34.5912 38.7078 32.2898 41.038 29.4494 41.038C29.1662 41.038 28.8829 41.012 28.6168 40.9687L30.2898 46.5906C31.028 46.0188 31.9473 45.6723 32.9517 45.6723C35.3552 45.6723 37.3029 47.6474 37.3029 50.0728V50.0823L41.3897 48.401ZM44.8996 40.3796C44.1786 40.3796 43.594 40.9687 43.594 41.6963C43.594 42.4239 44.1786 43.0139 44.8996 43.0139C45.6207 43.0139 46.2044 42.4239 46.2044 41.6963C46.2044 40.9687 45.6207 40.3796 44.8996 40.3796ZM44.1357 27.0656L43.424 26.5797L43.4919 26.4852H33.5088L33.5774 26.5797L32.6761 27.2042L27.0451 31.1369L27.1043 31.2235C27.8082 30.8597 28.5979 30.6518 29.4477 30.6518C30.2374 30.6518 30.9928 30.8338 31.6529 31.1543L45.1391 34.1254C49.1727 34.2476 52.4097 37.5904 52.4097 41.6963C52.4097 44.9014 50.4354 47.6473 47.6456 48.7648L47.4825 48.8254L44.2893 50.0295L35.508 53.6244C34.7955 54.1614 33.9028 54.4724 32.9499 54.4724C30.5465 54.4724 28.5893 52.4983 28.5893 50.0719C28.5893 50.02 28.5893 49.9775 28.5979 49.9247L25.3274 38.9495C24.6742 38.0833 24.2974 37.0091 24.2974 35.8484C24.2974 34.4018 24.8811 33.0938 25.8339 32.1582L25.7566 32.0456L19.9187 36.1256L23.7566 46.0266L29.9456 62H47.0533L53.2423 46.0266L57.0793 36.1342V36.1256L44.1357 27.0656ZM46.2044 41.6963C46.2044 40.9687 45.6207 40.3796 44.8996 40.3796C44.1786 40.3796 43.594 40.9687 43.594 41.6963C43.594 42.4239 44.1786 43.0139 44.8996 43.0139C45.6207 43.013 46.2044 42.4231 46.2044 41.6963ZM29.4494 41.038C29.1662 41.038 28.8829 41.012 28.6168 40.9687L30.2898 46.5906C31.028 46.0188 31.9473 45.6723 32.9517 45.6723C35.3552 45.6723 37.3029 47.6474 37.3029 50.0728V50.0823L41.3888 48.4018C39.0102 47.1285 37.3887 44.5991 37.3887 41.6972C37.3887 39.2717 38.5209 37.1062 40.2901 35.721L34.3843 34.4122C34.5217 34.8713 34.5903 35.3477 34.5903 35.8501C34.5912 38.7069 32.2907 41.038 29.4494 41.038ZM32.7268 50.0728C32.7268 50.1949 32.8298 50.2989 32.9508 50.2989C33.071 50.2989 33.1654 50.1949 33.1654 50.0728C33.1654 49.9429 33.071 49.8476 32.9508 49.8476C32.8221 49.8476 32.7268 49.9429 32.7268 50.0728ZM44.8996 40.3796C44.1786 40.3796 43.594 40.9687 43.594 41.6963C43.594 42.4239 44.1786 43.0139 44.8996 43.0139C45.6207 43.0139 46.2044 42.4239 46.2044 41.6963C46.2044 40.9687 45.6207 40.3796 44.8996 40.3796ZM41.3897 48.401C39.0111 47.1276 37.3895 44.5982 37.3895 41.6963C37.3895 39.2709 38.5218 37.1053 40.2909 35.7202L34.3852 34.4113C34.5225 34.8704 34.5912 35.3468 34.5912 35.8492C34.5912 38.7078 32.2898 41.038 29.4494 41.038C29.1662 41.038 28.8829 41.012 28.6168 40.9687L30.2898 46.5906C31.028 46.0188 31.9473 45.6723 32.9517 45.6723C35.3552 45.6723 37.3029 47.6474 37.3029 50.0728V50.0823L41.3897 48.401ZM32.9508 49.8476C32.8221 49.8476 32.7268 49.9429 32.7268 50.0728C32.7268 50.1949 32.8298 50.2989 32.9508 50.2989C33.071 50.2989 33.1654 50.1949 33.1654 50.0728C33.1654 49.9429 33.071 49.8476 32.9508 49.8476ZM32.9508 49.8476C32.8221 49.8476 32.7268 49.9429 32.7268 50.0728C32.7268 50.1949 32.8298 50.2989 32.9508 50.2989C33.071 50.2989 33.1654 50.1949 33.1654 50.0728C33.1654 49.9429 33.071 49.8476 32.9508 49.8476ZM41.3897 48.401C39.0111 47.1276 37.3895 44.5982 37.3895 41.6963C37.3895 39.2709 38.5218 37.1053 40.2909 35.7202L34.3852 34.4113C34.5225 34.8704 34.5912 35.3468 34.5912 35.8492C34.5912 38.7078 32.2898 41.038 29.4494 41.038C29.1662 41.038 28.8829 41.012 28.6168 40.9687L30.2898 46.5906C31.028 46.0188 31.9473 45.6723 32.9517 45.6723C35.3552 45.6723 37.3029 47.6474 37.3029 50.0728V50.0823L41.3897 48.401ZM44.8996 40.3796C44.1786 40.3796 43.594 40.9687 43.594 41.6963C43.594 42.4239 44.1786 43.0139 44.8996 43.0139C45.6207 43.0139 46.2044 42.4239 46.2044 41.6963C46.2044 40.9687 45.6207 40.3796 44.8996 40.3796ZM44.8996 40.3796C44.1786 40.3796 43.594 40.9687 43.594 41.6963C43.594 42.4239 44.1786 43.0139 44.8996 43.0139C45.6207 43.0139 46.2044 42.4239 46.2044 41.6963C46.2044 40.9687 45.6207 40.3796 44.8996 40.3796ZM41.3897 48.401C39.0111 47.1276 37.3895 44.5982 37.3895 41.6963C37.3895 39.2709 38.5218 37.1053 40.2909 35.7202L34.3852 34.4113C34.5225 34.8704 34.5912 35.3468 34.5912 35.8492C34.5912 38.7078 32.2898 41.038 29.4494 41.038C29.1662 41.038 28.8829 41.012 28.6168 40.9687L30.2898 46.5906C31.028 46.0188 31.9473 45.6723 32.9517 45.6723C35.3552 45.6723 37.3029 47.6474 37.3029 50.0728V50.0823L41.3897 48.401ZM32.9508 49.8476C32.8221 49.8476 32.7268 49.9429 32.7268 50.0728C32.7268 50.1949 32.8298 50.2989 32.9508 50.2989C33.071 50.2989 33.1654 50.1949 33.1654 50.0728C33.1654 49.9429 33.071 49.8476 32.9508 49.8476ZM41.3897 48.401C39.0111 47.1276 37.3895 44.5982 37.3895 41.6963C37.3895 39.2709 38.5218 37.1053 40.2909 35.7202L34.3852 34.4113C34.5225 34.8704 34.5912 35.3468 34.5912 35.8492C34.5912 38.7078 32.2898 41.038 29.4494 41.038C29.1662 41.038 28.8829 41.012 28.6168 40.9687L30.2898 46.5906C31.028 46.0188 31.9473 45.6723 32.9517 45.6723C35.3552 45.6723 37.3029 47.6474 37.3029 50.0728V50.0823L41.3897 48.401ZM44.8996 40.3796C44.1786 40.3796 43.594 40.9687 43.594 41.6963C43.594 42.4239 44.1786 43.0139 44.8996 43.0139C45.6207 43.0139 46.2044 42.4239 46.2044 41.6963C46.2044 40.9687 45.6207 40.3796 44.8996 40.3796ZM44.8996 40.3796C44.1786 40.3796 43.594 40.9687 43.594 41.6963C43.594 42.4239 44.1786 43.0139 44.8996 43.0139C45.6207 43.0139 46.2044 42.4239 46.2044 41.6963C46.2044 40.9687 45.6207 40.3796 44.8996 40.3796ZM41.3897 48.401C39.0111 47.1276 37.3895 44.5982 37.3895 41.6963C37.3895 39.2709 38.5218 37.1053 40.2909 35.7202L34.3852 34.4113C34.5225 34.8704 34.5912 35.3468 34.5912 35.8492C34.5912 38.7078 32.2898 41.038 29.4494 41.038C29.1662 41.038 28.8829 41.012 28.6168 40.9687L30.2898 46.5906C31.028 46.0188 31.9473 45.6723 32.9517 45.6723C35.3552 45.6723 37.3029 47.6474 37.3029 50.0728V50.0823L41.3897 48.401ZM44.8996 40.3796C44.1786 40.3796 43.594 40.9687 43.594 41.6963C43.594 42.4239 44.1786 43.0139 44.8996 43.0139C45.6207 43.0139 46.2044 42.4239 46.2044 41.6963C46.2044 40.9687 45.6207 40.3796 44.8996 40.3796ZM44.8996 40.3796C44.1786 40.3796 43.594 40.9687 43.594 41.6963C43.594 42.4239 44.1786 43.0139 44.8996 43.0139C45.6207 43.0139 46.2044 42.4239 46.2044 41.6963C46.2044 40.9687 45.6207 40.3796 44.8996 40.3796ZM32.9508 49.8476C32.8221 49.8476 32.7268 49.9429 32.7268 50.0728C32.7268 50.1949 32.8298 50.2989 32.9508 50.2989C33.071 50.2989 33.1654 50.1949 33.1654 50.0728C33.1654 49.9429 33.071 49.8476 32.9508 49.8476ZM41.3897 48.401C39.0111 47.1276 37.3895 44.5982 37.3895 41.6963C37.3895 39.2709 38.5218 37.1053 40.2909 35.7202L34.3852 34.4113C34.5225 34.8704 34.5912 35.3468 34.5912 35.8492C34.5912 38.7078 32.2898 41.038 29.4494 41.038C29.1662 41.038 28.8829 41.012 28.6168 40.9687L30.2898 46.5906C31.028 46.0188 31.9473 45.6723 32.9517 45.6723C35.3552 45.6723 37.3029 47.6474 37.3029 50.0728V50.0823L41.3897 48.401ZM44.8996 40.3796C44.1786 40.3796 43.594 40.9687 43.594 41.6963C43.594 42.4239 44.1786 43.0139 44.8996 43.0139C45.6207 43.0139 46.2044 42.4239 46.2044 41.6963C46.2044 40.9687 45.6207 40.3796 44.8996 40.3796Z" fill="#0A0B14"/>
<path d="M43.9649 49.2239L36.7802 52.1682C36.9604 51.8304 37.0978 51.4666 37.1836 51.0768V51.0681L42.5056 48.8843C42.9683 49.0507 43.4576 49.1633 43.9649 49.2239Z" fill="#0A0B14"/>
<path d="M42.6507 34.4633C42.1786 34.6106 41.7322 34.8089 41.303 35.0523H41.2944L34.0067 33.442C33.8092 33.0608 33.5689 32.7135 33.2942 32.4025L42.6507 34.4633Z" fill="#0A0B14"/>
<path d="M29.5945 47.2662C29.3541 47.5607 29.1481 47.8899 28.9936 48.2355L26.5824 40.1544C26.9086 40.3796 27.2605 40.5693 27.6374 40.7002L29.5945 47.2662Z" fill="#0A0B14"/>
<path d="M44.9022 34.983C41.2283 34.983 38.2496 37.9897 38.2496 41.6963C38.2496 45.4038 41.2283 48.4183 44.9022 48.4183C48.5761 48.4183 51.5547 45.4047 51.5547 41.6963C51.5547 37.9888 48.5769 34.983 44.9022 34.983ZM44.9022 43.8792C43.709 43.8792 42.7382 42.9004 42.7382 41.6955C42.7382 40.4914 43.709 39.5125 44.9022 39.5125C46.0953 39.5125 47.0653 40.4914 47.0653 41.6955C47.0653 42.9004 46.0953 43.8792 44.9022 43.8792Z" fill="#0A0B14"/>
<path d="M29.4511 31.5181C27.082 31.5181 25.1592 33.4584 25.1592 35.8492C25.1592 38.24 27.082 40.1718 29.4511 40.1718C31.8203 40.1718 33.7345 38.24 33.7345 35.8492C33.7354 33.4584 31.8203 31.5181 29.4511 31.5181ZM29.4511 37.1659C28.7301 37.1659 28.1455 36.576 28.1455 35.8484C28.1455 35.1208 28.7301 34.5239 29.4511 34.5239C30.1722 34.5239 30.7559 35.1208 30.7559 35.8484C30.7559 36.576 30.1722 37.1659 29.4511 37.1659Z" fill="#0A0B14"/>
<path d="M32.9534 46.5377C31.0134 46.5377 29.4512 48.1229 29.4512 50.0719C29.4512 52.021 31.0134 53.6062 32.9534 53.6062C34.8848 53.6062 36.4462 52.021 36.4462 50.0719C36.4462 48.1229 34.8848 46.5377 32.9534 46.5377ZM32.9534 51.1643C32.3525 51.1643 31.8718 50.6705 31.8718 50.0719C31.8718 49.4664 32.3517 48.9805 32.9534 48.9805C33.5448 48.9805 34.0264 49.4664 34.0264 50.0719C34.0264 50.6705 33.5457 51.1643 32.9534 51.1643Z" fill="#0A0B14"/>
<path d="M27.4143 17.3105V17.9316H27.5643V18.5527H27.4143V19.1738H27.5643V19.7949H27.4143V20.416H27.5643V21.0371H27.4143V21.6582H27.5643V22.2793H27.4143V22.9003H27.5643V23.0609H27.7223V23.2109H28.3382V23.0609H28.954V23.2109H29.5699V23.0609H30.1858V23.2109H30.8017V23.0609H31.4176V23.2109H32.0335V23.0609H32.6494V23.2109H33.2653V23.0609H33.8812V23.2109H34.4971V23.0609H35.113V23.2109H35.7289V23.0609H36.3448V23.2109H36.9607V23.0609H37.5766V23.2109H38.1925V23.0609H38.8084V23.2109H39.4243V23.0609H40.0402V23.2109H40.6561V23.0609H41.272V23.2109H41.8879V23.0609H42.5038V23.2109H43.1197V23.0609H43.7355V23.2109H44.3514V23.0609H44.9673V23.2109H45.5832V23.0609H46.1991V23.2109H46.815V23.0609H47.4309V23.2109H48.0468V23.0609H48.6627V23.2109H49.2786V23.0609H49.4366V22.9003H49.5866V22.2793H49.4366V21.6582H49.5866V21.0371H49.4366V20.416H49.5866V19.7949H49.4366V19.1738H49.5866V18.5527H49.4366V17.9316H49.5866V17.3105H49.4366V17.15H49.2786V17H48.6627V17.15H48.0468V17H47.4309V17.15H46.815V17H46.1991V17.15H45.5832V17H44.9673V17.15H44.3514V17H43.7355V17.15H43.1196V17H42.5038V17.15H41.8879V17H41.272V17.15H40.6561V17H40.0402V17.15H39.4243V17H38.8084V17.15H38.1925V17H37.5766V17.15H36.9607V17H36.3448V17.15H35.7289V17H35.113V17.15H34.4971V17H33.8812V17.15H33.2653V17H32.6494V17.15H32.0335V17H31.4176V17.15H30.8017V17H30.1858V17.15H29.5699V17H28.954V17.15H28.3381V17H27.7222V17.15H27.5643V17.3105H27.4143ZM28.5826 22.8498H28.7326V22.6998V22.3798H28.5826V21.7399H28.7326V21.1H28.5826V20.4601H28.7326V19.8201H28.5826V19.1802H28.7326V18.5403H28.5826V17.9003H28.7326V17.5804V17.4304H28.5826H28.4171V17.5804H28.0862V17.4304H27.9208H27.7708V17.5804V17.9003H27.9208V18.5403H27.7708V19.1802H27.9208V19.8201H27.7708V20.4601H27.9208V21.1H27.7708V21.7399H27.9208V22.3798H27.7708V22.6998V22.8498H27.9208H28.0862V22.6998H28.4171V22.8498H28.5826ZM29.792 22.8498H29.942V22.6998V22.3798H29.792V21.7399H29.942V21.1H29.792V20.4601H29.942V19.8201H29.792V19.1802H29.942V18.5403H29.792V17.9003H29.942V17.5804V17.4304H29.792H29.6249V17.5804H29.2905V17.4304H29.1234H28.9734V17.5804V17.9003H29.1234V18.5403H28.9734V19.1802H29.1234V19.8201H28.9734V20.4601H29.1234V21.1H28.9734V21.7399H29.1234V22.3798H28.9734V22.6998V22.8498H29.1234H29.2905V22.6998H29.6249V22.8498H29.792ZM30.9938 22.8498H31.1438V22.6998V22.3798H30.9938V21.7399H31.1438V21.1H30.9938V20.4601H31.1438V19.8201H30.9938V19.1802H31.1438V18.5403H30.9938V17.9003H31.1438V17.5804V17.4304H30.9938H30.8286V17.5804H30.4981V17.4304H30.3328H30.1828V17.5804V17.9003H30.3328V18.5403H30.1828V19.1802H30.3328V19.8201H30.1828V20.4601H30.3328V21.1H30.1828V21.7399H30.3328V22.3798H30.1828V22.6998V22.8498H30.3328H30.4981V22.6998H30.8286V22.8498H30.9938ZM32.2041 22.8498H32.3541V22.6998V22.3798H32.2041V21.7399H32.3541V21.1H32.2041V20.4601H32.3541V19.8201H32.2041V19.1802H32.3541V18.5403H32.2041V17.9003H32.3541V17.5804V17.4304H32.2041H32.0389V17.5804H31.7084V17.4304H31.5432H31.3932V17.5804V17.9003H31.5432V18.5403H31.3932V19.1802H31.5432V19.8201H31.3932V20.4601H31.5432V21.1H31.3932V21.7399H31.5432V22.3798H31.3932V22.6998V22.8498H31.5432H31.7084V22.6998H32.0389V22.8498H32.2041ZM33.4153 22.8498H33.5653V22.6998V22.3798H33.4153V21.7399H33.5653V21.1H33.4153V20.4601H33.5653V19.8201H33.4153V19.1802H33.5653V18.5403H33.4153V17.9003H33.5653V17.5804V17.4304H33.4153H33.2499V17.5804H32.9189V17.4304H32.7535H32.6035V17.5804V17.9003H32.7535V18.5403H32.6035V19.1802H32.7535V19.8201H32.6035V20.4601H32.7535V21.1H32.6035V21.7399H32.7535V22.3798H32.6035V22.6998V22.8498H32.7535H32.9189V22.6998H33.2499V22.8498H33.4153ZM34.6162 22.8498H34.7662V22.6998V22.3798H34.6162V21.7399H34.7662V21.1H34.6162V20.4601H34.7662V19.8201H34.6162V19.1802H34.7662V18.5403H34.6162V17.9003H34.7662V17.5804V17.4304H34.6162H34.451V17.5804H34.1205V17.4304H33.9552H33.8052V17.5804V17.9003H33.9552V18.5403H33.8052V19.1802H33.9552V19.8201H33.8052V20.4601H33.9552V21.1H33.8052V21.7399H33.9552V22.3798H33.8052V22.6998V22.8498H33.9552H34.1205V22.6998H34.451V22.8498H34.6162ZM35.8265 22.8498H35.9765V22.6998V22.3798H35.8265V21.7399H35.9765V21.1H35.8265V20.4601H35.9765V19.8201H35.8265V19.1802H35.9765V18.5403H35.8265V17.9003H35.9765V17.5804V17.4304H35.8265H35.6613V17.5804H35.3308V17.4304H35.1656H35.0156V17.5804V17.9003H35.1656V18.5403H35.0156V19.1802H35.1656V19.8201H35.0156V20.4601H35.1656V21.1H35.0156V21.7399H35.1656V22.3798H35.0156V22.6998V22.8498H35.1656H35.3308V22.6998H35.6613V22.8498H35.8265ZM37.0369 22.8498H37.1869V22.6998V22.3798H37.0369V21.7399H37.1869V21.1H37.0369V20.4601H37.1869V19.8201H37.0369V19.1802H37.1869V18.5403H37.0369V17.9003H37.1869V17.5804V17.4304H37.0369H36.8716V17.5804H36.5411V17.4304H36.3759H36.2259V17.5804V17.9003H36.3759V18.5403H36.2259V19.1802H36.3759V19.8201H36.2259V20.4601H36.3759V21.1H36.2259V21.7399H36.3759V22.3798H36.2259V22.6998V22.8498H36.3759H36.5411V22.6998H36.8716V22.8498H37.0369ZM38.2472 22.8498H38.3972V22.6998V22.3798H38.2472V21.7399H38.3972V21.1H38.2472V20.4601H38.3972V19.8201H38.2472V19.1802H38.3972V18.5403H38.2472V17.9003H38.3972V17.5804V17.4304H38.2472H38.0798V17.5804H37.745V17.4304H37.5777H37.4277V17.5804V17.9003H37.5777V18.5403H37.4277V19.1802H37.5777V19.8201H37.4277V20.4601H37.5777V21.1H37.4277V21.7399H37.5777V22.3798H37.4277V22.6998V22.8498H37.5777H37.745V22.6998H38.0798V22.8498H38.2472ZM39.449 22.8498H39.599V22.6998V22.3798H39.449V21.7399H39.599V21.1H39.449V20.4601H39.599V19.8201H39.449V19.1802H39.599V18.5403H39.449V17.9003H39.599V17.5804V17.4304H39.449H39.2837V17.5804H38.9532V17.4304H38.788H38.638V17.5804V17.9003H38.788V18.5403H38.638V19.1802H38.788V19.8201H38.638V20.4601H38.788V21.1H38.638V21.7399H38.788V22.3798H38.638V22.6998V22.8498H38.788H38.9532V22.6998H39.2837V22.8498H39.449ZM40.6593 22.8498H40.8093V22.6998V22.3798H40.6593V21.7399H40.8093V21.1H40.6593V20.4601H40.8093V19.8201H40.6593V19.1802H40.8093V18.5403H40.6593V17.9003H40.8093V17.5804V17.4304H40.6593H40.494V17.5804H40.1636V17.4304H39.9983H39.8483V17.5804V17.9003H39.9983V18.5403H39.8483V19.1802H39.9983V19.8201H39.8483V20.4601H39.9983V21.1H39.8483V21.7399H39.9983V22.3798H39.8483V22.6998V22.8498H39.9983H40.1636V22.6998H40.494V22.8498H40.6593ZM41.8696 22.8498H42.0196V22.6998V22.3798H41.8696V21.7399H42.0196V21.1H41.8696V20.4601H42.0196V19.8201H41.8696V19.1802H42.0196V18.5403H41.8696V17.9003H42.0196V17.5804V17.4304H41.8696H41.7044V17.5804H41.3739V17.4304H41.2087H41.0587V17.5804V17.9003H41.2087V18.5403H41.0587V19.1802H41.2087V19.8201H41.0587V20.4601H41.2087V21.1H41.0587V21.7399H41.2087V22.3798H41.0587V22.6998V22.8498H41.2087H41.3739V22.6998H41.7044V22.8498H41.8696ZM43.08 22.8498H43.23V22.6998V22.3798H43.08V21.7399H43.23V21.1H43.08V20.4601H43.23V19.8201H43.08V19.1802H43.23V18.5403H43.08V17.9003H43.23V17.5804V17.4304H43.08H42.9126V17.5804H42.5778V17.4304H42.4104H42.2604V17.5804V17.9003H42.4104V18.5403H42.2604V19.1802H42.4104V19.8201H42.2604V20.4601H42.4104V21.1H42.2604V21.7399H42.4104V22.3798H42.2604V22.6998V22.8498H42.4104H42.5778V22.6998H42.9126V22.8498H43.08ZM44.2826 22.8498H44.4326V22.6998V22.3798H44.2826V21.7399H44.4326V21.1H44.2826V20.4601H44.4326V19.8201H44.2826V19.1802H44.4326V18.5403H44.2826V17.9003H44.4326V17.5804V17.4304H44.2826H44.1171V17.5804H43.7862V17.4304H43.6207H43.4707V17.5804V17.9003H43.6207V18.5403H43.4707V19.1802H43.6207V19.8201H43.4707V20.4601H43.6207V21.1H43.4707V21.7399H43.6207V22.3798H43.4707V22.6998V22.8498H43.6207H43.7862V22.6998H44.1171V22.8498H44.2826ZM45.492 22.8498H45.642V22.6998V22.3798H45.492V21.7399H45.642V21.1H45.492V20.4601H45.642V19.8201H45.492V19.1802H45.642V18.5403H45.492V17.9003H45.642V17.5804V17.4304H45.492H45.3268V17.5804H44.9963V17.4304H44.8311H44.6811V17.5804V17.9003H44.8311V18.5403H44.6811V19.1802H44.8311V19.8201H44.6811V20.4601H44.8311V21.1H44.6811V21.7399H44.8311V22.3798H44.6811V22.6998V22.8498H44.8311H44.9963V22.6998H45.3268V22.8498H45.492ZM46.7024 22.8498H46.8524V22.6998V22.3798H46.7024V21.7399H46.8524V21.1H46.7024V20.4601H46.8524V19.8201H46.7024V19.1802H46.8524V18.5403H46.7024V17.9003H46.8524V17.5804V17.4304H46.7024H46.5371V17.5804H46.2066V17.4304H46.0414H45.8914V17.5804V17.9003H46.0414V18.5403H45.8914V19.1802H46.0414V19.8201H45.8914V20.4601H46.0414V21.1H45.8914V21.7399H46.0414V22.3798H45.8914V22.6998V22.8498H46.0414H46.2066V22.6998H46.5371V22.8498H46.7024ZM47.9041 22.8498H48.0541V22.6998V22.3798H47.9041V21.7399H48.0541V21.1H47.9041V20.4601H48.0541V19.8201H47.9041V19.1802H48.0541V18.5403H47.9041V17.9003H48.0541V17.5804V17.4304H47.9041H47.7387V17.5804H47.4078V17.4304H47.2423H47.0923V17.5804V17.9003H47.2423V18.5403H47.0923V19.1802H47.2423V19.8201H47.0923V20.4601H47.2423V21.1H47.0923V21.7399H47.2423V22.3798H47.0923V22.6998V22.8498H47.2423H47.4078V22.6998H47.7387V22.8498H47.9041ZM49.1153 22.8498H49.2653V22.6998V22.3798H49.1153V21.7399H49.2653V21.1H49.1153V20.4601H49.2653V19.8201H49.1153V19.1802H49.2653V18.5403H49.1153V17.9003H49.2653V17.5804V17.4304H49.1153H48.9498V17.5804H48.6189V17.4304H48.4535H48.3035V17.5804V17.9003H48.4535V18.5403H48.3035V19.1802H48.4535V19.8201H48.3035V20.4601H48.4535V21.1H48.3035V21.7399H48.4535V22.3798H48.3035V22.6998V22.8498H48.4535H48.6189V22.6998H48.9498V22.8498H49.1153Z" fill="#0A0B14" stroke="url(#paint1_linear_114_511)" stroke-width="0.3" stroke-dasharray="0.6 0.6"/>
<path d="M44.1991 23.8935H32.804V25.5549H44.1991V23.8935Z" fill="#0A0B14"/>
<path d="M32.3843 26.3553L32.1954 26.4852L19.6028 35.3035L14.4344 38.9244L13.7992 39.367L11.6103 36.162C10.5287 34.5768 10.9236 32.4198 12.4867 31.337L25.4562 22.3195C25.7995 22.0779 26.1772 21.9124 26.5549 21.8171V24.078H30.8289L32.3843 26.3553Z" fill="#0A0B14"/>
<path d="M24 30.1222L23.9117 30.183L18.023 34.3067L15.6061 35.9999L15.309 36.2069L14.2854 34.7081C13.7796 33.9668 13.9643 32.9582 14.6953 32.4518L20.7602 28.2349C20.9208 28.1219 21.0974 28.0446 21.274 28V29.0573H23.2726L24 30.1222Z" fill="#D9D9D9"/>
<path d="M22.839 46.0275H19.105C18.0913 46.0275 17.7144 44.8927 17.7144 44.8927L14.8474 39.678L19.1909 36.6375L22.839 46.0275Z" fill="#0A0B14"/>
<path d="M65.3903 36.1611L63.2005 39.3661L62.5662 38.9235L57.3986 35.3027L44.806 26.4844L44.6172 26.3544L46.1709 24.0762H50.4457V21.8154C50.8225 21.9107 51.201 22.0761 51.5444 22.3178L64.5138 31.3353C66.0761 32.4189 66.471 34.5759 65.3903 36.1611Z" fill="#0A0B14"/>
<path d="M62.7149 34.709L61.6908 36.2079L61.3941 36.0009L58.9774 34.3075L53.0883 30.1835L53 30.1228L53.7266 29.0573H55.7258V28C55.902 28.0446 56.079 28.1219 56.2396 28.235L62.305 32.4521C63.0356 32.9589 63.2203 33.9676 62.7149 34.709Z" fill="#D9D9D9"/>
<path d="M62.1447 39.6867L59.2862 44.8927C59.2862 44.8927 58.9085 46.0275 57.8956 46.0275H54.1616L57.8012 36.6462L62.1447 39.6867Z" fill="#0A0B14"/>
<circle cx="40.5" cy="40.5" r="0.5" fill="#D9D9D9"/>
<circle cx="44.5" cy="36.5" r="0.5" fill="#D9D9D9"/>
<circle cx="49.5" cy="40.5" r="0.5" fill="#D9D9D9"/>
<circle cx="47.5" cy="45.5" r="0.5" fill="#D9D9D9"/>
<circle cx="42.5" cy="45.5" r="0.5" fill="#D9D9D9"/>
<line x1="56.2774" y1="29.584" x2="62.2774" y2="33.584" stroke="#0A0B14"/>
<line x1="21.2774" y1="29.416" x2="15.2773" y2="33.416" stroke="#0A0B14"/>
<defs>
<linearGradient id="paint0_linear_114_511" x1="39.5" y1="3" x2="39.5" y2="76" gradientUnits="userSpaceOnUse">
<stop offset="0.215" stop-color="#E30613"/>
<stop offset="0.635" stop-color="#B0050F"/>
<stop offset="1" stop-color="#7D030A"/>
</linearGradient>
<linearGradient id="paint1_linear_114_511" x1="38.5004" y1="17" x2="38.5004" y2="23.2109" gradientUnits="userSpaceOnUse">
<stop offset="0.215" stop-color="#E30613"/>
<stop offset="0.635" stop-color="#B0050F"/>
<stop offset="1" stop-color="#7D030A"/>
</linearGradient>
</defs>
</svg>
