<svg width="79" height="79" viewBox="0 0 79 79" fill="none" xmlns="http://www.w3.org/2000/svg">
<circle cx="39.5" cy="39.5" r="38" fill="#D9D9D9" stroke="url(#paint0_linear_89_162)" stroke-width="3" stroke-dasharray="1 1"/>
<path d="M40.0381 10.5003L40.0384 10.5003C55.7226 10.5592 68.4192 23.3739 68.3703 39.0482C68.2914 54.7323 55.4759 67.4292 39.8222 67.3693H39.8221C24.1387 67.3113 11.4315 54.4865 11.5003 38.8025L11.5003 38.8022C11.5592 23.1375 24.3742 10.4315 40.0381 10.5003ZM57.1242 56.5714L57.1316 56.5648L57.1387 56.5579C61.9154 51.916 64.5597 45.6864 64.5903 39.0106L64.5903 39.0048C64.5801 37.5449 64.4589 36.15 64.2448 34.9232C64.1408 34.1182 63.9458 33.2281 63.6713 32.3315C63.5054 31.6983 63.3092 30.9708 63.0257 30.3439C62.7764 29.6125 62.4382 28.847 61.9885 27.9376L61.9874 27.9354C58.3952 20.7612 51.5472 15.7606 43.6457 14.555L43.6457 14.5549L43.6376 14.5538C42.6143 14.4147 41.8209 14.342 41.1682 14.3299C40.7766 14.2778 40.4185 14.2683 40.0303 14.2683C40.0138 14.2683 39.9434 14.2711 39.8913 14.2731L39.8769 14.2737L39.7897 14.2771L39.7611 14.2783L39.7602 14.2783C39.4718 14.2785 39.1833 14.2883 38.8991 14.3196C38.0646 14.331 37.2105 14.4027 36.3852 14.5339C28.4603 15.6795 21.5845 20.6234 18.0095 27.7228C17.5963 28.4477 17.2368 29.2308 16.8806 30.2077C16.8806 30.2078 16.8806 30.2079 16.8805 30.208L16.7708 30.5071L16.7708 30.5071L16.7678 30.5157C16.7341 30.613 16.6993 30.7126 16.6639 30.8137C16.5146 31.2406 16.3556 31.6952 16.2305 32.1285C15.994 32.9206 15.81 33.76 15.6674 34.6851C15.4128 36.042 15.2805 37.3991 15.2703 38.8357L15.2703 38.837C15.2397 45.4417 17.8341 51.6704 22.5572 56.3822L22.6667 56.4918L22.6744 56.4996L22.6825 56.507L24.3525 58.0369L24.3767 58.0591L24.4036 58.0779L24.6036 58.2179L24.6255 58.2333L24.627 58.2341C25.0662 58.5989 25.5624 58.9606 26.1955 59.377L26.2044 59.3829L26.2136 59.3884L28.4036 60.6984L28.4137 60.7044L28.4241 60.71C31.9665 62.6088 35.8072 63.5791 39.849 63.5893H39.8503H39.9103C43.8663 63.5893 47.7729 62.633 51.1939 60.8366C51.9541 60.4754 52.7315 60.0259 53.4871 59.5057C54.142 59.0858 54.7425 58.6386 55.2433 58.257L55.2593 58.2448L55.2742 58.2314L57.1242 56.5714Z" fill="#0A0B14" stroke="#0A0B14"/>
<mask id="path-3-inside-1_89_162" fill="white">
<path d="M62.7603 35.1193C62.6603 34.3203 62.4603 33.5003 62.2203 32.7203C62.0603 32.0903 61.8903 31.4603 61.6203 30.8603C61.3503 30.0903 61.0103 29.3403 60.6503 28.6103C57.3503 22.0203 50.9903 17.1903 43.4403 16.0403C42.6303 15.9313 41.8103 15.8413 41.0103 15.8213C40.6803 15.7803 40.3703 15.7703 40.0403 15.7703C39.6803 15.7803 39.3403 15.7703 39.0103 15.8213C38.2003 15.8313 37.3803 15.9013 36.6003 16.0203C29.0403 17.1103 22.6303 21.8803 19.3203 28.4603C18.9003 29.1893 18.5803 29.9303 18.2903 30.7103C18.0803 31.3103 17.8503 31.9393 17.6703 32.5603C17.4403 33.3313 17.2703 34.1303 17.1403 34.9503C16.9003 36.2313 16.7803 37.5103 16.7703 38.8413C16.7403 45.2803 19.3903 51.1113 23.6203 55.3213L23.7003 55.4013L25.3703 56.9303L25.4403 56.9603C25.9303 57.3803 26.4703 57.7603 26.9903 58.1003L29.1303 59.3903C32.3203 61.1003 35.9503 62.0803 39.8503 62.0903C43.7003 62.1003 47.3403 61.1703 50.5403 59.4903C51.2803 59.1393 52.0013 58.7103 52.6703 58.2503C53.2303 57.8903 53.7603 57.5003 54.2703 57.1093L56.0903 55.4803C60.3703 51.3203 63.0603 45.4803 63.0903 39.0193C63.0803 37.6993 62.9803 36.3903 62.7603 35.1193ZM59.8403 31.6003C60.0703 32.1513 60.2503 32.7603 60.3903 33.2803C60.3903 33.3013 60.3903 33.3013 60.4003 33.3213L47.4103 37.4813C47.2903 36.8313 47.0803 36.2103 46.8003 35.6303L59.7903 31.4493C59.8103 31.5103 59.8103 31.5393 59.8403 31.6003ZM58.8003 29.1893L44.4003 32.7503L43.4203 18.0103C50.0013 19.0803 55.6903 23.2603 58.8003 29.1893ZM46.1603 37.1993C46.1603 37.8093 45.6603 38.3003 45.0503 38.3003C44.4403 38.3003 43.9403 37.8103 43.9403 37.1993C43.9403 36.5803 44.4403 36.0903 45.0503 36.0903C45.6603 36.0903 46.1603 36.5803 46.1603 37.1993ZM44.2203 43.1993C44.2203 43.8093 43.7303 44.3003 43.1103 44.3003C42.5003 44.3003 42.0003 43.8103 42.0003 43.1993C42.0003 42.5803 42.5003 42.0903 43.1103 42.0903C43.7303 42.0903 44.2203 42.5803 44.2203 43.1993ZM39.0013 17.7403C39.0813 17.7193 39.1613 17.7103 39.2313 17.7103C39.4413 17.6993 39.6413 17.6993 39.8613 17.6993H40.1613C40.3613 17.6993 40.5913 17.6993 40.9513 17.7403H40.9913L40.9413 31.3803C40.6113 31.3303 40.2713 31.3103 39.9313 31.3103C39.5913 31.3103 39.2613 31.3313 38.9313 31.3803L39.0013 17.7403ZM39.9303 32.3403C40.5503 32.3403 41.0403 32.8303 41.0403 33.4493C41.0403 34.0593 40.5503 34.5503 39.9303 34.5503C39.3203 34.5503 38.8203 34.0603 38.8203 33.4493C38.8203 32.8303 39.3203 32.3403 39.9303 32.3403ZM39.9303 35.8593C41.6303 35.8593 43.0103 37.2403 43.0103 38.9393C43.0103 40.6293 41.6303 42.0093 39.9303 42.0093C38.2403 42.0093 36.8603 40.6293 36.8603 38.9393C36.8603 37.2403 38.2403 35.8593 39.9303 35.8593ZM36.7713 42.0903C37.3813 42.0903 37.8813 42.5803 37.8813 43.1993C37.8813 43.8093 37.3813 44.3003 36.7713 44.3003C36.1613 44.3003 35.6613 43.8103 35.6613 43.1993C35.6603 42.5803 36.1603 42.0903 36.7713 42.0903ZM34.8503 38.3003C34.2403 38.3003 33.7403 37.8103 33.7403 37.1993C33.7403 36.5803 34.2403 36.0903 34.8503 36.0903C35.4603 36.0903 35.9603 36.5803 35.9603 37.1993C35.9603 37.8103 35.4603 38.3003 34.8503 38.3003ZM36.5903 17.9703L35.5203 32.7103V32.7203H35.5103L21.1603 29.0603C24.2903 23.1403 30.0103 19.0103 36.5903 17.9703ZM19.5303 33.0803C19.6803 32.5103 19.8803 31.9393 20.0903 31.3803C20.1003 31.3693 20.1103 31.3203 20.1303 31.3003L33.1003 35.5803C32.8003 36.1603 32.5903 36.7893 32.4503 37.4393L19.5003 33.1603C19.5103 33.1403 19.5213 33.1093 19.5303 33.0803ZM24.7503 53.7403C20.8303 49.7303 18.6703 44.4603 18.6903 38.8403C18.7003 37.7503 18.8103 36.6703 18.9803 35.5603L19.1203 35.6103L32.6403 41.1613L24.7503 53.7403ZM28.1303 56.5603L28.0703 56.5003C27.5603 56.1893 27.0703 55.8203 26.6703 55.4803L26.5803 55.4103L34.6203 44.4003C35.0903 44.8693 35.6303 45.2693 36.2103 45.5803L28.1303 56.5603ZM39.8603 60.1703C36.4603 60.1503 33.2103 59.3503 30.2803 57.8203L39.8303 46.5593L49.4103 57.9103C46.4703 59.4203 43.2303 60.1703 39.8603 60.1703ZM53.1103 55.5803C52.6203 55.9393 52.1603 56.3093 51.6003 56.6703C51.5903 56.6703 51.5803 56.6893 51.5703 56.7103L43.5703 45.6403C44.1603 45.3213 44.7003 44.9203 45.1803 44.4603L53.1403 55.5393C53.1303 55.5603 53.1303 55.5603 53.1103 55.5803ZM54.9603 53.8903L47.2203 41.1803L60.9003 35.7003C61.0903 36.7903 61.1603 37.9113 61.1503 39.0103C61.1403 44.6513 58.9403 49.9303 54.9603 53.8903Z"/>
</mask>
<path d="M62.7603 35.1193C62.6603 34.3203 62.4603 33.5003 62.2203 32.7203C62.0603 32.0903 61.8903 31.4603 61.6203 30.8603C61.3503 30.0903 61.0103 29.3403 60.6503 28.6103C57.3503 22.0203 50.9903 17.1903 43.4403 16.0403C42.6303 15.9313 41.8103 15.8413 41.0103 15.8213C40.6803 15.7803 40.3703 15.7703 40.0403 15.7703C39.6803 15.7803 39.3403 15.7703 39.0103 15.8213C38.2003 15.8313 37.3803 15.9013 36.6003 16.0203C29.0403 17.1103 22.6303 21.8803 19.3203 28.4603C18.9003 29.1893 18.5803 29.9303 18.2903 30.7103C18.0803 31.3103 17.8503 31.9393 17.6703 32.5603C17.4403 33.3313 17.2703 34.1303 17.1403 34.9503C16.9003 36.2313 16.7803 37.5103 16.7703 38.8413C16.7403 45.2803 19.3903 51.1113 23.6203 55.3213L23.7003 55.4013L25.3703 56.9303L25.4403 56.9603C25.9303 57.3803 26.4703 57.7603 26.9903 58.1003L29.1303 59.3903C32.3203 61.1003 35.9503 62.0803 39.8503 62.0903C43.7003 62.1003 47.3403 61.1703 50.5403 59.4903C51.2803 59.1393 52.0013 58.7103 52.6703 58.2503C53.2303 57.8903 53.7603 57.5003 54.2703 57.1093L56.0903 55.4803C60.3703 51.3203 63.0603 45.4803 63.0903 39.0193C63.0803 37.6993 62.9803 36.3903 62.7603 35.1193ZM59.8403 31.6003C60.0703 32.1513 60.2503 32.7603 60.3903 33.2803C60.3903 33.3013 60.3903 33.3013 60.4003 33.3213L47.4103 37.4813C47.2903 36.8313 47.0803 36.2103 46.8003 35.6303L59.7903 31.4493C59.8103 31.5103 59.8103 31.5393 59.8403 31.6003ZM58.8003 29.1893L44.4003 32.7503L43.4203 18.0103C50.0013 19.0803 55.6903 23.2603 58.8003 29.1893ZM46.1603 37.1993C46.1603 37.8093 45.6603 38.3003 45.0503 38.3003C44.4403 38.3003 43.9403 37.8103 43.9403 37.1993C43.9403 36.5803 44.4403 36.0903 45.0503 36.0903C45.6603 36.0903 46.1603 36.5803 46.1603 37.1993ZM44.2203 43.1993C44.2203 43.8093 43.7303 44.3003 43.1103 44.3003C42.5003 44.3003 42.0003 43.8103 42.0003 43.1993C42.0003 42.5803 42.5003 42.0903 43.1103 42.0903C43.7303 42.0903 44.2203 42.5803 44.2203 43.1993ZM39.0013 17.7403C39.0813 17.7193 39.1613 17.7103 39.2313 17.7103C39.4413 17.6993 39.6413 17.6993 39.8613 17.6993H40.1613C40.3613 17.6993 40.5913 17.6993 40.9513 17.7403H40.9913L40.9413 31.3803C40.6113 31.3303 40.2713 31.3103 39.9313 31.3103C39.5913 31.3103 39.2613 31.3313 38.9313 31.3803L39.0013 17.7403ZM39.9303 32.3403C40.5503 32.3403 41.0403 32.8303 41.0403 33.4493C41.0403 34.0593 40.5503 34.5503 39.9303 34.5503C39.3203 34.5503 38.8203 34.0603 38.8203 33.4493C38.8203 32.8303 39.3203 32.3403 39.9303 32.3403ZM39.9303 35.8593C41.6303 35.8593 43.0103 37.2403 43.0103 38.9393C43.0103 40.6293 41.6303 42.0093 39.9303 42.0093C38.2403 42.0093 36.8603 40.6293 36.8603 38.9393C36.8603 37.2403 38.2403 35.8593 39.9303 35.8593ZM36.7713 42.0903C37.3813 42.0903 37.8813 42.5803 37.8813 43.1993C37.8813 43.8093 37.3813 44.3003 36.7713 44.3003C36.1613 44.3003 35.6613 43.8103 35.6613 43.1993C35.6603 42.5803 36.1603 42.0903 36.7713 42.0903ZM34.8503 38.3003C34.2403 38.3003 33.7403 37.8103 33.7403 37.1993C33.7403 36.5803 34.2403 36.0903 34.8503 36.0903C35.4603 36.0903 35.9603 36.5803 35.9603 37.1993C35.9603 37.8103 35.4603 38.3003 34.8503 38.3003ZM36.5903 17.9703L35.5203 32.7103V32.7203H35.5103L21.1603 29.0603C24.2903 23.1403 30.0103 19.0103 36.5903 17.9703ZM19.5303 33.0803C19.6803 32.5103 19.8803 31.9393 20.0903 31.3803C20.1003 31.3693 20.1103 31.3203 20.1303 31.3003L33.1003 35.5803C32.8003 36.1603 32.5903 36.7893 32.4503 37.4393L19.5003 33.1603C19.5103 33.1403 19.5213 33.1093 19.5303 33.0803ZM24.7503 53.7403C20.8303 49.7303 18.6703 44.4603 18.6903 38.8403C18.7003 37.7503 18.8103 36.6703 18.9803 35.5603L19.1203 35.6103L32.6403 41.1613L24.7503 53.7403ZM28.1303 56.5603L28.0703 56.5003C27.5603 56.1893 27.0703 55.8203 26.6703 55.4803L26.5803 55.4103L34.6203 44.4003C35.0903 44.8693 35.6303 45.2693 36.2103 45.5803L28.1303 56.5603ZM39.8603 60.1703C36.4603 60.1503 33.2103 59.3503 30.2803 57.8203L39.8303 46.5593L49.4103 57.9103C46.4703 59.4203 43.2303 60.1703 39.8603 60.1703ZM53.1103 55.5803C52.6203 55.9393 52.1603 56.3093 51.6003 56.6703C51.5903 56.6703 51.5803 56.6893 51.5703 56.7103L43.5703 45.6403C44.1603 45.3213 44.7003 44.9203 45.1803 44.4603L53.1403 55.5393C53.1303 55.5603 53.1303 55.5603 53.1103 55.5803ZM54.9603 53.8903L47.2203 41.1803L60.9003 35.7003C61.0903 36.7903 61.1603 37.9113 61.1503 39.0103C61.1403 44.6513 58.9403 49.9303 54.9603 53.8903Z" fill="#0A0B14" stroke="url(#paint1_linear_89_162)" mask="url(#path-3-inside-1_89_162)"/>
<defs>
<linearGradient id="paint0_linear_89_162" x1="39.5" y1="3" x2="39.5" y2="76" gradientUnits="userSpaceOnUse">
<stop offset="0.215" stop-color="#E30613"/>
<stop offset="0.635" stop-color="#B0050F"/>
<stop offset="1" stop-color="#7D030A"/>
</linearGradient>
<linearGradient id="paint1_linear_89_162" x1="39.9301" y1="15.7703" x2="39.9301" y2="62.0904" gradientUnits="userSpaceOnUse">
<stop offset="0.215" stop-color="#E30613"/>
<stop offset="0.635" stop-color="#B0050F"/>
<stop offset="1" stop-color="#7D030A"/>
</linearGradient>
</defs>
</svg>
