<svg width="79" height="79" viewBox="0 0 79 79" fill="none" xmlns="http://www.w3.org/2000/svg">
<circle cx="39.5" cy="39.5" r="38" fill="#D9D9D9" stroke="url(#paint0_linear_114_506)" stroke-width="3" stroke-dasharray="1 1"/>
<path d="M39.58 48.31V49.771H38.748L39.58 48.31Z" fill="#0A0B14" stroke="url(#paint1_linear_114_506)" stroke-width="0.3"/>
<mask id="path-3-inside-1_114_506" fill="white">
<path d="M49.75 25.41C47.48 25.41 45.65 27.24 45.65 29.511C45.65 31.351 46.87 32.91 48.54 33.421V38.261H40.69V33.421C42.36 32.9 43.57 31.351 43.57 29.511C43.57 27.24 41.74 25.41 39.48 25.41C37.21 25.41 35.38 27.24 35.38 29.511C35.38 31.351 36.59 32.91 38.26 33.421V38.261H30.42V33.421C32.08 32.91 33.3 31.351 33.3 29.511C33.3 27.24 31.46 25.41 29.2 25.41C26.94 25.41 25.11 27.24 25.11 29.511C25.11 31.351 26.32 32.91 27.99 33.421V45.53C26.32 46.04 25.11 47.61 25.11 49.44C25.11 51.71 26.94 53.54 29.2 53.54C31.46 53.54 33.3 51.71 33.3 49.44C33.3 47.61 32.08 46.04 30.42 45.53V40.69H38.26V45.53C36.59 46.04 35.38 47.61 35.38 49.44C35.38 51.71 37.21 53.54 39.48 53.54C41.74 53.54 43.57 51.71 43.57 49.44C43.57 47.61 42.36 46.05 40.69 45.53V40.69H50.97V33.42C52.63 32.909 53.85 31.35 53.85 29.51C53.85 27.24 52.01 25.41 49.75 25.41ZM30.46 47.62C30.52 47.77 30.55 47.931 30.55 48.1C30.55 48.26 30.53 48.409 30.51 48.55C30.48 48.699 30.42 48.859 30.32 49.029C30.23 49.199 30.1 49.389 29.94 49.599C29.77 49.799 29.55 50.038 29.27 50.319L28.72 50.88H30.57C30.6 50.88 30.62 50.88 30.64 50.9C30.66 50.91 30.68 50.94 30.69 50.97C30.71 50.999 30.72 51.039 30.73 51.09C30.73 51.14 30.74 51.19 30.74 51.26C30.74 51.329 30.73 51.39 30.73 51.44C30.72 51.49 30.71 51.53 30.7 51.56C30.69 51.59 30.67 51.62 30.65 51.63C30.63 51.64 30.61 51.65 30.59 51.65H27.89C27.84 51.65 27.79 51.65 27.75 51.64C27.71 51.63 27.68 51.61 27.66 51.579C27.63 51.55 27.62 51.51 27.61 51.459C27.6 51.399 27.59 51.34 27.59 51.249C27.59 51.17 27.59 51.1 27.6 51.05C27.61 50.989 27.62 50.94 27.64 50.89C27.66 50.85 27.68 50.81 27.71 50.76C27.75 50.72 27.78 50.67 27.83 50.619L28.65 49.749C28.81 49.579 28.94 49.43 29.04 49.289C29.14 49.149 29.21 49.019 29.27 48.909C29.32 48.8 29.36 48.689 29.38 48.59C29.4 48.499 29.41 48.4 29.41 48.32C29.41 48.24 29.4 48.16 29.38 48.09C29.35 48.02 29.31 47.959 29.26 47.9C29.21 47.85 29.15 47.81 29.08 47.78C29 47.75 28.91 47.73 28.81 47.73C28.67 47.73 28.54 47.75 28.43 47.79C28.32 47.82 28.23 47.86 28.14 47.91C28.06 47.95 27.99 47.99 27.93 48.03C27.88 48.07 27.83 48.091 27.8 48.091C27.78 48.091 27.76 48.08 27.75 48.071C27.73 48.051 27.72 48.031 27.71 47.991C27.7 47.961 27.69 47.922 27.69 47.861C27.68 47.802 27.68 47.731 27.68 47.651V47.511C27.69 47.471 27.69 47.441 27.7 47.41C27.71 47.381 27.72 47.36 27.73 47.341C27.74 47.321 27.76 47.29 27.79 47.271C27.82 47.241 27.88 47.201 27.96 47.151C28.04 47.111 28.14 47.071 28.26 47.021C28.38 46.981 28.51 46.951 28.65 46.921C28.79 46.891 28.94 46.87 29.09 46.87C29.34 46.87 29.55 46.9 29.73 46.971C29.92 47.03 30.07 47.111 30.19 47.221C30.31 47.33 30.4 47.46 30.46 47.62ZM27.96 31.75C27.94 31.75 27.92 31.74 27.91 31.73C27.89 31.72 27.87 31.7 27.86 31.671C27.85 31.641 27.84 31.601 27.83 31.561C27.82 31.511 27.82 31.451 27.82 31.381C27.82 31.311 27.82 31.25 27.83 31.21C27.83 31.16 27.84 31.12 27.86 31.091C27.87 31.061 27.88 31.04 27.9 31.03C27.92 31.02 27.94 31.01 27.96 31.01H28.83V27.959L28.08 28.369C28.02 28.399 27.98 28.42 27.94 28.42C27.91 28.43 27.88 28.42 27.86 28.399C27.84 28.379 27.83 28.339 27.82 28.289C27.81 28.239 27.81 28.17 27.81 28.079V27.939C27.81 27.899 27.82 27.869 27.83 27.839C27.84 27.809 27.85 27.788 27.87 27.769C27.89 27.759 27.91 27.739 27.94 27.719L28.95 27.069C28.96 27.059 28.97 27.049 28.99 27.039C29.01 27.039 29.03 27.029 29.06 27.029C29.09 27.029 29.13 27.019 29.18 27.019H29.36C29.45 27.019 29.53 27.019 29.58 27.029C29.64 27.029 29.68 27.039 29.71 27.039C29.74 27.05 29.76 27.06 29.77 27.079C29.78 27.09 29.78 27.109 29.78 27.13V31.01H30.55C30.57 31.01 30.59 31.02 30.61 31.03C30.63 31.04 30.64 31.06 30.66 31.091C30.67 31.12 30.68 31.16 30.69 31.21V31.381C30.69 31.45 30.69 31.511 30.68 31.561C30.68 31.601 30.67 31.641 30.65 31.671C30.64 31.7 30.62 31.721 30.61 31.73C30.59 31.74 30.57 31.75 30.55 31.75H27.96ZM41.06 49.921C41.1 49.921 41.14 49.95 41.16 50.011C41.19 50.061 41.21 50.16 41.21 50.301C41.21 50.421 41.19 50.521 41.17 50.58C41.14 50.65 41.11 50.681 41.06 50.681H40.65V51.531C40.65 51.552 40.64 51.571 40.62 51.592C40.61 51.612 40.58 51.621 40.55 51.642C40.51 51.652 40.47 51.662 40.41 51.662C40.35 51.673 40.27 51.673 40.18 51.673C40.1 51.673 40.02 51.673 39.96 51.662C39.9 51.662 39.86 51.652 39.82 51.642C39.79 51.622 39.76 51.612 39.75 51.592C39.74 51.572 39.73 51.552 39.73 51.531V50.681H37.93C37.9 50.681 37.87 50.671 37.84 50.671C37.82 50.66 37.79 50.641 37.78 50.61C37.76 50.58 37.75 50.53 37.74 50.48C37.73 50.421 37.72 50.34 37.72 50.25C37.72 50.171 37.73 50.11 37.73 50.051C37.73 49.99 37.74 49.941 37.75 49.901C37.76 49.851 37.77 49.811 37.78 49.761C37.8 49.721 37.82 49.681 37.84 49.631L39.3 47.061C39.31 47.04 39.33 47.021 39.36 47.011C39.39 46.99 39.43 46.981 39.48 46.971C39.54 46.96 39.6 46.95 39.68 46.941H40.29C40.38 46.951 40.44 46.961 40.5 46.971C40.55 46.99 40.59 47 40.61 47.021C40.63 47.041 40.65 47.061 40.65 47.091V49.921H41.06ZM40.53 31.45C40.37 31.57 40.18 31.671 39.96 31.73C39.74 31.8 39.49 31.83 39.23 31.83C39.07 31.83 38.92 31.82 38.78 31.79C38.64 31.77 38.52 31.74 38.41 31.71C38.3 31.681 38.21 31.641 38.14 31.601C38.07 31.571 38.02 31.54 38 31.521C37.98 31.501 37.96 31.481 37.95 31.46C37.94 31.431 37.93 31.4 37.93 31.37C37.92 31.341 37.91 31.301 37.91 31.25C37.9 31.2 37.9 31.141 37.9 31.07C37.9 30.95 37.91 30.87 37.93 30.83C37.95 30.78 37.98 30.761 38.02 30.761C38.04 30.761 38.08 30.781 38.14 30.811C38.2 30.841 38.28 30.881 38.37 30.911C38.46 30.951 38.57 30.991 38.69 31.021C38.82 31.051 38.96 31.071 39.11 31.071C39.25 31.071 39.36 31.051 39.46 31.021C39.57 30.991 39.65 30.941 39.72 30.891C39.79 30.83 39.85 30.761 39.88 30.681C39.92 30.601 39.94 30.511 39.94 30.41C39.94 30.301 39.91 30.2 39.87 30.12C39.83 30.03 39.77 29.96 39.68 29.89C39.6 29.829 39.5 29.78 39.37 29.749C39.24 29.72 39.09 29.699 38.92 29.699H38.51C38.48 29.699 38.46 29.699 38.43 29.689C38.41 29.679 38.39 29.659 38.38 29.639C38.37 29.609 38.36 29.569 38.35 29.519C38.34 29.479 38.34 29.419 38.34 29.339C38.34 29.269 38.34 29.208 38.35 29.169C38.36 29.118 38.37 29.089 38.38 29.068C38.39 29.038 38.41 29.018 38.43 29.018C38.45 29.008 38.47 28.998 38.5 28.998H38.91C39.05 28.998 39.18 28.978 39.29 28.948C39.4 28.919 39.49 28.868 39.56 28.808C39.63 28.747 39.69 28.678 39.73 28.588C39.77 28.508 39.79 28.407 39.79 28.308C39.79 28.228 39.77 28.148 39.75 28.078C39.72 28.009 39.68 27.948 39.63 27.898C39.58 27.838 39.51 27.798 39.43 27.768C39.35 27.738 39.25 27.728 39.14 27.728C39.01 27.728 38.89 27.748 38.78 27.778C38.67 27.818 38.57 27.858 38.48 27.908C38.4 27.948 38.32 27.988 38.26 28.028C38.2 28.068 38.15 28.089 38.12 28.089C38.1 28.089 38.09 28.089 38.07 28.078C38.06 28.068 38.05 28.049 38.04 28.028C38.03 27.998 38.02 27.969 38.01 27.919V27.599C38.01 27.559 38.02 27.519 38.02 27.498C38.03 27.469 38.04 27.448 38.05 27.429C38.06 27.408 38.08 27.389 38.1 27.359C38.13 27.339 38.18 27.309 38.25 27.259C38.33 27.208 38.42 27.169 38.54 27.129C38.65 27.078 38.78 27.049 38.93 27.019C39.08 26.979 39.24 26.969 39.41 26.969C39.64 26.969 39.84 26.998 40.02 27.049C40.19 27.099 40.34 27.179 40.46 27.278C40.58 27.379 40.67 27.498 40.73 27.648C40.79 27.798 40.82 27.958 40.82 28.138C40.82 28.287 40.81 28.418 40.77 28.537C40.73 28.668 40.68 28.777 40.61 28.867C40.54 28.968 40.45 29.048 40.35 29.117C40.24 29.187 40.12 29.237 39.98 29.267V29.277C40.15 29.298 40.29 29.338 40.43 29.407C40.56 29.468 40.67 29.548 40.76 29.647C40.85 29.747 40.92 29.857 40.97 29.977C41.01 30.097 41.04 30.227 41.04 30.367C41.04 30.607 40.99 30.807 40.9 30.987C40.81 31.18 40.69 31.33 40.53 31.45ZM51.21 30.9C51.12 31.1 50.99 31.27 50.83 31.41C50.67 31.54 50.48 31.65 50.25 31.721C50.03 31.79 49.78 31.83 49.5 31.83C49.36 31.83 49.22 31.82 49.09 31.801C48.96 31.78 48.84 31.761 48.74 31.731C48.63 31.711 48.55 31.681 48.48 31.651C48.41 31.621 48.37 31.601 48.35 31.581C48.33 31.561 48.31 31.541 48.3 31.521C48.29 31.501 48.29 31.471 48.28 31.441C48.27 31.411 48.27 31.371 48.27 31.331C48.27 31.281 48.26 31.231 48.26 31.172C48.26 31.102 48.27 31.041 48.27 30.991C48.28 30.951 48.28 30.911 48.3 30.882C48.31 30.852 48.32 30.831 48.33 30.821C48.35 30.811 48.36 30.801 48.38 30.801C48.41 30.801 48.45 30.811 48.5 30.841C48.54 30.87 48.61 30.901 48.69 30.931C48.77 30.971 48.87 31 48.99 31.031C49.1 31.052 49.24 31.071 49.4 31.071C49.54 31.071 49.67 31.051 49.79 31.021C49.9 30.991 50 30.951 50.08 30.881C50.16 30.82 50.22 30.74 50.26 30.641C50.31 30.551 50.33 30.431 50.33 30.301C50.33 30.181 50.31 30.08 50.27 29.981C50.24 29.891 50.18 29.821 50.1 29.751C50.03 29.691 49.93 29.651 49.8 29.611C49.68 29.581 49.53 29.571 49.35 29.571C49.21 29.571 49.08 29.571 48.97 29.591C48.85 29.601 48.75 29.611 48.65 29.611C48.58 29.611 48.52 29.591 48.5 29.561C48.46 29.521 48.45 29.46 48.45 29.361V27.321C48.45 27.231 48.47 27.161 48.51 27.121C48.54 27.071 48.6 27.052 48.69 27.052H50.91C50.93 27.052 50.95 27.062 50.97 27.072C50.99 27.092 51.01 27.112 51.02 27.142C51.03 27.182 51.04 27.222 51.05 27.272C51.05 27.322 51.06 27.382 51.06 27.461C51.06 27.602 51.04 27.711 51.02 27.772C50.99 27.842 50.96 27.872 50.91 27.872H49.24V28.872C49.32 28.862 49.41 28.862 49.49 28.862C49.58 28.852 49.66 28.852 49.76 28.852C50.01 28.852 50.23 28.882 50.43 28.942C50.63 29.002 50.79 29.092 50.93 29.202C51.06 29.322 51.16 29.462 51.23 29.633C51.3 29.803 51.34 30.002 51.34 30.223C51.34 30.48 51.3 30.7 51.21 30.9Z"/>
</mask>
<path d="M49.75 25.41C47.48 25.41 45.65 27.24 45.65 29.511C45.65 31.351 46.87 32.91 48.54 33.421V38.261H40.69V33.421C42.36 32.9 43.57 31.351 43.57 29.511C43.57 27.24 41.74 25.41 39.48 25.41C37.21 25.41 35.38 27.24 35.38 29.511C35.38 31.351 36.59 32.91 38.26 33.421V38.261H30.42V33.421C32.08 32.91 33.3 31.351 33.3 29.511C33.3 27.24 31.46 25.41 29.2 25.41C26.94 25.41 25.11 27.24 25.11 29.511C25.11 31.351 26.32 32.91 27.99 33.421V45.53C26.32 46.04 25.11 47.61 25.11 49.44C25.11 51.71 26.94 53.54 29.2 53.54C31.46 53.54 33.3 51.71 33.3 49.44C33.3 47.61 32.08 46.04 30.42 45.53V40.69H38.26V45.53C36.59 46.04 35.38 47.61 35.38 49.44C35.38 51.71 37.21 53.54 39.48 53.54C41.74 53.54 43.57 51.71 43.57 49.44C43.57 47.61 42.36 46.05 40.69 45.53V40.69H50.97V33.42C52.63 32.909 53.85 31.35 53.85 29.51C53.85 27.24 52.01 25.41 49.75 25.41ZM30.46 47.62C30.52 47.77 30.55 47.931 30.55 48.1C30.55 48.26 30.53 48.409 30.51 48.55C30.48 48.699 30.42 48.859 30.32 49.029C30.23 49.199 30.1 49.389 29.94 49.599C29.77 49.799 29.55 50.038 29.27 50.319L28.72 50.88H30.57C30.6 50.88 30.62 50.88 30.64 50.9C30.66 50.91 30.68 50.94 30.69 50.97C30.71 50.999 30.72 51.039 30.73 51.09C30.73 51.14 30.74 51.19 30.74 51.26C30.74 51.329 30.73 51.39 30.73 51.44C30.72 51.49 30.71 51.53 30.7 51.56C30.69 51.59 30.67 51.62 30.65 51.63C30.63 51.64 30.61 51.65 30.59 51.65H27.89C27.84 51.65 27.79 51.65 27.75 51.64C27.71 51.63 27.68 51.61 27.66 51.579C27.63 51.55 27.62 51.51 27.61 51.459C27.6 51.399 27.59 51.34 27.59 51.249C27.59 51.17 27.59 51.1 27.6 51.05C27.61 50.989 27.62 50.94 27.64 50.89C27.66 50.85 27.68 50.81 27.71 50.76C27.75 50.72 27.78 50.67 27.83 50.619L28.65 49.749C28.81 49.579 28.94 49.43 29.04 49.289C29.14 49.149 29.21 49.019 29.27 48.909C29.32 48.8 29.36 48.689 29.38 48.59C29.4 48.499 29.41 48.4 29.41 48.32C29.41 48.24 29.4 48.16 29.38 48.09C29.35 48.02 29.31 47.959 29.26 47.9C29.21 47.85 29.15 47.81 29.08 47.78C29 47.75 28.91 47.73 28.81 47.73C28.67 47.73 28.54 47.75 28.43 47.79C28.32 47.82 28.23 47.86 28.14 47.91C28.06 47.95 27.99 47.99 27.93 48.03C27.88 48.07 27.83 48.091 27.8 48.091C27.78 48.091 27.76 48.08 27.75 48.071C27.73 48.051 27.72 48.031 27.71 47.991C27.7 47.961 27.69 47.922 27.69 47.861C27.68 47.802 27.68 47.731 27.68 47.651V47.511C27.69 47.471 27.69 47.441 27.7 47.41C27.71 47.381 27.72 47.36 27.73 47.341C27.74 47.321 27.76 47.29 27.79 47.271C27.82 47.241 27.88 47.201 27.96 47.151C28.04 47.111 28.14 47.071 28.26 47.021C28.38 46.981 28.51 46.951 28.65 46.921C28.79 46.891 28.94 46.87 29.09 46.87C29.34 46.87 29.55 46.9 29.73 46.971C29.92 47.03 30.07 47.111 30.19 47.221C30.31 47.33 30.4 47.46 30.46 47.62ZM27.96 31.75C27.94 31.75 27.92 31.74 27.91 31.73C27.89 31.72 27.87 31.7 27.86 31.671C27.85 31.641 27.84 31.601 27.83 31.561C27.82 31.511 27.82 31.451 27.82 31.381C27.82 31.311 27.82 31.25 27.83 31.21C27.83 31.16 27.84 31.12 27.86 31.091C27.87 31.061 27.88 31.04 27.9 31.03C27.92 31.02 27.94 31.01 27.96 31.01H28.83V27.959L28.08 28.369C28.02 28.399 27.98 28.42 27.94 28.42C27.91 28.43 27.88 28.42 27.86 28.399C27.84 28.379 27.83 28.339 27.82 28.289C27.81 28.239 27.81 28.17 27.81 28.079V27.939C27.81 27.899 27.82 27.869 27.83 27.839C27.84 27.809 27.85 27.788 27.87 27.769C27.89 27.759 27.91 27.739 27.94 27.719L28.95 27.069C28.96 27.059 28.97 27.049 28.99 27.039C29.01 27.039 29.03 27.029 29.06 27.029C29.09 27.029 29.13 27.019 29.18 27.019H29.36C29.45 27.019 29.53 27.019 29.58 27.029C29.64 27.029 29.68 27.039 29.71 27.039C29.74 27.05 29.76 27.06 29.77 27.079C29.78 27.09 29.78 27.109 29.78 27.13V31.01H30.55C30.57 31.01 30.59 31.02 30.61 31.03C30.63 31.04 30.64 31.06 30.66 31.091C30.67 31.12 30.68 31.16 30.69 31.21V31.381C30.69 31.45 30.69 31.511 30.68 31.561C30.68 31.601 30.67 31.641 30.65 31.671C30.64 31.7 30.62 31.721 30.61 31.73C30.59 31.74 30.57 31.75 30.55 31.75H27.96ZM41.06 49.921C41.1 49.921 41.14 49.95 41.16 50.011C41.19 50.061 41.21 50.16 41.21 50.301C41.21 50.421 41.19 50.521 41.17 50.58C41.14 50.65 41.11 50.681 41.06 50.681H40.65V51.531C40.65 51.552 40.64 51.571 40.62 51.592C40.61 51.612 40.58 51.621 40.55 51.642C40.51 51.652 40.47 51.662 40.41 51.662C40.35 51.673 40.27 51.673 40.18 51.673C40.1 51.673 40.02 51.673 39.96 51.662C39.9 51.662 39.86 51.652 39.82 51.642C39.79 51.622 39.76 51.612 39.75 51.592C39.74 51.572 39.73 51.552 39.73 51.531V50.681H37.93C37.9 50.681 37.87 50.671 37.84 50.671C37.82 50.66 37.79 50.641 37.78 50.61C37.76 50.58 37.75 50.53 37.74 50.48C37.73 50.421 37.72 50.34 37.72 50.25C37.72 50.171 37.73 50.11 37.73 50.051C37.73 49.99 37.74 49.941 37.75 49.901C37.76 49.851 37.77 49.811 37.78 49.761C37.8 49.721 37.82 49.681 37.84 49.631L39.3 47.061C39.31 47.04 39.33 47.021 39.36 47.011C39.39 46.99 39.43 46.981 39.48 46.971C39.54 46.96 39.6 46.95 39.68 46.941H40.29C40.38 46.951 40.44 46.961 40.5 46.971C40.55 46.99 40.59 47 40.61 47.021C40.63 47.041 40.65 47.061 40.65 47.091V49.921H41.06ZM40.53 31.45C40.37 31.57 40.18 31.671 39.96 31.73C39.74 31.8 39.49 31.83 39.23 31.83C39.07 31.83 38.92 31.82 38.78 31.79C38.64 31.77 38.52 31.74 38.41 31.71C38.3 31.681 38.21 31.641 38.14 31.601C38.07 31.571 38.02 31.54 38 31.521C37.98 31.501 37.96 31.481 37.95 31.46C37.94 31.431 37.93 31.4 37.93 31.37C37.92 31.341 37.91 31.301 37.91 31.25C37.9 31.2 37.9 31.141 37.9 31.07C37.9 30.95 37.91 30.87 37.93 30.83C37.95 30.78 37.98 30.761 38.02 30.761C38.04 30.761 38.08 30.781 38.14 30.811C38.2 30.841 38.28 30.881 38.37 30.911C38.46 30.951 38.57 30.991 38.69 31.021C38.82 31.051 38.96 31.071 39.11 31.071C39.25 31.071 39.36 31.051 39.46 31.021C39.57 30.991 39.65 30.941 39.72 30.891C39.79 30.83 39.85 30.761 39.88 30.681C39.92 30.601 39.94 30.511 39.94 30.41C39.94 30.301 39.91 30.2 39.87 30.12C39.83 30.03 39.77 29.96 39.68 29.89C39.6 29.829 39.5 29.78 39.37 29.749C39.24 29.72 39.09 29.699 38.92 29.699H38.51C38.48 29.699 38.46 29.699 38.43 29.689C38.41 29.679 38.39 29.659 38.38 29.639C38.37 29.609 38.36 29.569 38.35 29.519C38.34 29.479 38.34 29.419 38.34 29.339C38.34 29.269 38.34 29.208 38.35 29.169C38.36 29.118 38.37 29.089 38.38 29.068C38.39 29.038 38.41 29.018 38.43 29.018C38.45 29.008 38.47 28.998 38.5 28.998H38.91C39.05 28.998 39.18 28.978 39.29 28.948C39.4 28.919 39.49 28.868 39.56 28.808C39.63 28.747 39.69 28.678 39.73 28.588C39.77 28.508 39.79 28.407 39.79 28.308C39.79 28.228 39.77 28.148 39.75 28.078C39.72 28.009 39.68 27.948 39.63 27.898C39.58 27.838 39.51 27.798 39.43 27.768C39.35 27.738 39.25 27.728 39.14 27.728C39.01 27.728 38.89 27.748 38.78 27.778C38.67 27.818 38.57 27.858 38.48 27.908C38.4 27.948 38.32 27.988 38.26 28.028C38.2 28.068 38.15 28.089 38.12 28.089C38.1 28.089 38.09 28.089 38.07 28.078C38.06 28.068 38.05 28.049 38.04 28.028C38.03 27.998 38.02 27.969 38.01 27.919V27.599C38.01 27.559 38.02 27.519 38.02 27.498C38.03 27.469 38.04 27.448 38.05 27.429C38.06 27.408 38.08 27.389 38.1 27.359C38.13 27.339 38.18 27.309 38.25 27.259C38.33 27.208 38.42 27.169 38.54 27.129C38.65 27.078 38.78 27.049 38.93 27.019C39.08 26.979 39.24 26.969 39.41 26.969C39.64 26.969 39.84 26.998 40.02 27.049C40.19 27.099 40.34 27.179 40.46 27.278C40.58 27.379 40.67 27.498 40.73 27.648C40.79 27.798 40.82 27.958 40.82 28.138C40.82 28.287 40.81 28.418 40.77 28.537C40.73 28.668 40.68 28.777 40.61 28.867C40.54 28.968 40.45 29.048 40.35 29.117C40.24 29.187 40.12 29.237 39.98 29.267V29.277C40.15 29.298 40.29 29.338 40.43 29.407C40.56 29.468 40.67 29.548 40.76 29.647C40.85 29.747 40.92 29.857 40.97 29.977C41.01 30.097 41.04 30.227 41.04 30.367C41.04 30.607 40.99 30.807 40.9 30.987C40.81 31.18 40.69 31.33 40.53 31.45ZM51.21 30.9C51.12 31.1 50.99 31.27 50.83 31.41C50.67 31.54 50.48 31.65 50.25 31.721C50.03 31.79 49.78 31.83 49.5 31.83C49.36 31.83 49.22 31.82 49.09 31.801C48.96 31.78 48.84 31.761 48.74 31.731C48.63 31.711 48.55 31.681 48.48 31.651C48.41 31.621 48.37 31.601 48.35 31.581C48.33 31.561 48.31 31.541 48.3 31.521C48.29 31.501 48.29 31.471 48.28 31.441C48.27 31.411 48.27 31.371 48.27 31.331C48.27 31.281 48.26 31.231 48.26 31.172C48.26 31.102 48.27 31.041 48.27 30.991C48.28 30.951 48.28 30.911 48.3 30.882C48.31 30.852 48.32 30.831 48.33 30.821C48.35 30.811 48.36 30.801 48.38 30.801C48.41 30.801 48.45 30.811 48.5 30.841C48.54 30.87 48.61 30.901 48.69 30.931C48.77 30.971 48.87 31 48.99 31.031C49.1 31.052 49.24 31.071 49.4 31.071C49.54 31.071 49.67 31.051 49.79 31.021C49.9 30.991 50 30.951 50.08 30.881C50.16 30.82 50.22 30.74 50.26 30.641C50.31 30.551 50.33 30.431 50.33 30.301C50.33 30.181 50.31 30.08 50.27 29.981C50.24 29.891 50.18 29.821 50.1 29.751C50.03 29.691 49.93 29.651 49.8 29.611C49.68 29.581 49.53 29.571 49.35 29.571C49.21 29.571 49.08 29.571 48.97 29.591C48.85 29.601 48.75 29.611 48.65 29.611C48.58 29.611 48.52 29.591 48.5 29.561C48.46 29.521 48.45 29.46 48.45 29.361V27.321C48.45 27.231 48.47 27.161 48.51 27.121C48.54 27.071 48.6 27.052 48.69 27.052H50.91C50.93 27.052 50.95 27.062 50.97 27.072C50.99 27.092 51.01 27.112 51.02 27.142C51.03 27.182 51.04 27.222 51.05 27.272C51.05 27.322 51.06 27.382 51.06 27.461C51.06 27.602 51.04 27.711 51.02 27.772C50.99 27.842 50.96 27.872 50.91 27.872H49.24V28.872C49.32 28.862 49.41 28.862 49.49 28.862C49.58 28.852 49.66 28.852 49.76 28.852C50.01 28.852 50.23 28.882 50.43 28.942C50.63 29.002 50.79 29.092 50.93 29.202C51.06 29.322 51.16 29.462 51.23 29.633C51.3 29.803 51.34 30.002 51.34 30.223C51.34 30.48 51.3 30.7 51.21 30.9Z" fill="#0A0B14" stroke="url(#paint2_linear_114_506)" stroke-width="0.6" mask="url(#path-3-inside-1_114_506)"/>
<path d="M11.15 39.471C11.15 23.8229 23.8328 11.15 39.47 11.15C55.1172 11.15 67.8 23.8229 67.8 39.471C67.8 55.1081 55.1172 67.791 39.47 67.791C23.8328 67.791 11.15 55.1082 11.15 39.471ZM51.75 57.571C54.9629 57.571 57.57 54.9638 57.57 51.75V27.19C57.57 23.9772 54.9628 21.37 51.75 21.37H27.19C23.9768 21.37 21.38 23.9775 21.38 27.19V51.75C21.38 54.9635 23.9768 57.571 27.19 57.571H51.75Z" fill="#0A0B14" stroke="url(#paint3_linear_114_506)" stroke-width="0.3"/>
<path d="M39.58 48.31V49.771H38.748L39.58 48.31Z" fill="#0A0B14" stroke="url(#paint4_linear_114_506)" stroke-width="0.3"/>
<mask id="path-6-inside-2_114_506" fill="white">
<path d="M49.75 25.41C47.48 25.41 45.65 27.24 45.65 29.511C45.65 31.351 46.87 32.91 48.54 33.421V38.261H40.69V33.421C42.36 32.9 43.57 31.351 43.57 29.511C43.57 27.24 41.74 25.41 39.48 25.41C37.21 25.41 35.38 27.24 35.38 29.511C35.38 31.351 36.59 32.91 38.26 33.421V38.261H30.42V33.421C32.08 32.91 33.3 31.351 33.3 29.511C33.3 27.24 31.46 25.41 29.2 25.41C26.94 25.41 25.11 27.24 25.11 29.511C25.11 31.351 26.32 32.91 27.99 33.421V45.53C26.32 46.04 25.11 47.61 25.11 49.44C25.11 51.71 26.94 53.54 29.2 53.54C31.46 53.54 33.3 51.71 33.3 49.44C33.3 47.61 32.08 46.04 30.42 45.53V40.69H38.26V45.53C36.59 46.04 35.38 47.61 35.38 49.44C35.38 51.71 37.21 53.54 39.48 53.54C41.74 53.54 43.57 51.71 43.57 49.44C43.57 47.61 42.36 46.05 40.69 45.53V40.69H50.97V33.42C52.63 32.909 53.85 31.35 53.85 29.51C53.85 27.24 52.01 25.41 49.75 25.41ZM30.46 47.62C30.52 47.77 30.55 47.931 30.55 48.1C30.55 48.26 30.53 48.409 30.51 48.55C30.48 48.699 30.42 48.859 30.32 49.029C30.23 49.199 30.1 49.389 29.94 49.599C29.77 49.799 29.55 50.038 29.27 50.319L28.72 50.88H30.57C30.6 50.88 30.62 50.88 30.64 50.9C30.66 50.91 30.68 50.94 30.69 50.97C30.71 50.999 30.72 51.039 30.73 51.09C30.73 51.14 30.74 51.19 30.74 51.26C30.74 51.329 30.73 51.39 30.73 51.44C30.72 51.49 30.71 51.53 30.7 51.56C30.69 51.59 30.67 51.62 30.65 51.63C30.63 51.64 30.61 51.65 30.59 51.65H27.89C27.84 51.65 27.79 51.65 27.75 51.64C27.71 51.63 27.68 51.61 27.66 51.579C27.63 51.55 27.62 51.51 27.61 51.459C27.6 51.399 27.59 51.34 27.59 51.249C27.59 51.17 27.59 51.1 27.6 51.05C27.61 50.989 27.62 50.94 27.64 50.89C27.66 50.85 27.68 50.81 27.71 50.76C27.75 50.72 27.78 50.67 27.83 50.619L28.65 49.749C28.81 49.579 28.94 49.43 29.04 49.289C29.14 49.149 29.21 49.019 29.27 48.909C29.32 48.8 29.36 48.689 29.38 48.59C29.4 48.499 29.41 48.4 29.41 48.32C29.41 48.24 29.4 48.16 29.38 48.09C29.35 48.02 29.31 47.959 29.26 47.9C29.21 47.85 29.15 47.81 29.08 47.78C29 47.75 28.91 47.73 28.81 47.73C28.67 47.73 28.54 47.75 28.43 47.79C28.32 47.82 28.23 47.86 28.14 47.91C28.06 47.95 27.99 47.99 27.93 48.03C27.88 48.07 27.83 48.091 27.8 48.091C27.78 48.091 27.76 48.08 27.75 48.071C27.73 48.051 27.72 48.031 27.71 47.991C27.7 47.961 27.69 47.922 27.69 47.861C27.68 47.802 27.68 47.731 27.68 47.651V47.511C27.69 47.471 27.69 47.441 27.7 47.41C27.71 47.381 27.72 47.36 27.73 47.341C27.74 47.321 27.76 47.29 27.79 47.271C27.82 47.241 27.88 47.201 27.96 47.151C28.04 47.111 28.14 47.071 28.26 47.021C28.38 46.981 28.51 46.951 28.65 46.921C28.79 46.891 28.94 46.87 29.09 46.87C29.34 46.87 29.55 46.9 29.73 46.971C29.92 47.03 30.07 47.111 30.19 47.221C30.31 47.33 30.4 47.46 30.46 47.62ZM27.96 31.75C27.94 31.75 27.92 31.74 27.91 31.73C27.89 31.72 27.87 31.7 27.86 31.671C27.85 31.641 27.84 31.601 27.83 31.561C27.82 31.511 27.82 31.451 27.82 31.381C27.82 31.311 27.82 31.25 27.83 31.21C27.83 31.16 27.84 31.12 27.86 31.091C27.87 31.061 27.88 31.04 27.9 31.03C27.92 31.02 27.94 31.01 27.96 31.01H28.83V27.959L28.08 28.369C28.02 28.399 27.98 28.42 27.94 28.42C27.91 28.43 27.88 28.42 27.86 28.399C27.84 28.379 27.83 28.339 27.82 28.289C27.81 28.239 27.81 28.17 27.81 28.079V27.939C27.81 27.899 27.82 27.869 27.83 27.839C27.84 27.809 27.85 27.788 27.87 27.769C27.89 27.759 27.91 27.739 27.94 27.719L28.95 27.069C28.96 27.059 28.97 27.049 28.99 27.039C29.01 27.039 29.03 27.029 29.06 27.029C29.09 27.029 29.13 27.019 29.18 27.019H29.36C29.45 27.019 29.53 27.019 29.58 27.029C29.64 27.029 29.68 27.039 29.71 27.039C29.74 27.05 29.76 27.06 29.77 27.079C29.78 27.09 29.78 27.109 29.78 27.13V31.01H30.55C30.57 31.01 30.59 31.02 30.61 31.03C30.63 31.04 30.64 31.06 30.66 31.091C30.67 31.12 30.68 31.16 30.69 31.21V31.381C30.69 31.45 30.69 31.511 30.68 31.561C30.68 31.601 30.67 31.641 30.65 31.671C30.64 31.7 30.62 31.721 30.61 31.73C30.59 31.74 30.57 31.75 30.55 31.75H27.96ZM41.06 49.921C41.1 49.921 41.14 49.95 41.16 50.011C41.19 50.061 41.21 50.16 41.21 50.301C41.21 50.421 41.19 50.521 41.17 50.58C41.14 50.65 41.11 50.681 41.06 50.681H40.65V51.531C40.65 51.552 40.64 51.571 40.62 51.592C40.61 51.612 40.58 51.621 40.55 51.642C40.51 51.652 40.47 51.662 40.41 51.662C40.35 51.673 40.27 51.673 40.18 51.673C40.1 51.673 40.02 51.673 39.96 51.662C39.9 51.662 39.86 51.652 39.82 51.642C39.79 51.622 39.76 51.612 39.75 51.592C39.74 51.572 39.73 51.552 39.73 51.531V50.681H37.93C37.9 50.681 37.87 50.671 37.84 50.671C37.82 50.66 37.79 50.641 37.78 50.61C37.76 50.58 37.75 50.53 37.74 50.48C37.73 50.421 37.72 50.34 37.72 50.25C37.72 50.171 37.73 50.11 37.73 50.051C37.73 49.99 37.74 49.941 37.75 49.901C37.76 49.851 37.77 49.811 37.78 49.761C37.8 49.721 37.82 49.681 37.84 49.631L39.3 47.061C39.31 47.04 39.33 47.021 39.36 47.011C39.39 46.99 39.43 46.981 39.48 46.971C39.54 46.96 39.6 46.95 39.68 46.941H40.29C40.38 46.951 40.44 46.961 40.5 46.971C40.55 46.99 40.59 47 40.61 47.021C40.63 47.041 40.65 47.061 40.65 47.091V49.921H41.06ZM40.53 31.45C40.37 31.57 40.18 31.671 39.96 31.73C39.74 31.8 39.49 31.83 39.23 31.83C39.07 31.83 38.92 31.82 38.78 31.79C38.64 31.77 38.52 31.74 38.41 31.71C38.3 31.681 38.21 31.641 38.14 31.601C38.07 31.571 38.02 31.54 38 31.521C37.98 31.501 37.96 31.481 37.95 31.46C37.94 31.431 37.93 31.4 37.93 31.37C37.92 31.341 37.91 31.301 37.91 31.25C37.9 31.2 37.9 31.141 37.9 31.07C37.9 30.95 37.91 30.87 37.93 30.83C37.95 30.78 37.98 30.761 38.02 30.761C38.04 30.761 38.08 30.781 38.14 30.811C38.2 30.841 38.28 30.881 38.37 30.911C38.46 30.951 38.57 30.991 38.69 31.021C38.82 31.051 38.96 31.071 39.11 31.071C39.25 31.071 39.36 31.051 39.46 31.021C39.57 30.991 39.65 30.941 39.72 30.891C39.79 30.83 39.85 30.761 39.88 30.681C39.92 30.601 39.94 30.511 39.94 30.41C39.94 30.301 39.91 30.2 39.87 30.12C39.83 30.03 39.77 29.96 39.68 29.89C39.6 29.829 39.5 29.78 39.37 29.749C39.24 29.72 39.09 29.699 38.92 29.699H38.51C38.48 29.699 38.46 29.699 38.43 29.689C38.41 29.679 38.39 29.659 38.38 29.639C38.37 29.609 38.36 29.569 38.35 29.519C38.34 29.479 38.34 29.419 38.34 29.339C38.34 29.269 38.34 29.208 38.35 29.169C38.36 29.118 38.37 29.089 38.38 29.068C38.39 29.038 38.41 29.018 38.43 29.018C38.45 29.008 38.47 28.998 38.5 28.998H38.91C39.05 28.998 39.18 28.978 39.29 28.948C39.4 28.919 39.49 28.868 39.56 28.808C39.63 28.747 39.69 28.678 39.73 28.588C39.77 28.508 39.79 28.407 39.79 28.308C39.79 28.228 39.77 28.148 39.75 28.078C39.72 28.009 39.68 27.948 39.63 27.898C39.58 27.838 39.51 27.798 39.43 27.768C39.35 27.738 39.25 27.728 39.14 27.728C39.01 27.728 38.89 27.748 38.78 27.778C38.67 27.818 38.57 27.858 38.48 27.908C38.4 27.948 38.32 27.988 38.26 28.028C38.2 28.068 38.15 28.089 38.12 28.089C38.1 28.089 38.09 28.089 38.07 28.078C38.06 28.068 38.05 28.049 38.04 28.028C38.03 27.998 38.02 27.969 38.01 27.919V27.599C38.01 27.559 38.02 27.519 38.02 27.498C38.03 27.469 38.04 27.448 38.05 27.429C38.06 27.408 38.08 27.389 38.1 27.359C38.13 27.339 38.18 27.309 38.25 27.259C38.33 27.208 38.42 27.169 38.54 27.129C38.65 27.078 38.78 27.049 38.93 27.019C39.08 26.979 39.24 26.969 39.41 26.969C39.64 26.969 39.84 26.998 40.02 27.049C40.19 27.099 40.34 27.179 40.46 27.278C40.58 27.379 40.67 27.498 40.73 27.648C40.79 27.798 40.82 27.958 40.82 28.138C40.82 28.287 40.81 28.418 40.77 28.537C40.73 28.668 40.68 28.777 40.61 28.867C40.54 28.968 40.45 29.048 40.35 29.117C40.24 29.187 40.12 29.237 39.98 29.267V29.277C40.15 29.298 40.29 29.338 40.43 29.407C40.56 29.468 40.67 29.548 40.76 29.647C40.85 29.747 40.92 29.857 40.97 29.977C41.01 30.097 41.04 30.227 41.04 30.367C41.04 30.607 40.99 30.807 40.9 30.987C40.81 31.18 40.69 31.33 40.53 31.45ZM51.21 30.9C51.12 31.1 50.99 31.27 50.83 31.41C50.67 31.54 50.48 31.65 50.25 31.721C50.03 31.79 49.78 31.83 49.5 31.83C49.36 31.83 49.22 31.82 49.09 31.801C48.96 31.78 48.84 31.761 48.74 31.731C48.63 31.711 48.55 31.681 48.48 31.651C48.41 31.621 48.37 31.601 48.35 31.581C48.33 31.561 48.31 31.541 48.3 31.521C48.29 31.501 48.29 31.471 48.28 31.441C48.27 31.411 48.27 31.371 48.27 31.331C48.27 31.281 48.26 31.231 48.26 31.172C48.26 31.102 48.27 31.041 48.27 30.991C48.28 30.951 48.28 30.911 48.3 30.882C48.31 30.852 48.32 30.831 48.33 30.821C48.35 30.811 48.36 30.801 48.38 30.801C48.41 30.801 48.45 30.811 48.5 30.841C48.54 30.87 48.61 30.901 48.69 30.931C48.77 30.971 48.87 31 48.99 31.031C49.1 31.052 49.24 31.071 49.4 31.071C49.54 31.071 49.67 31.051 49.79 31.021C49.9 30.991 50 30.951 50.08 30.881C50.16 30.82 50.22 30.74 50.26 30.641C50.31 30.551 50.33 30.431 50.33 30.301C50.33 30.181 50.31 30.08 50.27 29.981C50.24 29.891 50.18 29.821 50.1 29.751C50.03 29.691 49.93 29.651 49.8 29.611C49.68 29.581 49.53 29.571 49.35 29.571C49.21 29.571 49.08 29.571 48.97 29.591C48.85 29.601 48.75 29.611 48.65 29.611C48.58 29.611 48.52 29.591 48.5 29.561C48.46 29.521 48.45 29.46 48.45 29.361V27.321C48.45 27.231 48.47 27.161 48.51 27.121C48.54 27.071 48.6 27.052 48.69 27.052H50.91C50.93 27.052 50.95 27.062 50.97 27.072C50.99 27.092 51.01 27.112 51.02 27.142C51.03 27.182 51.04 27.222 51.05 27.272C51.05 27.322 51.06 27.382 51.06 27.461C51.06 27.602 51.04 27.711 51.02 27.772C50.99 27.842 50.96 27.872 50.91 27.872H49.24V28.872C49.32 28.862 49.41 28.862 49.49 28.862C49.58 28.852 49.66 28.852 49.76 28.852C50.01 28.852 50.23 28.882 50.43 28.942C50.63 29.002 50.79 29.092 50.93 29.202C51.06 29.322 51.16 29.462 51.23 29.633C51.3 29.803 51.34 30.002 51.34 30.223C51.34 30.48 51.3 30.7 51.21 30.9Z"/>
</mask>
<path d="M49.75 25.41C47.48 25.41 45.65 27.24 45.65 29.511C45.65 31.351 46.87 32.91 48.54 33.421V38.261H40.69V33.421C42.36 32.9 43.57 31.351 43.57 29.511C43.57 27.24 41.74 25.41 39.48 25.41C37.21 25.41 35.38 27.24 35.38 29.511C35.38 31.351 36.59 32.91 38.26 33.421V38.261H30.42V33.421C32.08 32.91 33.3 31.351 33.3 29.511C33.3 27.24 31.46 25.41 29.2 25.41C26.94 25.41 25.11 27.24 25.11 29.511C25.11 31.351 26.32 32.91 27.99 33.421V45.53C26.32 46.04 25.11 47.61 25.11 49.44C25.11 51.71 26.94 53.54 29.2 53.54C31.46 53.54 33.3 51.71 33.3 49.44C33.3 47.61 32.08 46.04 30.42 45.53V40.69H38.26V45.53C36.59 46.04 35.38 47.61 35.38 49.44C35.38 51.71 37.21 53.54 39.48 53.54C41.74 53.54 43.57 51.71 43.57 49.44C43.57 47.61 42.36 46.05 40.69 45.53V40.69H50.97V33.42C52.63 32.909 53.85 31.35 53.85 29.51C53.85 27.24 52.01 25.41 49.75 25.41ZM30.46 47.62C30.52 47.77 30.55 47.931 30.55 48.1C30.55 48.26 30.53 48.409 30.51 48.55C30.48 48.699 30.42 48.859 30.32 49.029C30.23 49.199 30.1 49.389 29.94 49.599C29.77 49.799 29.55 50.038 29.27 50.319L28.72 50.88H30.57C30.6 50.88 30.62 50.88 30.64 50.9C30.66 50.91 30.68 50.94 30.69 50.97C30.71 50.999 30.72 51.039 30.73 51.09C30.73 51.14 30.74 51.19 30.74 51.26C30.74 51.329 30.73 51.39 30.73 51.44C30.72 51.49 30.71 51.53 30.7 51.56C30.69 51.59 30.67 51.62 30.65 51.63C30.63 51.64 30.61 51.65 30.59 51.65H27.89C27.84 51.65 27.79 51.65 27.75 51.64C27.71 51.63 27.68 51.61 27.66 51.579C27.63 51.55 27.62 51.51 27.61 51.459C27.6 51.399 27.59 51.34 27.59 51.249C27.59 51.17 27.59 51.1 27.6 51.05C27.61 50.989 27.62 50.94 27.64 50.89C27.66 50.85 27.68 50.81 27.71 50.76C27.75 50.72 27.78 50.67 27.83 50.619L28.65 49.749C28.81 49.579 28.94 49.43 29.04 49.289C29.14 49.149 29.21 49.019 29.27 48.909C29.32 48.8 29.36 48.689 29.38 48.59C29.4 48.499 29.41 48.4 29.41 48.32C29.41 48.24 29.4 48.16 29.38 48.09C29.35 48.02 29.31 47.959 29.26 47.9C29.21 47.85 29.15 47.81 29.08 47.78C29 47.75 28.91 47.73 28.81 47.73C28.67 47.73 28.54 47.75 28.43 47.79C28.32 47.82 28.23 47.86 28.14 47.91C28.06 47.95 27.99 47.99 27.93 48.03C27.88 48.07 27.83 48.091 27.8 48.091C27.78 48.091 27.76 48.08 27.75 48.071C27.73 48.051 27.72 48.031 27.71 47.991C27.7 47.961 27.69 47.922 27.69 47.861C27.68 47.802 27.68 47.731 27.68 47.651V47.511C27.69 47.471 27.69 47.441 27.7 47.41C27.71 47.381 27.72 47.36 27.73 47.341C27.74 47.321 27.76 47.29 27.79 47.271C27.82 47.241 27.88 47.201 27.96 47.151C28.04 47.111 28.14 47.071 28.26 47.021C28.38 46.981 28.51 46.951 28.65 46.921C28.79 46.891 28.94 46.87 29.09 46.87C29.34 46.87 29.55 46.9 29.73 46.971C29.92 47.03 30.07 47.111 30.19 47.221C30.31 47.33 30.4 47.46 30.46 47.62ZM27.96 31.75C27.94 31.75 27.92 31.74 27.91 31.73C27.89 31.72 27.87 31.7 27.86 31.671C27.85 31.641 27.84 31.601 27.83 31.561C27.82 31.511 27.82 31.451 27.82 31.381C27.82 31.311 27.82 31.25 27.83 31.21C27.83 31.16 27.84 31.12 27.86 31.091C27.87 31.061 27.88 31.04 27.9 31.03C27.92 31.02 27.94 31.01 27.96 31.01H28.83V27.959L28.08 28.369C28.02 28.399 27.98 28.42 27.94 28.42C27.91 28.43 27.88 28.42 27.86 28.399C27.84 28.379 27.83 28.339 27.82 28.289C27.81 28.239 27.81 28.17 27.81 28.079V27.939C27.81 27.899 27.82 27.869 27.83 27.839C27.84 27.809 27.85 27.788 27.87 27.769C27.89 27.759 27.91 27.739 27.94 27.719L28.95 27.069C28.96 27.059 28.97 27.049 28.99 27.039C29.01 27.039 29.03 27.029 29.06 27.029C29.09 27.029 29.13 27.019 29.18 27.019H29.36C29.45 27.019 29.53 27.019 29.58 27.029C29.64 27.029 29.68 27.039 29.71 27.039C29.74 27.05 29.76 27.06 29.77 27.079C29.78 27.09 29.78 27.109 29.78 27.13V31.01H30.55C30.57 31.01 30.59 31.02 30.61 31.03C30.63 31.04 30.64 31.06 30.66 31.091C30.67 31.12 30.68 31.16 30.69 31.21V31.381C30.69 31.45 30.69 31.511 30.68 31.561C30.68 31.601 30.67 31.641 30.65 31.671C30.64 31.7 30.62 31.721 30.61 31.73C30.59 31.74 30.57 31.75 30.55 31.75H27.96ZM41.06 49.921C41.1 49.921 41.14 49.95 41.16 50.011C41.19 50.061 41.21 50.16 41.21 50.301C41.21 50.421 41.19 50.521 41.17 50.58C41.14 50.65 41.11 50.681 41.06 50.681H40.65V51.531C40.65 51.552 40.64 51.571 40.62 51.592C40.61 51.612 40.58 51.621 40.55 51.642C40.51 51.652 40.47 51.662 40.41 51.662C40.35 51.673 40.27 51.673 40.18 51.673C40.1 51.673 40.02 51.673 39.96 51.662C39.9 51.662 39.86 51.652 39.82 51.642C39.79 51.622 39.76 51.612 39.75 51.592C39.74 51.572 39.73 51.552 39.73 51.531V50.681H37.93C37.9 50.681 37.87 50.671 37.84 50.671C37.82 50.66 37.79 50.641 37.78 50.61C37.76 50.58 37.75 50.53 37.74 50.48C37.73 50.421 37.72 50.34 37.72 50.25C37.72 50.171 37.73 50.11 37.73 50.051C37.73 49.99 37.74 49.941 37.75 49.901C37.76 49.851 37.77 49.811 37.78 49.761C37.8 49.721 37.82 49.681 37.84 49.631L39.3 47.061C39.31 47.04 39.33 47.021 39.36 47.011C39.39 46.99 39.43 46.981 39.48 46.971C39.54 46.96 39.6 46.95 39.68 46.941H40.29C40.38 46.951 40.44 46.961 40.5 46.971C40.55 46.99 40.59 47 40.61 47.021C40.63 47.041 40.65 47.061 40.65 47.091V49.921H41.06ZM40.53 31.45C40.37 31.57 40.18 31.671 39.96 31.73C39.74 31.8 39.49 31.83 39.23 31.83C39.07 31.83 38.92 31.82 38.78 31.79C38.64 31.77 38.52 31.74 38.41 31.71C38.3 31.681 38.21 31.641 38.14 31.601C38.07 31.571 38.02 31.54 38 31.521C37.98 31.501 37.96 31.481 37.95 31.46C37.94 31.431 37.93 31.4 37.93 31.37C37.92 31.341 37.91 31.301 37.91 31.25C37.9 31.2 37.9 31.141 37.9 31.07C37.9 30.95 37.91 30.87 37.93 30.83C37.95 30.78 37.98 30.761 38.02 30.761C38.04 30.761 38.08 30.781 38.14 30.811C38.2 30.841 38.28 30.881 38.37 30.911C38.46 30.951 38.57 30.991 38.69 31.021C38.82 31.051 38.96 31.071 39.11 31.071C39.25 31.071 39.36 31.051 39.46 31.021C39.57 30.991 39.65 30.941 39.72 30.891C39.79 30.83 39.85 30.761 39.88 30.681C39.92 30.601 39.94 30.511 39.94 30.41C39.94 30.301 39.91 30.2 39.87 30.12C39.83 30.03 39.77 29.96 39.68 29.89C39.6 29.829 39.5 29.78 39.37 29.749C39.24 29.72 39.09 29.699 38.92 29.699H38.51C38.48 29.699 38.46 29.699 38.43 29.689C38.41 29.679 38.39 29.659 38.38 29.639C38.37 29.609 38.36 29.569 38.35 29.519C38.34 29.479 38.34 29.419 38.34 29.339C38.34 29.269 38.34 29.208 38.35 29.169C38.36 29.118 38.37 29.089 38.38 29.068C38.39 29.038 38.41 29.018 38.43 29.018C38.45 29.008 38.47 28.998 38.5 28.998H38.91C39.05 28.998 39.18 28.978 39.29 28.948C39.4 28.919 39.49 28.868 39.56 28.808C39.63 28.747 39.69 28.678 39.73 28.588C39.77 28.508 39.79 28.407 39.79 28.308C39.79 28.228 39.77 28.148 39.75 28.078C39.72 28.009 39.68 27.948 39.63 27.898C39.58 27.838 39.51 27.798 39.43 27.768C39.35 27.738 39.25 27.728 39.14 27.728C39.01 27.728 38.89 27.748 38.78 27.778C38.67 27.818 38.57 27.858 38.48 27.908C38.4 27.948 38.32 27.988 38.26 28.028C38.2 28.068 38.15 28.089 38.12 28.089C38.1 28.089 38.09 28.089 38.07 28.078C38.06 28.068 38.05 28.049 38.04 28.028C38.03 27.998 38.02 27.969 38.01 27.919V27.599C38.01 27.559 38.02 27.519 38.02 27.498C38.03 27.469 38.04 27.448 38.05 27.429C38.06 27.408 38.08 27.389 38.1 27.359C38.13 27.339 38.18 27.309 38.25 27.259C38.33 27.208 38.42 27.169 38.54 27.129C38.65 27.078 38.78 27.049 38.93 27.019C39.08 26.979 39.24 26.969 39.41 26.969C39.64 26.969 39.84 26.998 40.02 27.049C40.19 27.099 40.34 27.179 40.46 27.278C40.58 27.379 40.67 27.498 40.73 27.648C40.79 27.798 40.82 27.958 40.82 28.138C40.82 28.287 40.81 28.418 40.77 28.537C40.73 28.668 40.68 28.777 40.61 28.867C40.54 28.968 40.45 29.048 40.35 29.117C40.24 29.187 40.12 29.237 39.98 29.267V29.277C40.15 29.298 40.29 29.338 40.43 29.407C40.56 29.468 40.67 29.548 40.76 29.647C40.85 29.747 40.92 29.857 40.97 29.977C41.01 30.097 41.04 30.227 41.04 30.367C41.04 30.607 40.99 30.807 40.9 30.987C40.81 31.18 40.69 31.33 40.53 31.45ZM51.21 30.9C51.12 31.1 50.99 31.27 50.83 31.41C50.67 31.54 50.48 31.65 50.25 31.721C50.03 31.79 49.78 31.83 49.5 31.83C49.36 31.83 49.22 31.82 49.09 31.801C48.96 31.78 48.84 31.761 48.74 31.731C48.63 31.711 48.55 31.681 48.48 31.651C48.41 31.621 48.37 31.601 48.35 31.581C48.33 31.561 48.31 31.541 48.3 31.521C48.29 31.501 48.29 31.471 48.28 31.441C48.27 31.411 48.27 31.371 48.27 31.331C48.27 31.281 48.26 31.231 48.26 31.172C48.26 31.102 48.27 31.041 48.27 30.991C48.28 30.951 48.28 30.911 48.3 30.882C48.31 30.852 48.32 30.831 48.33 30.821C48.35 30.811 48.36 30.801 48.38 30.801C48.41 30.801 48.45 30.811 48.5 30.841C48.54 30.87 48.61 30.901 48.69 30.931C48.77 30.971 48.87 31 48.99 31.031C49.1 31.052 49.24 31.071 49.4 31.071C49.54 31.071 49.67 31.051 49.79 31.021C49.9 30.991 50 30.951 50.08 30.881C50.16 30.82 50.22 30.74 50.26 30.641C50.31 30.551 50.33 30.431 50.33 30.301C50.33 30.181 50.31 30.08 50.27 29.981C50.24 29.891 50.18 29.821 50.1 29.751C50.03 29.691 49.93 29.651 49.8 29.611C49.68 29.581 49.53 29.571 49.35 29.571C49.21 29.571 49.08 29.571 48.97 29.591C48.85 29.601 48.75 29.611 48.65 29.611C48.58 29.611 48.52 29.591 48.5 29.561C48.46 29.521 48.45 29.46 48.45 29.361V27.321C48.45 27.231 48.47 27.161 48.51 27.121C48.54 27.071 48.6 27.052 48.69 27.052H50.91C50.93 27.052 50.95 27.062 50.97 27.072C50.99 27.092 51.01 27.112 51.02 27.142C51.03 27.182 51.04 27.222 51.05 27.272C51.05 27.322 51.06 27.382 51.06 27.461C51.06 27.602 51.04 27.711 51.02 27.772C50.99 27.842 50.96 27.872 50.91 27.872H49.24V28.872C49.32 28.862 49.41 28.862 49.49 28.862C49.58 28.852 49.66 28.852 49.76 28.852C50.01 28.852 50.23 28.882 50.43 28.942C50.63 29.002 50.79 29.092 50.93 29.202C51.06 29.322 51.16 29.462 51.23 29.633C51.3 29.803 51.34 30.002 51.34 30.223C51.34 30.48 51.3 30.7 51.21 30.9Z" fill="#0A0B14" stroke="url(#paint5_linear_114_506)" stroke-width="0.6" mask="url(#path-6-inside-2_114_506)"/>
<path d="M39.58 48.31V49.771H38.748L39.58 48.31Z" fill="#0A0B14" stroke="url(#paint6_linear_114_506)" stroke-width="0.3"/>
<mask id="path-8-inside-3_114_506" fill="white">
<path d="M49.75 25.41C47.48 25.41 45.65 27.24 45.65 29.511C45.65 31.351 46.87 32.91 48.54 33.421V38.261H40.69V33.421C42.36 32.9 43.57 31.351 43.57 29.511C43.57 27.24 41.74 25.41 39.48 25.41C37.21 25.41 35.38 27.24 35.38 29.511C35.38 31.351 36.59 32.91 38.26 33.421V38.261H30.42V33.421C32.08 32.91 33.3 31.351 33.3 29.511C33.3 27.24 31.46 25.41 29.2 25.41C26.94 25.41 25.11 27.24 25.11 29.511C25.11 31.351 26.32 32.91 27.99 33.421V45.53C26.32 46.04 25.11 47.61 25.11 49.44C25.11 51.71 26.94 53.54 29.2 53.54C31.46 53.54 33.3 51.71 33.3 49.44C33.3 47.61 32.08 46.04 30.42 45.53V40.69H38.26V45.53C36.59 46.04 35.38 47.61 35.38 49.44C35.38 51.71 37.21 53.54 39.48 53.54C41.74 53.54 43.57 51.71 43.57 49.44C43.57 47.61 42.36 46.05 40.69 45.53V40.69H50.97V33.42C52.63 32.909 53.85 31.35 53.85 29.51C53.85 27.24 52.01 25.41 49.75 25.41ZM30.46 47.62C30.52 47.77 30.55 47.931 30.55 48.1C30.55 48.26 30.53 48.409 30.51 48.55C30.48 48.699 30.42 48.859 30.32 49.029C30.23 49.199 30.1 49.389 29.94 49.599C29.77 49.799 29.55 50.038 29.27 50.319L28.72 50.88H30.57C30.6 50.88 30.62 50.88 30.64 50.9C30.66 50.91 30.68 50.94 30.69 50.97C30.71 50.999 30.72 51.039 30.73 51.09C30.73 51.14 30.74 51.19 30.74 51.26C30.74 51.329 30.73 51.39 30.73 51.44C30.72 51.49 30.71 51.53 30.7 51.56C30.69 51.59 30.67 51.62 30.65 51.63C30.63 51.64 30.61 51.65 30.59 51.65H27.89C27.84 51.65 27.79 51.65 27.75 51.64C27.71 51.63 27.68 51.61 27.66 51.579C27.63 51.55 27.62 51.51 27.61 51.459C27.6 51.399 27.59 51.34 27.59 51.249C27.59 51.17 27.59 51.1 27.6 51.05C27.61 50.989 27.62 50.94 27.64 50.89C27.66 50.85 27.68 50.81 27.71 50.76C27.75 50.72 27.78 50.67 27.83 50.619L28.65 49.749C28.81 49.579 28.94 49.43 29.04 49.289C29.14 49.149 29.21 49.019 29.27 48.909C29.32 48.8 29.36 48.689 29.38 48.59C29.4 48.499 29.41 48.4 29.41 48.32C29.41 48.24 29.4 48.16 29.38 48.09C29.35 48.02 29.31 47.959 29.26 47.9C29.21 47.85 29.15 47.81 29.08 47.78C29 47.75 28.91 47.73 28.81 47.73C28.67 47.73 28.54 47.75 28.43 47.79C28.32 47.82 28.23 47.86 28.14 47.91C28.06 47.95 27.99 47.99 27.93 48.03C27.88 48.07 27.83 48.091 27.8 48.091C27.78 48.091 27.76 48.08 27.75 48.071C27.73 48.051 27.72 48.031 27.71 47.991C27.7 47.961 27.69 47.922 27.69 47.861C27.68 47.802 27.68 47.731 27.68 47.651V47.511C27.69 47.471 27.69 47.441 27.7 47.41C27.71 47.381 27.72 47.36 27.73 47.341C27.74 47.321 27.76 47.29 27.79 47.271C27.82 47.241 27.88 47.201 27.96 47.151C28.04 47.111 28.14 47.071 28.26 47.021C28.38 46.981 28.51 46.951 28.65 46.921C28.79 46.891 28.94 46.87 29.09 46.87C29.34 46.87 29.55 46.9 29.73 46.971C29.92 47.03 30.07 47.111 30.19 47.221C30.31 47.33 30.4 47.46 30.46 47.62ZM27.96 31.75C27.94 31.75 27.92 31.74 27.91 31.73C27.89 31.72 27.87 31.7 27.86 31.671C27.85 31.641 27.84 31.601 27.83 31.561C27.82 31.511 27.82 31.451 27.82 31.381C27.82 31.311 27.82 31.25 27.83 31.21C27.83 31.16 27.84 31.12 27.86 31.091C27.87 31.061 27.88 31.04 27.9 31.03C27.92 31.02 27.94 31.01 27.96 31.01H28.83V27.959L28.08 28.369C28.02 28.399 27.98 28.42 27.94 28.42C27.91 28.43 27.88 28.42 27.86 28.399C27.84 28.379 27.83 28.339 27.82 28.289C27.81 28.239 27.81 28.17 27.81 28.079V27.939C27.81 27.899 27.82 27.869 27.83 27.839C27.84 27.809 27.85 27.788 27.87 27.769C27.89 27.759 27.91 27.739 27.94 27.719L28.95 27.069C28.96 27.059 28.97 27.049 28.99 27.039C29.01 27.039 29.03 27.029 29.06 27.029C29.09 27.029 29.13 27.019 29.18 27.019H29.36C29.45 27.019 29.53 27.019 29.58 27.029C29.64 27.029 29.68 27.039 29.71 27.039C29.74 27.05 29.76 27.06 29.77 27.079C29.78 27.09 29.78 27.109 29.78 27.13V31.01H30.55C30.57 31.01 30.59 31.02 30.61 31.03C30.63 31.04 30.64 31.06 30.66 31.091C30.67 31.12 30.68 31.16 30.69 31.21V31.381C30.69 31.45 30.69 31.511 30.68 31.561C30.68 31.601 30.67 31.641 30.65 31.671C30.64 31.7 30.62 31.721 30.61 31.73C30.59 31.74 30.57 31.75 30.55 31.75H27.96ZM41.06 49.921C41.1 49.921 41.14 49.95 41.16 50.011C41.19 50.061 41.21 50.16 41.21 50.301C41.21 50.421 41.19 50.521 41.17 50.58C41.14 50.65 41.11 50.681 41.06 50.681H40.65V51.531C40.65 51.552 40.64 51.571 40.62 51.592C40.61 51.612 40.58 51.621 40.55 51.642C40.51 51.652 40.47 51.662 40.41 51.662C40.35 51.673 40.27 51.673 40.18 51.673C40.1 51.673 40.02 51.673 39.96 51.662C39.9 51.662 39.86 51.652 39.82 51.642C39.79 51.622 39.76 51.612 39.75 51.592C39.74 51.572 39.73 51.552 39.73 51.531V50.681H37.93C37.9 50.681 37.87 50.671 37.84 50.671C37.82 50.66 37.79 50.641 37.78 50.61C37.76 50.58 37.75 50.53 37.74 50.48C37.73 50.421 37.72 50.34 37.72 50.25C37.72 50.171 37.73 50.11 37.73 50.051C37.73 49.99 37.74 49.941 37.75 49.901C37.76 49.851 37.77 49.811 37.78 49.761C37.8 49.721 37.82 49.681 37.84 49.631L39.3 47.061C39.31 47.04 39.33 47.021 39.36 47.011C39.39 46.99 39.43 46.981 39.48 46.971C39.54 46.96 39.6 46.95 39.68 46.941H40.29C40.38 46.951 40.44 46.961 40.5 46.971C40.55 46.99 40.59 47 40.61 47.021C40.63 47.041 40.65 47.061 40.65 47.091V49.921H41.06ZM40.53 31.45C40.37 31.57 40.18 31.671 39.96 31.73C39.74 31.8 39.49 31.83 39.23 31.83C39.07 31.83 38.92 31.82 38.78 31.79C38.64 31.77 38.52 31.74 38.41 31.71C38.3 31.681 38.21 31.641 38.14 31.601C38.07 31.571 38.02 31.54 38 31.521C37.98 31.501 37.96 31.481 37.95 31.46C37.94 31.431 37.93 31.4 37.93 31.37C37.92 31.341 37.91 31.301 37.91 31.25C37.9 31.2 37.9 31.141 37.9 31.07C37.9 30.95 37.91 30.87 37.93 30.83C37.95 30.78 37.98 30.761 38.02 30.761C38.04 30.761 38.08 30.781 38.14 30.811C38.2 30.841 38.28 30.881 38.37 30.911C38.46 30.951 38.57 30.991 38.69 31.021C38.82 31.051 38.96 31.071 39.11 31.071C39.25 31.071 39.36 31.051 39.46 31.021C39.57 30.991 39.65 30.941 39.72 30.891C39.79 30.83 39.85 30.761 39.88 30.681C39.92 30.601 39.94 30.511 39.94 30.41C39.94 30.301 39.91 30.2 39.87 30.12C39.83 30.03 39.77 29.96 39.68 29.89C39.6 29.829 39.5 29.78 39.37 29.749C39.24 29.72 39.09 29.699 38.92 29.699H38.51C38.48 29.699 38.46 29.699 38.43 29.689C38.41 29.679 38.39 29.659 38.38 29.639C38.37 29.609 38.36 29.569 38.35 29.519C38.34 29.479 38.34 29.419 38.34 29.339C38.34 29.269 38.34 29.208 38.35 29.169C38.36 29.118 38.37 29.089 38.38 29.068C38.39 29.038 38.41 29.018 38.43 29.018C38.45 29.008 38.47 28.998 38.5 28.998H38.91C39.05 28.998 39.18 28.978 39.29 28.948C39.4 28.919 39.49 28.868 39.56 28.808C39.63 28.747 39.69 28.678 39.73 28.588C39.77 28.508 39.79 28.407 39.79 28.308C39.79 28.228 39.77 28.148 39.75 28.078C39.72 28.009 39.68 27.948 39.63 27.898C39.58 27.838 39.51 27.798 39.43 27.768C39.35 27.738 39.25 27.728 39.14 27.728C39.01 27.728 38.89 27.748 38.78 27.778C38.67 27.818 38.57 27.858 38.48 27.908C38.4 27.948 38.32 27.988 38.26 28.028C38.2 28.068 38.15 28.089 38.12 28.089C38.1 28.089 38.09 28.089 38.07 28.078C38.06 28.068 38.05 28.049 38.04 28.028C38.03 27.998 38.02 27.969 38.01 27.919V27.599C38.01 27.559 38.02 27.519 38.02 27.498C38.03 27.469 38.04 27.448 38.05 27.429C38.06 27.408 38.08 27.389 38.1 27.359C38.13 27.339 38.18 27.309 38.25 27.259C38.33 27.208 38.42 27.169 38.54 27.129C38.65 27.078 38.78 27.049 38.93 27.019C39.08 26.979 39.24 26.969 39.41 26.969C39.64 26.969 39.84 26.998 40.02 27.049C40.19 27.099 40.34 27.179 40.46 27.278C40.58 27.379 40.67 27.498 40.73 27.648C40.79 27.798 40.82 27.958 40.82 28.138C40.82 28.287 40.81 28.418 40.77 28.537C40.73 28.668 40.68 28.777 40.61 28.867C40.54 28.968 40.45 29.048 40.35 29.117C40.24 29.187 40.12 29.237 39.98 29.267V29.277C40.15 29.298 40.29 29.338 40.43 29.407C40.56 29.468 40.67 29.548 40.76 29.647C40.85 29.747 40.92 29.857 40.97 29.977C41.01 30.097 41.04 30.227 41.04 30.367C41.04 30.607 40.99 30.807 40.9 30.987C40.81 31.18 40.69 31.33 40.53 31.45ZM51.21 30.9C51.12 31.1 50.99 31.27 50.83 31.41C50.67 31.54 50.48 31.65 50.25 31.721C50.03 31.79 49.78 31.83 49.5 31.83C49.36 31.83 49.22 31.82 49.09 31.801C48.96 31.78 48.84 31.761 48.74 31.731C48.63 31.711 48.55 31.681 48.48 31.651C48.41 31.621 48.37 31.601 48.35 31.581C48.33 31.561 48.31 31.541 48.3 31.521C48.29 31.501 48.29 31.471 48.28 31.441C48.27 31.411 48.27 31.371 48.27 31.331C48.27 31.281 48.26 31.231 48.26 31.172C48.26 31.102 48.27 31.041 48.27 30.991C48.28 30.951 48.28 30.911 48.3 30.882C48.31 30.852 48.32 30.831 48.33 30.821C48.35 30.811 48.36 30.801 48.38 30.801C48.41 30.801 48.45 30.811 48.5 30.841C48.54 30.87 48.61 30.901 48.69 30.931C48.77 30.971 48.87 31 48.99 31.031C49.1 31.052 49.24 31.071 49.4 31.071C49.54 31.071 49.67 31.051 49.79 31.021C49.9 30.991 50 30.951 50.08 30.881C50.16 30.82 50.22 30.74 50.26 30.641C50.31 30.551 50.33 30.431 50.33 30.301C50.33 30.181 50.31 30.08 50.27 29.981C50.24 29.891 50.18 29.821 50.1 29.751C50.03 29.691 49.93 29.651 49.8 29.611C49.68 29.581 49.53 29.571 49.35 29.571C49.21 29.571 49.08 29.571 48.97 29.591C48.85 29.601 48.75 29.611 48.65 29.611C48.58 29.611 48.52 29.591 48.5 29.561C48.46 29.521 48.45 29.46 48.45 29.361V27.321C48.45 27.231 48.47 27.161 48.51 27.121C48.54 27.071 48.6 27.052 48.69 27.052H50.91C50.93 27.052 50.95 27.062 50.97 27.072C50.99 27.092 51.01 27.112 51.02 27.142C51.03 27.182 51.04 27.222 51.05 27.272C51.05 27.322 51.06 27.382 51.06 27.461C51.06 27.602 51.04 27.711 51.02 27.772C50.99 27.842 50.96 27.872 50.91 27.872H49.24V28.872C49.32 28.862 49.41 28.862 49.49 28.862C49.58 28.852 49.66 28.852 49.76 28.852C50.01 28.852 50.23 28.882 50.43 28.942C50.63 29.002 50.79 29.092 50.93 29.202C51.06 29.322 51.16 29.462 51.23 29.633C51.3 29.803 51.34 30.002 51.34 30.223C51.34 30.48 51.3 30.7 51.21 30.9Z"/>
</mask>
<path d="M49.75 25.41C47.48 25.41 45.65 27.24 45.65 29.511C45.65 31.351 46.87 32.91 48.54 33.421V38.261H40.69V33.421C42.36 32.9 43.57 31.351 43.57 29.511C43.57 27.24 41.74 25.41 39.48 25.41C37.21 25.41 35.38 27.24 35.38 29.511C35.38 31.351 36.59 32.91 38.26 33.421V38.261H30.42V33.421C32.08 32.91 33.3 31.351 33.3 29.511C33.3 27.24 31.46 25.41 29.2 25.41C26.94 25.41 25.11 27.24 25.11 29.511C25.11 31.351 26.32 32.91 27.99 33.421V45.53C26.32 46.04 25.11 47.61 25.11 49.44C25.11 51.71 26.94 53.54 29.2 53.54C31.46 53.54 33.3 51.71 33.3 49.44C33.3 47.61 32.08 46.04 30.42 45.53V40.69H38.26V45.53C36.59 46.04 35.38 47.61 35.38 49.44C35.38 51.71 37.21 53.54 39.48 53.54C41.74 53.54 43.57 51.71 43.57 49.44C43.57 47.61 42.36 46.05 40.69 45.53V40.69H50.97V33.42C52.63 32.909 53.85 31.35 53.85 29.51C53.85 27.24 52.01 25.41 49.75 25.41ZM30.46 47.62C30.52 47.77 30.55 47.931 30.55 48.1C30.55 48.26 30.53 48.409 30.51 48.55C30.48 48.699 30.42 48.859 30.32 49.029C30.23 49.199 30.1 49.389 29.94 49.599C29.77 49.799 29.55 50.038 29.27 50.319L28.72 50.88H30.57C30.6 50.88 30.62 50.88 30.64 50.9C30.66 50.91 30.68 50.94 30.69 50.97C30.71 50.999 30.72 51.039 30.73 51.09C30.73 51.14 30.74 51.19 30.74 51.26C30.74 51.329 30.73 51.39 30.73 51.44C30.72 51.49 30.71 51.53 30.7 51.56C30.69 51.59 30.67 51.62 30.65 51.63C30.63 51.64 30.61 51.65 30.59 51.65H27.89C27.84 51.65 27.79 51.65 27.75 51.64C27.71 51.63 27.68 51.61 27.66 51.579C27.63 51.55 27.62 51.51 27.61 51.459C27.6 51.399 27.59 51.34 27.59 51.249C27.59 51.17 27.59 51.1 27.6 51.05C27.61 50.989 27.62 50.94 27.64 50.89C27.66 50.85 27.68 50.81 27.71 50.76C27.75 50.72 27.78 50.67 27.83 50.619L28.65 49.749C28.81 49.579 28.94 49.43 29.04 49.289C29.14 49.149 29.21 49.019 29.27 48.909C29.32 48.8 29.36 48.689 29.38 48.59C29.4 48.499 29.41 48.4 29.41 48.32C29.41 48.24 29.4 48.16 29.38 48.09C29.35 48.02 29.31 47.959 29.26 47.9C29.21 47.85 29.15 47.81 29.08 47.78C29 47.75 28.91 47.73 28.81 47.73C28.67 47.73 28.54 47.75 28.43 47.79C28.32 47.82 28.23 47.86 28.14 47.91C28.06 47.95 27.99 47.99 27.93 48.03C27.88 48.07 27.83 48.091 27.8 48.091C27.78 48.091 27.76 48.08 27.75 48.071C27.73 48.051 27.72 48.031 27.71 47.991C27.7 47.961 27.69 47.922 27.69 47.861C27.68 47.802 27.68 47.731 27.68 47.651V47.511C27.69 47.471 27.69 47.441 27.7 47.41C27.71 47.381 27.72 47.36 27.73 47.341C27.74 47.321 27.76 47.29 27.79 47.271C27.82 47.241 27.88 47.201 27.96 47.151C28.04 47.111 28.14 47.071 28.26 47.021C28.38 46.981 28.51 46.951 28.65 46.921C28.79 46.891 28.94 46.87 29.09 46.87C29.34 46.87 29.55 46.9 29.73 46.971C29.92 47.03 30.07 47.111 30.19 47.221C30.31 47.33 30.4 47.46 30.46 47.62ZM27.96 31.75C27.94 31.75 27.92 31.74 27.91 31.73C27.89 31.72 27.87 31.7 27.86 31.671C27.85 31.641 27.84 31.601 27.83 31.561C27.82 31.511 27.82 31.451 27.82 31.381C27.82 31.311 27.82 31.25 27.83 31.21C27.83 31.16 27.84 31.12 27.86 31.091C27.87 31.061 27.88 31.04 27.9 31.03C27.92 31.02 27.94 31.01 27.96 31.01H28.83V27.959L28.08 28.369C28.02 28.399 27.98 28.42 27.94 28.42C27.91 28.43 27.88 28.42 27.86 28.399C27.84 28.379 27.83 28.339 27.82 28.289C27.81 28.239 27.81 28.17 27.81 28.079V27.939C27.81 27.899 27.82 27.869 27.83 27.839C27.84 27.809 27.85 27.788 27.87 27.769C27.89 27.759 27.91 27.739 27.94 27.719L28.95 27.069C28.96 27.059 28.97 27.049 28.99 27.039C29.01 27.039 29.03 27.029 29.06 27.029C29.09 27.029 29.13 27.019 29.18 27.019H29.36C29.45 27.019 29.53 27.019 29.58 27.029C29.64 27.029 29.68 27.039 29.71 27.039C29.74 27.05 29.76 27.06 29.77 27.079C29.78 27.09 29.78 27.109 29.78 27.13V31.01H30.55C30.57 31.01 30.59 31.02 30.61 31.03C30.63 31.04 30.64 31.06 30.66 31.091C30.67 31.12 30.68 31.16 30.69 31.21V31.381C30.69 31.45 30.69 31.511 30.68 31.561C30.68 31.601 30.67 31.641 30.65 31.671C30.64 31.7 30.62 31.721 30.61 31.73C30.59 31.74 30.57 31.75 30.55 31.75H27.96ZM41.06 49.921C41.1 49.921 41.14 49.95 41.16 50.011C41.19 50.061 41.21 50.16 41.21 50.301C41.21 50.421 41.19 50.521 41.17 50.58C41.14 50.65 41.11 50.681 41.06 50.681H40.65V51.531C40.65 51.552 40.64 51.571 40.62 51.592C40.61 51.612 40.58 51.621 40.55 51.642C40.51 51.652 40.47 51.662 40.41 51.662C40.35 51.673 40.27 51.673 40.18 51.673C40.1 51.673 40.02 51.673 39.96 51.662C39.9 51.662 39.86 51.652 39.82 51.642C39.79 51.622 39.76 51.612 39.75 51.592C39.74 51.572 39.73 51.552 39.73 51.531V50.681H37.93C37.9 50.681 37.87 50.671 37.84 50.671C37.82 50.66 37.79 50.641 37.78 50.61C37.76 50.58 37.75 50.53 37.74 50.48C37.73 50.421 37.72 50.34 37.72 50.25C37.72 50.171 37.73 50.11 37.73 50.051C37.73 49.99 37.74 49.941 37.75 49.901C37.76 49.851 37.77 49.811 37.78 49.761C37.8 49.721 37.82 49.681 37.84 49.631L39.3 47.061C39.31 47.04 39.33 47.021 39.36 47.011C39.39 46.99 39.43 46.981 39.48 46.971C39.54 46.96 39.6 46.95 39.68 46.941H40.29C40.38 46.951 40.44 46.961 40.5 46.971C40.55 46.99 40.59 47 40.61 47.021C40.63 47.041 40.65 47.061 40.65 47.091V49.921H41.06ZM40.53 31.45C40.37 31.57 40.18 31.671 39.96 31.73C39.74 31.8 39.49 31.83 39.23 31.83C39.07 31.83 38.92 31.82 38.78 31.79C38.64 31.77 38.52 31.74 38.41 31.71C38.3 31.681 38.21 31.641 38.14 31.601C38.07 31.571 38.02 31.54 38 31.521C37.98 31.501 37.96 31.481 37.95 31.46C37.94 31.431 37.93 31.4 37.93 31.37C37.92 31.341 37.91 31.301 37.91 31.25C37.9 31.2 37.9 31.141 37.9 31.07C37.9 30.95 37.91 30.87 37.93 30.83C37.95 30.78 37.98 30.761 38.02 30.761C38.04 30.761 38.08 30.781 38.14 30.811C38.2 30.841 38.28 30.881 38.37 30.911C38.46 30.951 38.57 30.991 38.69 31.021C38.82 31.051 38.96 31.071 39.11 31.071C39.25 31.071 39.36 31.051 39.46 31.021C39.57 30.991 39.65 30.941 39.72 30.891C39.79 30.83 39.85 30.761 39.88 30.681C39.92 30.601 39.94 30.511 39.94 30.41C39.94 30.301 39.91 30.2 39.87 30.12C39.83 30.03 39.77 29.96 39.68 29.89C39.6 29.829 39.5 29.78 39.37 29.749C39.24 29.72 39.09 29.699 38.92 29.699H38.51C38.48 29.699 38.46 29.699 38.43 29.689C38.41 29.679 38.39 29.659 38.38 29.639C38.37 29.609 38.36 29.569 38.35 29.519C38.34 29.479 38.34 29.419 38.34 29.339C38.34 29.269 38.34 29.208 38.35 29.169C38.36 29.118 38.37 29.089 38.38 29.068C38.39 29.038 38.41 29.018 38.43 29.018C38.45 29.008 38.47 28.998 38.5 28.998H38.91C39.05 28.998 39.18 28.978 39.29 28.948C39.4 28.919 39.49 28.868 39.56 28.808C39.63 28.747 39.69 28.678 39.73 28.588C39.77 28.508 39.79 28.407 39.79 28.308C39.79 28.228 39.77 28.148 39.75 28.078C39.72 28.009 39.68 27.948 39.63 27.898C39.58 27.838 39.51 27.798 39.43 27.768C39.35 27.738 39.25 27.728 39.14 27.728C39.01 27.728 38.89 27.748 38.78 27.778C38.67 27.818 38.57 27.858 38.48 27.908C38.4 27.948 38.32 27.988 38.26 28.028C38.2 28.068 38.15 28.089 38.12 28.089C38.1 28.089 38.09 28.089 38.07 28.078C38.06 28.068 38.05 28.049 38.04 28.028C38.03 27.998 38.02 27.969 38.01 27.919V27.599C38.01 27.559 38.02 27.519 38.02 27.498C38.03 27.469 38.04 27.448 38.05 27.429C38.06 27.408 38.08 27.389 38.1 27.359C38.13 27.339 38.18 27.309 38.25 27.259C38.33 27.208 38.42 27.169 38.54 27.129C38.65 27.078 38.78 27.049 38.93 27.019C39.08 26.979 39.24 26.969 39.41 26.969C39.64 26.969 39.84 26.998 40.02 27.049C40.19 27.099 40.34 27.179 40.46 27.278C40.58 27.379 40.67 27.498 40.73 27.648C40.79 27.798 40.82 27.958 40.82 28.138C40.82 28.287 40.81 28.418 40.77 28.537C40.73 28.668 40.68 28.777 40.61 28.867C40.54 28.968 40.45 29.048 40.35 29.117C40.24 29.187 40.12 29.237 39.98 29.267V29.277C40.15 29.298 40.29 29.338 40.43 29.407C40.56 29.468 40.67 29.548 40.76 29.647C40.85 29.747 40.92 29.857 40.97 29.977C41.01 30.097 41.04 30.227 41.04 30.367C41.04 30.607 40.99 30.807 40.9 30.987C40.81 31.18 40.69 31.33 40.53 31.45ZM51.21 30.9C51.12 31.1 50.99 31.27 50.83 31.41C50.67 31.54 50.48 31.65 50.25 31.721C50.03 31.79 49.78 31.83 49.5 31.83C49.36 31.83 49.22 31.82 49.09 31.801C48.96 31.78 48.84 31.761 48.74 31.731C48.63 31.711 48.55 31.681 48.48 31.651C48.41 31.621 48.37 31.601 48.35 31.581C48.33 31.561 48.31 31.541 48.3 31.521C48.29 31.501 48.29 31.471 48.28 31.441C48.27 31.411 48.27 31.371 48.27 31.331C48.27 31.281 48.26 31.231 48.26 31.172C48.26 31.102 48.27 31.041 48.27 30.991C48.28 30.951 48.28 30.911 48.3 30.882C48.31 30.852 48.32 30.831 48.33 30.821C48.35 30.811 48.36 30.801 48.38 30.801C48.41 30.801 48.45 30.811 48.5 30.841C48.54 30.87 48.61 30.901 48.69 30.931C48.77 30.971 48.87 31 48.99 31.031C49.1 31.052 49.24 31.071 49.4 31.071C49.54 31.071 49.67 31.051 49.79 31.021C49.9 30.991 50 30.951 50.08 30.881C50.16 30.82 50.22 30.74 50.26 30.641C50.31 30.551 50.33 30.431 50.33 30.301C50.33 30.181 50.31 30.08 50.27 29.981C50.24 29.891 50.18 29.821 50.1 29.751C50.03 29.691 49.93 29.651 49.8 29.611C49.68 29.581 49.53 29.571 49.35 29.571C49.21 29.571 49.08 29.571 48.97 29.591C48.85 29.601 48.75 29.611 48.65 29.611C48.58 29.611 48.52 29.591 48.5 29.561C48.46 29.521 48.45 29.46 48.45 29.361V27.321C48.45 27.231 48.47 27.161 48.51 27.121C48.54 27.071 48.6 27.052 48.69 27.052H50.91C50.93 27.052 50.95 27.062 50.97 27.072C50.99 27.092 51.01 27.112 51.02 27.142C51.03 27.182 51.04 27.222 51.05 27.272C51.05 27.322 51.06 27.382 51.06 27.461C51.06 27.602 51.04 27.711 51.02 27.772C50.99 27.842 50.96 27.872 50.91 27.872H49.24V28.872C49.32 28.862 49.41 28.862 49.49 28.862C49.58 28.852 49.66 28.852 49.76 28.852C50.01 28.852 50.23 28.882 50.43 28.942C50.63 29.002 50.79 29.092 50.93 29.202C51.06 29.322 51.16 29.462 51.23 29.633C51.3 29.803 51.34 30.002 51.34 30.223C51.34 30.48 51.3 30.7 51.21 30.9Z" fill="#0A0B14" stroke="url(#paint7_linear_114_506)" stroke-width="0.6" mask="url(#path-8-inside-3_114_506)"/>
<path d="M51.4699 50.3439L51.47 50.3438C51.4238 50.2237 51.3681 50.1116 51.3184 50.0123C51.2618 49.9183 51.2058 49.8345 51.1505 49.7607L51.4699 50.3439ZM51.4699 50.3439L51.4724 50.3498M51.4699 50.3439L51.4724 50.3498M51.4724 50.3498L51.9406 51.4256L51.4724 50.3498ZM51.6613 47.3661L51.6613 47.3661C51.597 47.2099 51.5173 47.0791 51.416 46.9772C51.2988 46.8694 51.163 46.7787 51.0076 46.7054L51.6613 47.3661ZM51.6613 47.3661L51.6626 47.3691M51.6613 47.3661L51.6626 47.3691M51.6626 47.3691C51.7212 47.5032 51.75 47.6805 51.75 47.889C51.75 48.0508 51.7233 48.2058 51.6863 48.3457L51.6626 47.3691ZM50.6088 48.6829L50.609 48.6831L50.6161 48.6761C50.6955 48.5966 50.7688 48.5018 50.8183 48.3781C50.8679 48.2651 50.89 48.1344 50.89 48C50.89 47.7961 50.8442 47.6193 50.748 47.4618L50.7481 47.4617L50.7445 47.4563C50.6396 47.3002 50.4654 47.193 50.2627 47.1362C50.1912 47.1138 50.1218 47.1015 50.0386 47.0911L50.0293 47.09H50.02C49.9939 47.09 49.9624 47.0884 49.921 47.0862C49.9147 47.0859 49.9082 47.0855 49.9014 47.0852C49.8521 47.0827 49.794 47.08 49.73 47.08H49.22H49.07V47.23V48.79V48.94H49.22H49.79C49.962 48.94 50.1187 48.9185 50.2574 48.8723C50.3885 48.8286 50.5086 48.7705 50.6088 48.6829Z" fill="#0A0B14" stroke="url(#paint8_linear_114_506)" stroke-width="0.3"/>
<defs>
<linearGradient id="paint0_linear_114_506" x1="39.5" y1="3" x2="39.5" y2="76" gradientUnits="userSpaceOnUse">
<stop offset="0.215" stop-color="#E30613"/>
<stop offset="0.635" stop-color="#B0050F"/>
<stop offset="1" stop-color="#7D030A"/>
</linearGradient>
<linearGradient id="paint1_linear_114_506" x1="39.11" y1="47.761" x2="39.11" y2="49.921" gradientUnits="userSpaceOnUse">
<stop offset="0.215" stop-color="#E30613"/>
<stop offset="0.635" stop-color="#B0050F"/>
<stop offset="1" stop-color="#7D030A"/>
</linearGradient>
<linearGradient id="paint2_linear_114_506" x1="39.48" y1="25.41" x2="39.48" y2="53.54" gradientUnits="userSpaceOnUse">
<stop offset="0.215" stop-color="#E30613"/>
<stop offset="0.635" stop-color="#B0050F"/>
<stop offset="1" stop-color="#7D030A"/>
</linearGradient>
<linearGradient id="paint3_linear_114_506" x1="39.475" y1="11" x2="39.475" y2="67.941" gradientUnits="userSpaceOnUse">
<stop offset="0.215" stop-color="#E30613"/>
<stop offset="0.635" stop-color="#B0050F"/>
<stop offset="1" stop-color="#7D030A"/>
</linearGradient>
<linearGradient id="paint4_linear_114_506" x1="39.11" y1="47.761" x2="39.11" y2="49.921" gradientUnits="userSpaceOnUse">
<stop offset="0.215" stop-color="#E30613"/>
<stop offset="0.635" stop-color="#B0050F"/>
<stop offset="1" stop-color="#7D030A"/>
</linearGradient>
<linearGradient id="paint5_linear_114_506" x1="39.48" y1="25.41" x2="39.48" y2="53.54" gradientUnits="userSpaceOnUse">
<stop offset="0.215" stop-color="#E30613"/>
<stop offset="0.635" stop-color="#B0050F"/>
<stop offset="1" stop-color="#7D030A"/>
</linearGradient>
<linearGradient id="paint6_linear_114_506" x1="39.11" y1="47.761" x2="39.11" y2="49.921" gradientUnits="userSpaceOnUse">
<stop offset="0.215" stop-color="#E30613"/>
<stop offset="0.635" stop-color="#B0050F"/>
<stop offset="1" stop-color="#7D030A"/>
</linearGradient>
<linearGradient id="paint7_linear_114_506" x1="39.48" y1="25.41" x2="39.48" y2="53.54" gradientUnits="userSpaceOnUse">
<stop offset="0.215" stop-color="#E30613"/>
<stop offset="0.635" stop-color="#B0050F"/>
<stop offset="1" stop-color="#7D030A"/>
</linearGradient>
<linearGradient id="paint8_linear_114_506" x1="50.145" y1="46.379" x2="50.145" y2="51.898" gradientUnits="userSpaceOnUse">
<stop offset="0.215" stop-color="#E30613"/>
<stop offset="0.635" stop-color="#B0050F"/>
<stop offset="1" stop-color="#7D030A"/>
</linearGradient>
</defs>
</svg>
