<svg width="20" height="21" viewBox="0 0 20 21" fill="none" xmlns="http://www.w3.org/2000/svg">
<path d="M10 2.26907C12.67 2.26907 12.9867 2.27907 14.0408 2.32741C15.1308 2.37741 16.2533 2.62574 17.0475 3.41991C17.8492 4.22157 18.09 5.33324 18.14 6.42657C18.1883 7.48074 18.1983 7.79741 18.1983 10.4674C18.1983 13.1374 18.1883 13.4541 18.14 14.5082C18.0908 15.5924 17.8367 16.7257 17.0475 17.5149C16.2458 18.3166 15.135 18.5574 14.0408 18.6074C12.9867 18.6557 12.67 18.6657 10 18.6657C7.33 18.6657 7.01333 18.6557 5.95917 18.6074C4.88333 18.5582 3.735 18.2982 2.9525 17.5149C2.155 16.7174 1.91 15.5949 1.86 14.5082C1.81167 13.4541 1.80167 13.1374 1.80167 10.4674C1.80167 7.79741 1.81167 7.48074 1.86 6.42657C1.90917 5.34657 2.16583 4.20657 2.9525 3.41991C3.7525 2.61991 4.86833 2.37741 5.95917 2.32741C7.01333 2.27907 7.33 2.26907 10 2.26907ZM10 0.467407C7.28417 0.467407 6.94333 0.479074 5.87667 0.527407C4.33083 0.598241 2.79583 1.02824 1.67833 2.14574C0.556667 3.26741 0.130833 4.79907 0.06 6.34407C0.0116667 7.41074 0 7.75157 0 10.4674C0 13.1832 0.0116667 13.5241 0.06 14.5907C0.130833 16.1349 0.5625 17.6741 1.67833 18.7891C2.79917 19.9099 4.33333 20.3366 5.87667 20.4074C6.94333 20.4557 7.28417 20.4674 10 20.4674C12.7158 20.4674 13.0567 20.4557 14.1233 20.4074C15.6683 20.3366 17.205 19.9057 18.3217 18.7891C19.4442 17.6666 19.8692 16.1357 19.94 14.5907C19.9883 13.5241 20 13.1832 20 10.4674C20 7.75157 19.9883 7.41074 19.94 6.34407C19.8692 4.79824 19.4383 3.26241 18.3217 2.14574C17.2025 1.02657 15.6642 0.597407 14.1233 0.527407C13.0567 0.479074 12.7158 0.467407 10 0.467407Z" fill="white"/>
<path d="M9.99999 5.3324C7.16416 5.3324 4.86499 7.63156 4.86499 10.4674C4.86499 13.3032 7.16416 15.6024 9.99999 15.6024C12.8358 15.6024 15.135 13.3032 15.135 10.4674C15.135 7.63156 12.8358 5.3324 9.99999 5.3324ZM9.99999 13.8007C8.15916 13.8007 6.66666 12.3082 6.66666 10.4674C6.66666 8.62656 8.15916 7.13406 9.99999 7.13406C11.8408 7.13406 13.3333 8.62656 13.3333 10.4674C13.3333 12.3082 11.8408 13.8007 9.99999 13.8007Z" fill="white"/>
<path d="M15.3383 6.32908C16.001 6.32908 16.5383 5.79182 16.5383 5.12908C16.5383 4.46634 16.001 3.92908 15.3383 3.92908C14.6756 3.92908 14.1383 4.46634 14.1383 5.12908C14.1383 5.79182 14.6756 6.32908 15.3383 6.32908Z" fill="white"/>
</svg>
