<svg width="25" height="21" viewBox="0 0 25 21" fill="none" xmlns="http://www.w3.org/2000/svg">
<path d="M2.5 20.4674C1.8125 20.4674 1.22396 20.2226 0.734375 19.733C0.244792 19.2434 0 18.6549 0 17.9674V2.96741C0 2.27991 0.244792 1.69137 0.734375 1.20178C1.22396 0.712199 1.8125 0.467407 2.5 0.467407H22.5C23.1875 0.467407 23.776 0.712199 24.2656 1.20178C24.7552 1.69137 25 2.27991 25 2.96741V17.9674C25 18.6549 24.7552 19.2434 24.2656 19.733C23.776 20.2226 23.1875 20.4674 22.5 20.4674H2.5ZM12.5 11.7174L2.5 5.46741V17.9674H22.5V5.46741L12.5 11.7174ZM12.5 9.21741L22.5 2.96741H2.5L12.5 9.21741ZM2.5 5.46741V2.96741V17.9674V5.46741Z" fill="white"/>
</svg>
