<svg width="20" height="21" viewBox="0 0 20 21" fill="none" xmlns="http://www.w3.org/2000/svg">
<path d="M18.8333 20.4674C16.5185 20.4674 14.2315 19.9628 11.9722 18.9535C9.71296 17.9443 7.65741 16.5137 5.80556 14.6619C3.9537 12.81 2.52315 10.7544 1.51389 8.49518C0.50463 6.23593 0 3.94889 0 1.63407C0 1.30074 0.111111 1.02296 0.333333 0.800741C0.555556 0.578518 0.833333 0.467407 1.16667 0.467407H5.66667C5.92593 0.467407 6.15741 0.55537 6.36111 0.731296C6.56482 0.907222 6.68519 1.11556 6.72222 1.3563L7.44444 5.24518C7.48148 5.54148 7.47222 5.79148 7.41667 5.99518C7.36111 6.19889 7.25926 6.37481 7.11111 6.52296L4.41667 9.24518C4.78704 9.93037 5.22685 10.5924 5.73611 11.2313C6.24537 11.8702 6.80556 12.4859 7.41667 13.0785C7.99074 13.6526 8.59259 14.185 9.22222 14.6757C9.85185 15.1665 10.5185 15.6156 11.2222 16.023L13.8333 13.4119C14 13.2452 14.2176 13.1202 14.4861 13.0369C14.7546 12.9535 15.0185 12.9304 15.2778 12.9674L19.1111 13.7452C19.3704 13.8193 19.5833 13.9535 19.75 14.148C19.9167 14.3424 20 14.56 20 14.8007V19.3007C20 19.6341 19.8889 19.9119 19.6667 20.1341C19.4444 20.3563 19.1667 20.4674 18.8333 20.4674Z" fill="white"/>
</svg>
