<svg width="20" height="23" viewBox="0 0 20 23" fill="none" xmlns="http://www.w3.org/2000/svg">
<path d="M20 9.42852C17.9558 9.42852 16.0608 8.77485 14.5145 7.66437V15.6776C14.5145 19.6799 11.2586 22.9348 7.25726 22.9348C5.71101 22.9348 4.27657 22.4474 3.09824 21.6198C1.22706 20.3058 0 18.1326 0 15.6776C0 11.6753 3.25593 8.41934 7.25822 8.41934C7.59079 8.41934 7.91571 8.44706 8.23586 8.49006V9.42374V12.5153C7.92622 12.4188 7.59939 12.3624 7.25822 12.3624C5.431 12.3624 3.944 13.8494 3.944 15.6776C3.944 16.9505 4.66648 18.0562 5.72152 18.6114C6.18119 18.8532 6.70394 18.9918 7.25918 18.9918C9.04434 18.9918 10.5008 17.5717 10.5677 15.8018L10.5705 0H14.5136C14.5136 0.342125 14.547 0.67565 14.6063 1.00057C14.8844 2.50287 15.776 3.79205 17.0117 4.59767C17.8717 5.15864 18.8981 5.48643 19.999 5.48643L20 9.42852Z" fill="white"/>
</svg>
