<svg width="20" height="21" viewBox="0 0 20 21" fill="none" xmlns="http://www.w3.org/2000/svg">
<path d="M13.3 15.1674L14.7 13.7674L11 10.0674V5.46741H9V10.8674L13.3 15.1674ZM10 20.4674C8.61667 20.4674 7.31667 20.2049 6.1 19.6799C4.88333 19.1549 3.825 18.4424 2.925 17.5424C2.025 16.6424 1.3125 15.5841 0.7875 14.3674C0.2625 13.1507 0 11.8507 0 10.4674C0 9.08407 0.2625 7.78407 0.7875 6.56741C1.3125 5.35074 2.025 4.29241 2.925 3.39241C3.825 2.49241 4.88333 1.77991 6.1 1.25491C7.31667 0.729907 8.61667 0.467407 10 0.467407C11.3833 0.467407 12.6833 0.729907 13.9 1.25491C15.1167 1.77991 16.175 2.49241 17.075 3.39241C17.975 4.29241 18.6875 5.35074 19.2125 6.56741C19.7375 7.78407 20 9.08407 20 10.4674C20 11.8507 19.7375 13.1507 19.2125 14.3674C18.6875 15.5841 17.975 16.6424 17.075 17.5424C16.175 18.4424 15.1167 19.1549 13.9 19.6799C12.6833 20.2049 11.3833 20.4674 10 20.4674ZM10 18.4674C12.2167 18.4674 14.1042 17.6882 15.6625 16.1299C17.2208 14.5716 18 12.6841 18 10.4674C18 8.25074 17.2208 6.36324 15.6625 4.80491C14.1042 3.24657 12.2167 2.46741 10 2.46741C7.78333 2.46741 5.89583 3.24657 4.3375 4.80491C2.77917 6.36324 2 8.25074 2 10.4674C2 12.6841 2.77917 14.5716 4.3375 16.1299C5.89583 17.6882 7.78333 18.4674 10 18.4674Z" fill="white"/>
</svg>
