<svg width="33" height="33" viewBox="0 0 33 33" fill="none" xmlns="http://www.w3.org/2000/svg">
<path d="M29.3333 16.4543C29.3333 12.8892 28.0882 9.86496 25.5979 7.38158C23.1076 4.8982 20.075 3.65651 16.5 3.65651V0C18.7917 0 20.9382 0.434211 22.9396 1.30263C24.941 2.17105 26.6826 3.34418 28.1646 4.82202C29.6465 6.29986 30.8229 8.0367 31.6938 10.0325C32.5646 12.0284 33 14.169 33 16.4543H29.3333ZM22 16.4543C22 14.9307 21.4653 13.6357 20.3958 12.5693C19.3264 11.5028 18.0278 10.9695 16.5 10.9695V7.31302C19.0361 7.31302 21.1979 8.20429 22.9854 9.98684C24.7729 11.7694 25.6667 13.9252 25.6667 16.4543H22ZM31.075 33C27.2556 33 23.4819 32.1697 19.7542 30.509C16.0264 28.8483 12.6347 26.4945 9.57917 23.4474C6.52361 20.4003 4.16319 17.018 2.49792 13.3006C0.832639 9.5831 0 5.81994 0 2.01108C0 1.4626 0.183333 1.00554 0.55 0.639889C0.916667 0.274238 1.375 0.0914127 1.925 0.0914127H9.35C9.77778 0.0914127 10.1597 0.23615 10.4958 0.525623C10.8319 0.815097 11.0306 1.15789 11.0917 1.55402L12.2833 7.95291C12.3444 8.44044 12.3292 8.8518 12.2375 9.18698C12.1458 9.52216 11.9778 9.81164 11.7333 10.0554L7.2875 14.5346C7.89861 15.6621 8.62431 16.7514 9.46458 17.8026C10.3049 18.8539 11.2292 19.867 12.2375 20.8421C13.1847 21.7867 14.1778 22.6627 15.2167 23.4702C16.2556 24.2777 17.3556 25.0166 18.5167 25.687L22.825 21.3906C23.1 21.1163 23.459 20.9107 23.9021 20.7735C24.3451 20.6364 24.7806 20.5983 25.2083 20.6593L31.5333 21.9391C31.9611 22.0609 32.3125 22.2819 32.5875 22.6018C32.8625 22.9217 33 23.2798 33 23.6759V31.0803C33 31.6288 32.8167 32.0859 32.45 32.4515C32.0833 32.8172 31.625 33 31.075 33Z" fill="white"/>
</svg>
