<svg width="35" height="33" viewBox="0 0 35 33" fill="none" xmlns="http://www.w3.org/2000/svg">
<path d="M12.9625 33L12.3025 27.72C11.945 27.5825 11.6081 27.4175 11.2919 27.225C10.9756 27.0325 10.6662 26.8263 10.3637 26.6063L5.45498 28.6688L0.91748 20.8313L5.16623 17.6138C5.13873 17.4213 5.12498 17.2356 5.12498 17.0569V15.9431C5.12498 15.7644 5.13873 15.5788 5.16623 15.3863L0.91748 12.1688L5.45498 4.33125L10.3637 6.39375C10.6662 6.17375 10.9825 5.9675 11.3125 5.775C11.6425 5.5825 11.9725 5.4175 12.3025 5.28L12.9625 0H22.0375L22.6975 5.28C23.055 5.4175 23.3919 5.5825 23.7081 5.775C24.0244 5.9675 24.3337 6.17375 24.6362 6.39375L29.545 4.33125L34.0825 12.1688L29.8337 15.3863C29.8612 15.5788 29.875 15.7644 29.875 15.9431V17.0569C29.875 17.2356 29.8475 17.4213 29.7925 17.6138L34.0412 20.8313L29.5037 28.6688L24.6362 26.6063C24.3337 26.8263 24.0175 27.0325 23.6875 27.225C23.3575 27.4175 23.0275 27.5825 22.6975 27.72L22.0375 33H12.9625ZM17.5825 22.275C19.1775 22.275 20.5387 21.7113 21.6662 20.5838C22.7937 19.4563 23.3575 18.095 23.3575 16.5C23.3575 14.905 22.7937 13.5438 21.6662 12.4163C20.5387 11.2888 19.1775 10.725 17.5825 10.725C15.96 10.725 14.5919 11.2888 13.4781 12.4163C12.3644 13.5438 11.8075 14.905 11.8075 16.5C11.8075 18.095 12.3644 19.4563 13.4781 20.5838C14.5919 21.7113 15.96 22.275 17.5825 22.275Z" fill="white"/>
</svg>
