<svg width="47" height="33" viewBox="0 0 47 33" fill="none" xmlns="http://www.w3.org/2000/svg">
<path d="M0.8125 26.8125V18.5625H17.725L4.9375 8.45625V14.4375H0.8125V2.0625H2.875L25.5625 14.5406V0H35.875L46.1875 12.375V26.8125H41.0312C41.0312 28.5312 40.4297 29.9922 39.2266 31.1953C38.0234 32.3984 36.5625 33 34.8438 33C33.125 33 31.6641 32.3984 30.4609 31.1953C29.2578 29.9922 28.6562 28.5312 28.6562 26.8125H17.3125C17.3125 28.5312 16.7109 29.9922 15.5078 31.1953C14.3047 32.3984 12.8438 33 11.125 33C9.40625 33 7.94531 32.3984 6.74219 31.1953C5.53906 29.9922 4.9375 28.5312 4.9375 26.8125H0.8125ZM11.125 29.9062C12.0188 29.9062 12.7578 29.6141 13.3422 29.0297C13.9266 28.4453 14.2188 27.7062 14.2188 26.8125C14.2188 25.9187 13.9266 25.1797 13.3422 24.5953C12.7578 24.0109 12.0188 23.7188 11.125 23.7188C10.2312 23.7188 9.49219 24.0109 8.90781 24.5953C8.32344 25.1797 8.03125 25.9187 8.03125 26.8125C8.03125 27.7062 8.32344 28.4453 8.90781 29.0297C9.49219 29.6141 10.2312 29.9062 11.125 29.9062ZM34.8438 29.9062C35.7375 29.9062 36.4766 29.6141 37.0609 29.0297C37.6453 28.4453 37.9375 27.7062 37.9375 26.8125C37.9375 25.9187 37.6453 25.1797 37.0609 24.5953C36.4766 24.0109 35.7375 23.7188 34.8438 23.7188C33.95 23.7188 33.2109 24.0109 32.6266 24.5953C32.0422 25.1797 31.75 25.9187 31.75 26.8125C31.75 27.7062 32.0422 28.4453 32.6266 29.0297C33.2109 29.6141 33.95 29.9062 34.8438 29.9062ZM29.6875 12.375H40.825L33.9156 4.125H29.6875V12.375Z" fill="white"/>
</svg>
