<svg width="35" height="35" viewBox="0 0 35 35" fill="none" xmlns="http://www.w3.org/2000/svg">
<circle cx="17.5" cy="17.5" r="17.5" fill="white"/>
<path d="M28 15.4285C25.9558 15.4285 24.0608 14.7748 22.5145 13.6644V21.6776C22.5145 25.6799 19.2586 28.9348 15.2573 28.9348C13.711 28.9348 12.2766 28.4474 11.0982 27.6198C9.22706 26.3058 8 24.1326 8 21.6776C8 17.6753 11.2559 14.4193 15.2582 14.4193C15.5908 14.4193 15.9157 14.4471 16.2359 14.4901V15.4237V18.5153C15.9262 18.4188 15.5994 18.3624 15.2582 18.3624C13.431 18.3624 11.944 19.8494 11.944 21.6776C11.944 22.9505 12.6665 24.0562 13.7215 24.6114C14.1812 24.8532 14.7039 24.9918 15.2592 24.9918C17.0443 24.9918 18.5008 23.5717 18.5677 21.8018L18.5705 6H22.5136C22.5136 6.34213 22.547 6.67565 22.6063 7.00057C22.8844 8.50287 23.776 9.79205 25.0117 10.5977C25.8717 11.1586 26.8981 11.4864 27.999 11.4864L28 15.4285Z" fill="#4A4D53"/>
</svg>
